# Tealback pistol - units: studs (16 px = 1 stud), +Y up, barrel -Z
mtllib pistol.mtl
o Body
g Body
v 0.281250 0.406250 0.437500
v 0.281250 0.406250 -0.437500
v 0.281250 0.156250 0.437500
v 0.281250 0.156250 -0.437500
v -0.281250 0.406250 -0.437500
v -0.281250 0.406250 0.437500
v -0.281250 0.156250 -0.437500
v -0.281250 0.156250 0.437500
v -0.281250 0.406250 -0.437500
v 0.281250 0.406250 -0.437500
v -0.281250 0.406250 0.437500
v 0.281250 0.406250 0.437500
v -0.281250 0.156250 0.437500
v 0.281250 0.156250 0.437500
v -0.281250 0.156250 -0.437500
v 0.281250 0.156250 -0.437500
v -0.281250 0.406250 0.437500
v 0.281250 0.406250 0.437500
v -0.281250 0.156250 0.437500
v 0.281250 0.156250 0.437500
v 0.281250 0.406250 -0.437500
v -0.281250 0.406250 -0.437500
v 0.281250 0.156250 -0.437500
v -0.281250 0.156250 -0.437500
v 0.218750 0.406250 -0.437500
v 0.218750 0.406250 -1.312500
v 0.218750 0.156250 -0.437500
v 0.218750 0.156250 -1.312500
v -0.218750 0.406250 -1.312500
v -0.218750 0.406250 -0.437500
v -0.218750 0.156250 -1.312500
v -0.218750 0.156250 -0.437500
v -0.218750 0.406250 -1.312500
v 0.218750 0.406250 -1.312500
v -0.218750 0.406250 -0.437500
v 0.218750 0.406250 -0.437500
v -0.218750 0.156250 -0.437500
v 0.218750 0.156250 -0.437500
v -0.218750 0.156250 -1.312500
v 0.218750 0.156250 -1.312500
v 0.218750 0.406250 -1.312500
v -0.218750 0.406250 -1.312500
v 0.218750 0.156250 -1.312500
v -0.218750 0.156250 -1.312500
v 0.156250 0.156250 -1.000000
v 0.156250 0.156250 -1.312500
v 0.156250 0.031250 -1.000000
v 0.156250 0.031250 -1.312500
v -0.156250 0.156250 -1.312500
v -0.156250 0.156250 -1.000000
v -0.156250 0.031250 -1.312500
v -0.156250 0.031250 -1.000000
v -0.156250 0.031250 -1.000000
v 0.156250 0.031250 -1.000000
v -0.156250 0.031250 -1.312500
v 0.156250 0.031250 -1.312500
v -0.156250 0.156250 -1.000000
v 0.156250 0.156250 -1.000000
v -0.156250 0.031250 -1.000000
v 0.156250 0.031250 -1.000000
v 0.156250 0.156250 -1.312500
v -0.156250 0.156250 -1.312500
v 0.156250 0.031250 -1.312500
v -0.156250 0.031250 -1.312500
v 0.156250 0.156250 -0.750000
v 0.156250 0.156250 -0.875000
v 0.156250 -0.093750 -0.750000
v 0.156250 -0.093750 -0.875000
v -0.156250 0.156250 -0.875000
v -0.156250 0.156250 -0.750000
v -0.156250 -0.093750 -0.875000
v -0.156250 -0.093750 -0.750000
v -0.156250 0.156250 -0.750000
v 0.156250 0.156250 -0.750000
v -0.156250 -0.093750 -0.750000
v 0.156250 -0.093750 -0.750000
v 0.156250 0.156250 -0.875000
v -0.156250 0.156250 -0.875000
v 0.156250 -0.093750 -0.875000
v -0.156250 -0.093750 -0.875000
v 0.156250 -0.093750 -0.187500
v 0.156250 -0.093750 -0.875000
v 0.156250 -0.218750 -0.187500
v 0.156250 -0.218750 -0.875000
v -0.156250 -0.093750 -0.875000
v -0.156250 -0.093750 -0.187500
v -0.156250 -0.218750 -0.875000
v -0.156250 -0.218750 -0.187500
v -0.156250 -0.093750 -0.875000
v 0.156250 -0.093750 -0.875000
v -0.156250 -0.093750 -0.187500
v 0.156250 -0.093750 -0.187500
v -0.156250 -0.218750 -0.187500
v 0.156250 -0.218750 -0.187500
v -0.156250 -0.218750 -0.875000
v 0.156250 -0.218750 -0.875000
v 0.156250 -0.093750 -0.875000
v -0.156250 -0.093750 -0.875000
v 0.156250 -0.218750 -0.875000
v -0.156250 -0.218750 -0.875000
v 0.093750 0.718750 -0.812500
v 0.093750 0.718750 -1.312500
v 0.093750 0.468750 -0.812500
v 0.093750 0.468750 -1.312500
v -0.093750 0.718750 -1.312500
v -0.093750 0.718750 -0.812500
v -0.093750 0.468750 -1.312500
v -0.093750 0.468750 -0.812500
v -0.093750 0.718750 -1.312500
v 0.093750 0.718750 -1.312500
v -0.093750 0.718750 -0.812500
v 0.093750 0.718750 -0.812500
v -0.093750 0.468750 -0.812500
v 0.093750 0.468750 -0.812500
v -0.093750 0.468750 -1.312500
v 0.093750 0.468750 -1.312500
v -0.093750 0.718750 -0.812500
v 0.093750 0.718750 -0.812500
v -0.093750 0.468750 -0.812500
v 0.093750 0.468750 -0.812500
v 0.281250 0.843750 -1.312500
v 0.281250 0.843750 -1.687500
v 0.281250 0.343750 -1.312500
v 0.281250 0.343750 -1.687500
v -0.281250 0.843750 -1.687500
v -0.281250 0.843750 -1.312500
v -0.281250 0.343750 -1.687500
v -0.281250 0.343750 -1.312500
v -0.281250 0.843750 -1.687500
v 0.281250 0.843750 -1.687500
v -0.281250 0.843750 -1.312500
v 0.281250 0.843750 -1.312500
v -0.281250 0.343750 -1.312500
v 0.281250 0.343750 -1.312500
v -0.281250 0.343750 -1.687500
v 0.281250 0.343750 -1.687500
v -0.281250 0.843750 -1.312500
v 0.281250 0.843750 -1.312500
v -0.281250 0.343750 -1.312500
v 0.281250 0.343750 -1.312500
v 0.281250 0.843750 -1.687500
v -0.281250 0.843750 -1.687500
v 0.281250 0.343750 -1.687500
v -0.281250 0.343750 -1.687500
v 0.218750 0.392316 0.231264
v 0.218750 0.230554 -0.372440
v 0.218750 -0.090647 0.360673
v 0.218750 -0.252409 -0.243030
v -0.218750 0.230554 -0.372440
v -0.218750 0.392316 0.231264
v -0.218750 -0.252409 -0.243030
v -0.218750 -0.090647 0.360673
v -0.218750 0.392316 0.231264
v 0.218750 0.392316 0.231264
v -0.218750 -0.090647 0.360673
v 0.218750 -0.090647 0.360673
v 0.218750 0.230554 -0.372440
v -0.218750 0.230554 -0.372440
v 0.218750 -0.252409 -0.243030
v -0.218750 -0.252409 -0.243030
v 0.281250 -0.074471 0.421044
v 0.281250 -0.252409 -0.243030
v 0.281250 -0.195211 0.453396
v 0.281250 -0.373149 -0.210678
v -0.281250 -0.252409 -0.243030
v -0.281250 -0.074471 0.421044
v -0.281250 -0.373149 -0.210678
v -0.281250 -0.195211 0.453396
v -0.281250 -0.252409 -0.243030
v 0.281250 -0.252409 -0.243030
v -0.281250 -0.074471 0.421044
v 0.281250 -0.074471 0.421044
v -0.281250 -0.195211 0.453396
v 0.281250 -0.195211 0.453396
v -0.281250 -0.373149 -0.210678
v 0.281250 -0.373149 -0.210678
v -0.281250 -0.074471 0.421044
v 0.281250 -0.074471 0.421044
v -0.281250 -0.195211 0.453396
v 0.281250 -0.195211 0.453396
v 0.281250 -0.252409 -0.243030
v -0.281250 -0.252409 -0.243030
v 0.281250 -0.373149 -0.210678
v -0.281250 -0.373149 -0.210678
v -0.312500 0.125000 -0.468750
v -0.312500 0.437500 -0.468750
v -0.312500 0.437500 0.468750
v -0.312500 0.125000 0.468750
v -0.312500 0.312500 -1.718750
v -0.312500 0.875000 -1.718750
v -0.312500 0.875000 -1.281250
v -0.312500 0.312500 -1.281250
v -0.250000 0.125000 -1.343750
v -0.250000 0.312500 -1.343750
v -0.250000 0.312500 -0.468750
v -0.250000 0.125000 -0.468750
v -0.250000 0.312500 -1.281250
v -0.250000 0.437500 -1.281250
v -0.250000 0.437500 -0.468750
v -0.250000 0.312500 -0.468750
v -0.187500 -0.250000 -0.906250
v -0.187500 -0.062500 -0.906250
v -0.187500 -0.062500 -0.156250
v -0.187500 -0.250000 -0.156250
v -0.187500 -0.062500 -0.906250
v -0.187500 0.125000 -0.906250
v -0.187500 0.125000 -0.718750
v -0.187500 -0.062500 -0.718750
v -0.187500 0.000000 -1.343750
v -0.187500 0.125000 -1.343750
v -0.187500 0.125000 -0.968750
v -0.187500 0.000000 -0.968750
v -0.125000 0.437500 -1.281250
v -0.125000 0.750000 -1.281250
v -0.125000 0.750000 -0.781250
v -0.125000 0.437500 -0.781250
v 0.125000 0.437500 -0.781250
v 0.125000 0.750000 -0.781250
v 0.125000 0.750000 -1.281250
v 0.125000 0.437500 -1.281250
v 0.187500 -0.250000 -0.156250
v 0.187500 -0.062500 -0.156250
v 0.187500 -0.062500 -0.906250
v 0.187500 -0.250000 -0.906250
v 0.187500 -0.062500 -0.718750
v 0.187500 0.125000 -0.718750
v 0.187500 0.125000 -0.906250
v 0.187500 -0.062500 -0.906250
v 0.187500 0.000000 -0.968750
v 0.187500 0.125000 -0.968750
v 0.187500 0.125000 -1.343750
v 0.187500 0.000000 -1.343750
v 0.250000 0.125000 -0.468750
v 0.250000 0.312500 -0.468750
v 0.250000 0.312500 -1.343750
v 0.250000 0.125000 -1.343750
v 0.250000 0.312500 -0.468750
v 0.250000 0.437500 -0.468750
v 0.250000 0.437500 -1.281250
v 0.250000 0.312500 -1.281250
v 0.312500 0.125000 0.468750
v 0.312500 0.437500 0.468750
v 0.312500 0.437500 -0.468750
v 0.312500 0.125000 -0.468750
v 0.312500 0.312500 -1.281250
v 0.312500 0.875000 -1.281250
v 0.312500 0.875000 -1.718750
v 0.312500 0.312500 -1.718750
v -0.187500 -0.250000 -0.156250
v 0.187500 -0.250000 -0.156250
v 0.187500 -0.250000 -0.906250
v -0.187500 -0.250000 -0.906250
v -0.187500 -0.062500 -0.718750
v 0.187500 -0.062500 -0.718750
v 0.187500 -0.062500 -0.156250
v -0.187500 -0.062500 -0.156250
v -0.187500 0.000000 -0.968750
v 0.187500 0.000000 -0.968750
v 0.187500 0.000000 -1.343750
v -0.187500 0.000000 -1.343750
v -0.312500 0.125000 0.468750
v 0.312500 0.125000 0.468750
v 0.312500 0.125000 -0.468750
v -0.312500 0.125000 -0.468750
v -0.250000 0.125000 -0.468750
v -0.187500 0.125000 -0.468750
v -0.187500 0.125000 -1.343750
v -0.250000 0.125000 -1.343750
v -0.187500 0.125000 -0.906250
v 0.250000 0.125000 -0.906250
v 0.250000 0.125000 -0.968750
v -0.187500 0.125000 -0.968750
v -0.187500 0.125000 -0.468750
v 0.250000 0.125000 -0.468750
v 0.250000 0.125000 -0.718750
v -0.187500 0.125000 -0.718750
v 0.187500 0.125000 -0.968750
v 0.250000 0.125000 -0.968750
v 0.250000 0.125000 -1.343750
v 0.187500 0.125000 -1.343750
v 0.187500 0.125000 -0.718750
v 0.250000 0.125000 -0.718750
v 0.250000 0.125000 -0.906250
v 0.187500 0.125000 -0.906250
v -0.312500 0.312500 -1.281250
v -0.250000 0.312500 -1.281250
v -0.250000 0.312500 -1.718750
v -0.312500 0.312500 -1.718750
v -0.250000 0.312500 -1.343750
v 0.312500 0.312500 -1.343750
v 0.312500 0.312500 -1.718750
v -0.250000 0.312500 -1.718750
v 0.250000 0.312500 -1.281250
v 0.312500 0.312500 -1.281250
v 0.312500 0.312500 -1.343750
v 0.250000 0.312500 -1.343750
v -0.312500 0.437500 -0.468750
v 0.312500 0.437500 -0.468750
v 0.312500 0.437500 0.468750
v -0.312500 0.437500 0.468750
v -0.250000 0.437500 -1.281250
v -0.125000 0.437500 -1.281250
v -0.125000 0.437500 -0.468750
v -0.250000 0.437500 -0.468750
v -0.125000 0.437500 -0.781250
v 0.250000 0.437500 -0.781250
v 0.250000 0.437500 -0.468750
v -0.125000 0.437500 -0.468750
v 0.125000 0.437500 -1.281250
v 0.250000 0.437500 -1.281250
v 0.250000 0.437500 -0.781250
v 0.125000 0.437500 -0.781250
v -0.125000 0.750000 -1.281250
v 0.125000 0.750000 -1.281250
v 0.125000 0.750000 -0.781250
v -0.125000 0.750000 -0.781250
v -0.312500 0.875000 -1.718750
v 0.312500 0.875000 -1.718750
v 0.312500 0.875000 -1.281250
v -0.312500 0.875000 -1.281250
v -0.312500 0.312500 -1.718750
v 0.312500 0.312500 -1.718750
v 0.312500 0.875000 -1.718750
v -0.312500 0.875000 -1.718750
v -0.250000 0.125000 -1.343750
v 0.250000 0.125000 -1.343750
v 0.250000 0.312500 -1.343750
v -0.250000 0.312500 -1.343750
v -0.187500 0.000000 -1.343750
v 0.187500 0.000000 -1.343750
v 0.187500 0.125000 -1.343750
v -0.187500 0.125000 -1.343750
v -0.312500 0.875000 -1.281250
v -0.250000 0.875000 -1.281250
v -0.250000 0.312500 -1.281250
v -0.312500 0.312500 -1.281250
v -0.250000 0.875000 -1.281250
v -0.125000 0.875000 -1.281250
v -0.125000 0.437500 -1.281250
v -0.250000 0.437500 -1.281250
v -0.125000 0.875000 -1.281250
v 0.312500 0.875000 -1.281250
v 0.312500 0.750000 -1.281250
v -0.125000 0.750000 -1.281250
v 0.125000 0.750000 -1.281250
v 0.312500 0.750000 -1.281250
v 0.312500 0.437500 -1.281250
v 0.125000 0.437500 -1.281250
v 0.250000 0.437500 -1.281250
v 0.312500 0.437500 -1.281250
v 0.312500 0.312500 -1.281250
v 0.250000 0.312500 -1.281250
v -0.187500 0.125000 -0.968750
v 0.187500 0.125000 -0.968750
v 0.187500 0.000000 -0.968750
v -0.187500 0.000000 -0.968750
v -0.187500 -0.250000 -0.906250
v 0.187500 -0.250000 -0.906250
v 0.187500 0.125000 -0.906250
v -0.187500 0.125000 -0.906250
v -0.125000 0.750000 -0.781250
v 0.125000 0.750000 -0.781250
v 0.125000 0.437500 -0.781250
v -0.125000 0.437500 -0.781250
v -0.187500 0.125000 -0.718750
v 0.187500 0.125000 -0.718750
v 0.187500 -0.062500 -0.718750
v -0.187500 -0.062500 -0.718750
v -0.312500 0.125000 -0.468750
v -0.250000 0.125000 -0.468750
v -0.250000 0.437500 -0.468750
v -0.312500 0.437500 -0.468750
v 0.250000 0.125000 -0.468750
v 0.312500 0.125000 -0.468750
v 0.312500 0.437500 -0.468750
v 0.250000 0.437500 -0.468750
v -0.187500 -0.062500 -0.156250
v 0.187500 -0.062500 -0.156250
v 0.187500 -0.250000 -0.156250
v -0.187500 -0.250000 -0.156250
v -0.312500 0.437500 0.468750
v 0.312500 0.437500 0.468750
v 0.312500 0.125000 0.468750
v -0.312500 0.125000 0.468750
v -0.312500 -0.411423 -0.232775
v -0.312500 -0.230312 -0.281304
v -0.312500 -0.036197 0.443141
v -0.312500 -0.217308 0.491669
v -0.250000 -0.230312 -0.281304
v -0.250000 0.252651 -0.410713
v -0.250000 0.430589 0.253361
v -0.250000 -0.052374 0.382770
v 0.250000 -0.052374 0.382770
v 0.250000 0.430589 0.253361
v 0.250000 0.252651 -0.410713
v 0.250000 -0.230312 -0.281304
v 0.312500 -0.217308 0.491669
v 0.312500 -0.036197 0.443141
v 0.312500 -0.230312 -0.281304
v 0.312500 -0.411423 -0.232775
v -0.312500 -0.217308 0.491669
v 0.312500 -0.217308 0.491669
v 0.312500 -0.411423 -0.232775
v -0.312500 -0.411423 -0.232775
v -0.312500 -0.230312 -0.281304
v -0.250000 -0.230312 -0.281304
v -0.250000 -0.036197 0.443141
v -0.312500 -0.036197 0.443141
v -0.250000 -0.052374 0.382770
v 0.312500 -0.052374 0.382770
v 0.312500 -0.036197 0.443141
v -0.250000 -0.036197 0.443141
v 0.250000 -0.230312 -0.281304
v 0.312500 -0.230312 -0.281304
v 0.312500 -0.052374 0.382770
v 0.250000 -0.052374 0.382770
v -0.250000 0.252651 -0.410713
v 0.250000 0.252651 -0.410713
v 0.250000 0.430589 0.253361
v -0.250000 0.430589 0.253361
v -0.312500 -0.411423 -0.232775
v 0.312500 -0.411423 -0.232775
v 0.312500 -0.230312 -0.281304
v -0.312500 -0.230312 -0.281304
v -0.250000 -0.230312 -0.281304
v 0.250000 -0.230312 -0.281304
v 0.250000 0.252651 -0.410713
v -0.250000 0.252651 -0.410713
v -0.250000 0.430589 0.253361
v 0.250000 0.430589 0.253361
v 0.250000 -0.052374 0.382770
v -0.250000 -0.052374 0.382770
v -0.312500 -0.036197 0.443141
v 0.312500 -0.036197 0.443141
v 0.312500 -0.217308 0.491669
v -0.312500 -0.217308 0.491669
vt 0.828125 0.679688
vt 0.937500 0.679688
vt 0.828125 0.648438
vt 0.937500 0.648438
vt 0.007812 0.617188
vt 0.117188 0.617188
vt 0.007812 0.585938
vt 0.117188 0.585938
vt 0.187500 0.992188
vt 0.257812 0.992188
vt 0.187500 0.882812
vt 0.257812 0.882812
vt 0.273438 0.992188
vt 0.343750 0.992188
vt 0.273438 0.882812
vt 0.343750 0.882812
vt 0.382812 0.617188
vt 0.453125 0.617188
vt 0.382812 0.585938
vt 0.453125 0.585938
vt 0.468750 0.617188
vt 0.539062 0.617188
vt 0.468750 0.585938
vt 0.539062 0.585938
vt 0.132812 0.617188
vt 0.242188 0.617188
vt 0.132812 0.585938
vt 0.242188 0.585938
vt 0.257812 0.617188
vt 0.367188 0.617188
vt 0.257812 0.585938
vt 0.367188 0.585938
vt 0.359375 0.992188
vt 0.414062 0.992188
vt 0.359375 0.882812
vt 0.414062 0.882812
vt 0.429688 0.992188
vt 0.484375 0.992188
vt 0.429688 0.882812
vt 0.484375 0.882812
vt 0.710938 0.617188
vt 0.765625 0.617188
vt 0.710938 0.585938
vt 0.765625 0.585938
vt 0.234375 0.523438
vt 0.273438 0.523438
vt 0.234375 0.507812
vt 0.273438 0.507812
vt 0.289062 0.523438
vt 0.328125 0.523438
vt 0.289062 0.507812
vt 0.328125 0.507812
vt 0.773438 0.679688
vt 0.812500 0.679688
vt 0.773438 0.640625
vt 0.812500 0.640625
vt 0.343750 0.523438
vt 0.382812 0.523438
vt 0.343750 0.507812
vt 0.382812 0.507812
vt 0.398438 0.523438
vt 0.437500 0.523438
vt 0.398438 0.507812
vt 0.437500 0.507812
vt 0.007812 0.570312
vt 0.023438 0.570312
vt 0.007812 0.539062
vt 0.023438 0.539062
vt 0.039062 0.570312
vt 0.054688 0.570312
vt 0.039062 0.539062
vt 0.054688 0.539062
vt 0.781250 0.617188
vt 0.820312 0.617188
vt 0.781250 0.585938
vt 0.820312 0.585938
vt 0.835938 0.617188
vt 0.875000 0.617188
vt 0.835938 0.585938
vt 0.875000 0.585938
vt 0.132812 0.570312
vt 0.218750 0.570312
vt 0.132812 0.554688
vt 0.218750 0.554688
vt 0.234375 0.570312
vt 0.320312 0.570312
vt 0.234375 0.554688
vt 0.320312 0.554688
vt 0.671875 0.992188
vt 0.710938 0.992188
vt 0.671875 0.906250
vt 0.710938 0.906250
vt 0.726562 0.992188
vt 0.765625 0.992188
vt 0.726562 0.906250
vt 0.765625 0.906250
vt 0.453125 0.523438
vt 0.492188 0.523438
vt 0.453125 0.507812
vt 0.492188 0.507812
vt 0.554688 0.617188
vt 0.617188 0.617188
vt 0.554688 0.585938
vt 0.617188 0.585938
vt 0.632812 0.617188
vt 0.695312 0.617188
vt 0.632812 0.585938
vt 0.695312 0.585938
vt 0.875000 0.765625
vt 0.898438 0.765625
vt 0.875000 0.703125
vt 0.898438 0.703125
vt 0.914062 0.765625
vt 0.937500 0.765625
vt 0.914062 0.703125
vt 0.937500 0.703125
vt 0.890625 0.617188
vt 0.914062 0.617188
vt 0.890625 0.585938
vt 0.914062 0.585938
vt 0.750000 0.765625
vt 0.796875 0.765625
vt 0.750000 0.703125
vt 0.796875 0.703125
vt 0.812500 0.765625
vt 0.859375 0.765625
vt 0.812500 0.703125
vt 0.859375 0.703125
vt 0.460938 0.679688
vt 0.531250 0.679688
vt 0.460938 0.632812
vt 0.531250 0.632812
vt 0.546875 0.679688
vt 0.617188 0.679688
vt 0.546875 0.632812
vt 0.617188 0.632812
vt 0.359375 0.765625
vt 0.429688 0.765625
vt 0.359375 0.703125
vt 0.429688 0.703125
vt 0.445312 0.765625
vt 0.515625 0.765625
vt 0.445312 0.703125
vt 0.515625 0.703125
vt 0.171875 0.765625
vt 0.250000 0.765625
vt 0.171875 0.703125
vt 0.250000 0.703125
vt 0.265625 0.765625
vt 0.343750 0.765625
vt 0.265625 0.703125
vt 0.343750 0.703125
vt 0.609375 0.765625
vt 0.664062 0.765625
vt 0.609375 0.703125
vt 0.664062 0.703125
vt 0.679688 0.765625
vt 0.734375 0.765625
vt 0.679688 0.703125
vt 0.734375 0.703125
vt 0.335938 0.570312
vt 0.421875 0.570312
vt 0.335938 0.554688
vt 0.421875 0.554688
vt 0.437500 0.570312
vt 0.523438 0.570312
vt 0.437500 0.554688
vt 0.523438 0.554688
vt 0.500000 0.992188
vt 0.570312 0.992188
vt 0.500000 0.906250
vt 0.570312 0.906250
vt 0.585938 0.992188
vt 0.656250 0.992188
vt 0.585938 0.906250
vt 0.656250 0.906250
vt 0.726562 0.570312
vt 0.796875 0.570312
vt 0.726562 0.554688
vt 0.796875 0.554688
vt 0.812500 0.570312
vt 0.882812 0.570312
vt 0.812500 0.554688
vt 0.882812 0.554688
vt 0.562500 0.734375
vt 0.562500 0.734375
vt 0.562500 0.734375
vt 0.562500 0.734375
vt 0.562500 0.734375
vt 0.562500 0.734375
vt 0.562500 0.734375
vt 0.562500 0.734375
vt 0.562500 0.734375
vt 0.562500 0.734375
vt 0.562500 0.734375
vt 0.562500 0.734375
vt 0.562500 0.734375
vt 0.562500 0.734375
vt 0.562500 0.734375
vt 0.562500 0.734375
vt 0.562500 0.734375
vt 0.562500 0.734375
vt 0.562500 0.734375
vt 0.562500 0.734375
vt 0.562500 0.734375
vt 0.562500 0.734375
vt 0.562500 0.734375
vt 0.562500 0.734375
vt 0.562500 0.734375
vt 0.562500 0.734375
vt 0.562500 0.734375
vt 0.562500 0.734375
vt 0.562500 0.734375
vt 0.562500 0.734375
vt 0.562500 0.734375
vt 0.562500 0.734375
vt 0.562500 0.734375
vt 0.562500 0.734375
vt 0.562500 0.734375
vt 0.562500 0.734375
vt 0.562500 0.734375
vt 0.562500 0.734375
vt 0.562500 0.734375
vt 0.562500 0.734375
vt 0.562500 0.734375
vt 0.562500 0.734375
vt 0.562500 0.734375
vt 0.562500 0.734375
vt 0.562500 0.734375
vt 0.562500 0.734375
vt 0.562500 0.734375
vt 0.562500 0.734375
vt 0.562500 0.734375
vt 0.562500 0.734375
vt 0.562500 0.734375
vt 0.562500 0.734375
vt 0.562500 0.734375
vt 0.562500 0.734375
vt 0.562500 0.734375
vt 0.562500 0.734375
vt 0.562500 0.734375
vt 0.562500 0.734375
vt 0.562500 0.734375
vt 0.562500 0.734375
vt 0.562500 0.734375
vt 0.562500 0.734375
vt 0.562500 0.734375
vt 0.562500 0.734375
vt 0.562500 0.734375
vt 0.562500 0.734375
vt 0.562500 0.734375
vt 0.562500 0.734375
vt 0.562500 0.734375
vt 0.562500 0.734375
vt 0.562500 0.734375
vt 0.562500 0.734375
vt 0.562500 0.734375
vt 0.562500 0.734375
vt 0.562500 0.734375
vt 0.562500 0.734375
vt 0.562500 0.734375
vt 0.562500 0.734375
vt 0.562500 0.734375
vt 0.562500 0.734375
vt 0.562500 0.734375
vt 0.562500 0.734375
vt 0.562500 0.734375
vt 0.562500 0.734375
vt 0.562500 0.734375
vt 0.562500 0.734375
vt 0.562500 0.734375
vt 0.562500 0.734375
vt 0.562500 0.734375
vt 0.562500 0.734375
vt 0.562500 0.734375
vt 0.562500 0.734375
vt 0.562500 0.734375
vt 0.562500 0.734375
vt 0.562500 0.734375
vt 0.562500 0.734375
vt 0.562500 0.734375
vt 0.562500 0.734375
vt 0.562500 0.734375
vt 0.562500 0.734375
vt 0.562500 0.734375
vt 0.562500 0.734375
vt 0.562500 0.734375
vt 0.562500 0.734375
vt 0.562500 0.734375
vt 0.562500 0.734375
vt 0.562500 0.734375
vt 0.562500 0.734375
vt 0.562500 0.734375
vt 0.562500 0.734375
vt 0.562500 0.734375
vt 0.562500 0.734375
vt 0.562500 0.734375
vt 0.562500 0.734375
vt 0.562500 0.734375
vt 0.562500 0.734375
vt 0.562500 0.734375
vt 0.562500 0.734375
vt 0.562500 0.734375
vt 0.562500 0.734375
vt 0.562500 0.734375
vt 0.562500 0.734375
vt 0.562500 0.734375
vt 0.562500 0.734375
vt 0.562500 0.734375
vt 0.562500 0.734375
vt 0.562500 0.734375
vt 0.562500 0.734375
vt 0.562500 0.734375
vt 0.562500 0.734375
vt 0.562500 0.734375
vt 0.562500 0.734375
vt 0.562500 0.734375
vt 0.562500 0.734375
vt 0.562500 0.734375
vt 0.562500 0.734375
vt 0.562500 0.734375
vt 0.562500 0.734375
vt 0.562500 0.734375
vt 0.562500 0.734375
vt 0.562500 0.734375
vt 0.562500 0.734375
vt 0.562500 0.734375
vt 0.562500 0.734375
vt 0.562500 0.734375
vt 0.562500 0.734375
vt 0.562500 0.734375
vt 0.562500 0.734375
vt 0.562500 0.734375
vt 0.562500 0.734375
vt 0.562500 0.734375
vt 0.562500 0.734375
vt 0.562500 0.734375
vt 0.562500 0.734375
vt 0.562500 0.734375
vt 0.562500 0.734375
vt 0.562500 0.734375
vt 0.562500 0.734375
vt 0.562500 0.734375
vt 0.562500 0.734375
vt 0.562500 0.734375
vt 0.562500 0.734375
vt 0.562500 0.734375
vt 0.562500 0.734375
vt 0.562500 0.734375
vt 0.562500 0.734375
vt 0.562500 0.734375
vt 0.562500 0.734375
vt 0.562500 0.734375
vt 0.562500 0.734375
vt 0.562500 0.734375
vt 0.562500 0.734375
vt 0.562500 0.734375
vt 0.562500 0.734375
vt 0.562500 0.734375
vt 0.562500 0.734375
vt 0.562500 0.734375
vt 0.562500 0.734375
vt 0.562500 0.734375
vt 0.562500 0.734375
vt 0.562500 0.734375
vt 0.562500 0.734375
vt 0.562500 0.734375
vt 0.562500 0.734375
vt 0.562500 0.734375
vt 0.562500 0.734375
vt 0.562500 0.734375
vt 0.562500 0.734375
vt 0.562500 0.734375
vt 0.562500 0.734375
vt 0.562500 0.734375
vt 0.562500 0.734375
vt 0.562500 0.734375
vt 0.562500 0.734375
vt 0.562500 0.734375
vt 0.562500 0.734375
vt 0.562500 0.734375
vt 0.562500 0.734375
vt 0.562500 0.734375
vt 0.562500 0.734375
vt 0.562500 0.734375
vt 0.562500 0.734375
vt 0.562500 0.734375
vt 0.562500 0.734375
vt 0.562500 0.734375
vt 0.562500 0.734375
vt 0.562500 0.734375
vt 0.562500 0.734375
vt 0.562500 0.734375
vt 0.562500 0.734375
vt 0.562500 0.734375
vt 0.562500 0.734375
vt 0.562500 0.734375
vt 0.562500 0.734375
vt 0.562500 0.734375
vt 0.562500 0.734375
vt 0.562500 0.734375
vt 0.562500 0.734375
vt 0.562500 0.734375
vt 0.562500 0.734375
vt 0.562500 0.734375
vt 0.562500 0.734375
vt 0.562500 0.734375
vt 0.562500 0.734375
vt 0.562500 0.734375
vt 0.562500 0.734375
vt 0.562500 0.734375
vt 0.562500 0.734375
vt 0.562500 0.734375
vt 0.562500 0.734375
vt 0.562500 0.734375
vt 0.562500 0.734375
vt 0.562500 0.734375
vt 0.562500 0.734375
vt 0.562500 0.734375
vt 0.562500 0.734375
vt 0.562500 0.734375
vt 0.562500 0.734375
vt 0.562500 0.734375
vt 0.562500 0.734375
vt 0.562500 0.734375
vt 0.562500 0.734375
vt 0.562500 0.734375
vt 0.562500 0.734375
vt 0.562500 0.734375
vt 0.562500 0.734375
vt 0.562500 0.734375
vt 0.562500 0.734375
vt 0.562500 0.734375
vt 0.562500 0.734375
vt 0.562500 0.734375
vt 0.562500 0.734375
vn 1.000000 0.000000 0.000000
vn 1.000000 0.000000 0.000000
vn 1.000000 0.000000 0.000000
vn 1.000000 0.000000 0.000000
vn -1.000000 0.000000 0.000000
vn -1.000000 0.000000 0.000000
vn -1.000000 0.000000 0.000000
vn -1.000000 0.000000 0.000000
vn 0.000000 1.000000 0.000000
vn 0.000000 1.000000 0.000000
vn 0.000000 1.000000 0.000000
vn 0.000000 1.000000 0.000000
vn 0.000000 -1.000000 0.000000
vn 0.000000 -1.000000 0.000000
vn 0.000000 -1.000000 0.000000
vn 0.000000 -1.000000 0.000000
vn 0.000000 0.000000 1.000000
vn 0.000000 0.000000 1.000000
vn 0.000000 0.000000 1.000000
vn 0.000000 0.000000 1.000000
vn 0.000000 -0.000000 -1.000000
vn 0.000000 -0.000000 -1.000000
vn 0.000000 -0.000000 -1.000000
vn 0.000000 -0.000000 -1.000000
vn 1.000000 0.000000 0.000000
vn 1.000000 0.000000 0.000000
vn 1.000000 0.000000 0.000000
vn 1.000000 0.000000 0.000000
vn -1.000000 0.000000 0.000000
vn -1.000000 0.000000 0.000000
vn -1.000000 0.000000 0.000000
vn -1.000000 0.000000 0.000000
vn 0.000000 1.000000 0.000000
vn 0.000000 1.000000 0.000000
vn 0.000000 1.000000 0.000000
vn 0.000000 1.000000 0.000000
vn 0.000000 -1.000000 0.000000
vn 0.000000 -1.000000 0.000000
vn 0.000000 -1.000000 0.000000
vn 0.000000 -1.000000 0.000000
vn 0.000000 -0.000000 -1.000000
vn 0.000000 -0.000000 -1.000000
vn 0.000000 -0.000000 -1.000000
vn 0.000000 -0.000000 -1.000000
vn 1.000000 0.000000 0.000000
vn 1.000000 0.000000 0.000000
vn 1.000000 0.000000 0.000000
vn 1.000000 0.000000 0.000000
vn -1.000000 0.000000 0.000000
vn -1.000000 0.000000 0.000000
vn -1.000000 0.000000 0.000000
vn -1.000000 0.000000 0.000000
vn 0.000000 -1.000000 0.000000
vn 0.000000 -1.000000 0.000000
vn 0.000000 -1.000000 0.000000
vn 0.000000 -1.000000 0.000000
vn 0.000000 0.000000 1.000000
vn 0.000000 0.000000 1.000000
vn 0.000000 0.000000 1.000000
vn 0.000000 0.000000 1.000000
vn 0.000000 -0.000000 -1.000000
vn 0.000000 -0.000000 -1.000000
vn 0.000000 -0.000000 -1.000000
vn 0.000000 -0.000000 -1.000000
vn 1.000000 0.000000 0.000000
vn 1.000000 0.000000 0.000000
vn 1.000000 0.000000 0.000000
vn 1.000000 0.000000 0.000000
vn -1.000000 0.000000 0.000000
vn -1.000000 0.000000 0.000000
vn -1.000000 0.000000 0.000000
vn -1.000000 0.000000 0.000000
vn 0.000000 0.000000 1.000000
vn 0.000000 0.000000 1.000000
vn 0.000000 0.000000 1.000000
vn 0.000000 0.000000 1.000000
vn 0.000000 -0.000000 -1.000000
vn 0.000000 -0.000000 -1.000000
vn 0.000000 -0.000000 -1.000000
vn 0.000000 -0.000000 -1.000000
vn 1.000000 0.000000 0.000000
vn 1.000000 0.000000 0.000000
vn 1.000000 0.000000 0.000000
vn 1.000000 0.000000 0.000000
vn -1.000000 0.000000 0.000000
vn -1.000000 0.000000 0.000000
vn -1.000000 0.000000 0.000000
vn -1.000000 0.000000 0.000000
vn 0.000000 1.000000 0.000000
vn 0.000000 1.000000 0.000000
vn 0.000000 1.000000 0.000000
vn 0.000000 1.000000 0.000000
vn 0.000000 -1.000000 0.000000
vn 0.000000 -1.000000 0.000000
vn 0.000000 -1.000000 0.000000
vn 0.000000 -1.000000 0.000000
vn 0.000000 -0.000000 -1.000000
vn 0.000000 -0.000000 -1.000000
vn 0.000000 -0.000000 -1.000000
vn 0.000000 -0.000000 -1.000000
vn 1.000000 0.000000 0.000000
vn 1.000000 0.000000 0.000000
vn 1.000000 0.000000 0.000000
vn 1.000000 0.000000 0.000000
vn -1.000000 0.000000 0.000000
vn -1.000000 0.000000 0.000000
vn -1.000000 0.000000 0.000000
vn -1.000000 0.000000 0.000000
vn 0.000000 1.000000 0.000000
vn 0.000000 1.000000 0.000000
vn 0.000000 1.000000 0.000000
vn 0.000000 1.000000 0.000000
vn 0.000000 -1.000000 0.000000
vn 0.000000 -1.000000 0.000000
vn 0.000000 -1.000000 0.000000
vn 0.000000 -1.000000 0.000000
vn 0.000000 0.000000 1.000000
vn 0.000000 0.000000 1.000000
vn 0.000000 0.000000 1.000000
vn 0.000000 0.000000 1.000000
vn 1.000000 0.000000 0.000000
vn 1.000000 0.000000 0.000000
vn 1.000000 0.000000 0.000000
vn 1.000000 0.000000 0.000000
vn -1.000000 0.000000 0.000000
vn -1.000000 0.000000 0.000000
vn -1.000000 0.000000 0.000000
vn -1.000000 0.000000 0.000000
vn 0.000000 1.000000 0.000000
vn 0.000000 1.000000 0.000000
vn 0.000000 1.000000 0.000000
vn 0.000000 1.000000 0.000000
vn 0.000000 -1.000000 0.000000
vn 0.000000 -1.000000 0.000000
vn 0.000000 -1.000000 0.000000
vn 0.000000 -1.000000 0.000000
vn 0.000000 0.000000 1.000000
vn 0.000000 0.000000 1.000000
vn 0.000000 0.000000 1.000000
vn 0.000000 0.000000 1.000000
vn 0.000000 -0.000000 -1.000000
vn 0.000000 -0.000000 -1.000000
vn 0.000000 -0.000000 -1.000000
vn 0.000000 -0.000000 -1.000000
vn 1.000000 0.000000 0.000000
vn 1.000000 0.000000 0.000000
vn 1.000000 0.000000 0.000000
vn 1.000000 0.000000 0.000000
vn -1.000000 0.000000 0.000000
vn -1.000000 0.000000 0.000000
vn -1.000000 0.000000 0.000000
vn -1.000000 0.000000 0.000000
vn 0.000000 0.258819 0.965926
vn 0.000000 0.258819 0.965926
vn 0.000000 0.258819 0.965926
vn 0.000000 0.258819 0.965926
vn 0.000000 -0.258819 -0.965926
vn 0.000000 -0.258819 -0.965926
vn 0.000000 -0.258819 -0.965926
vn 0.000000 -0.258819 -0.965926
vn 1.000000 0.000000 0.000000
vn 1.000000 0.000000 0.000000
vn 1.000000 0.000000 0.000000
vn 1.000000 0.000000 0.000000
vn -1.000000 0.000000 0.000000
vn -1.000000 0.000000 0.000000
vn -1.000000 0.000000 0.000000
vn -1.000000 0.000000 0.000000
vn 0.000000 0.965926 -0.258819
vn 0.000000 0.965926 -0.258819
vn 0.000000 0.965926 -0.258819
vn 0.000000 0.965926 -0.258819
vn 0.000000 -0.965926 0.258819
vn 0.000000 -0.965926 0.258819
vn 0.000000 -0.965926 0.258819
vn 0.000000 -0.965926 0.258819
vn 0.000000 0.258819 0.965926
vn 0.000000 0.258819 0.965926
vn 0.000000 0.258819 0.965926
vn 0.000000 0.258819 0.965926
vn 0.000000 -0.258819 -0.965926
vn 0.000000 -0.258819 -0.965926
vn 0.000000 -0.258819 -0.965926
vn 0.000000 -0.258819 -0.965926
vn 1.000000 -0.000000 -0.000000
vn 1.000000 -0.000000 -0.000000
vn 1.000000 -0.000000 -0.000000
vn 1.000000 -0.000000 -0.000000
vn 1.000000 -0.000000 -0.000000
vn 1.000000 -0.000000 -0.000000
vn 1.000000 -0.000000 -0.000000
vn 1.000000 -0.000000 -0.000000
vn 1.000000 -0.000000 -0.000000
vn 1.000000 -0.000000 -0.000000
vn 1.000000 -0.000000 -0.000000
vn 1.000000 -0.000000 -0.000000
vn 1.000000 -0.000000 -0.000000
vn 1.000000 -0.000000 -0.000000
vn 1.000000 -0.000000 -0.000000
vn 1.000000 -0.000000 -0.000000
vn 1.000000 -0.000000 -0.000000
vn 1.000000 -0.000000 -0.000000
vn 1.000000 -0.000000 -0.000000
vn 1.000000 -0.000000 -0.000000
vn 1.000000 -0.000000 -0.000000
vn 1.000000 -0.000000 -0.000000
vn 1.000000 -0.000000 -0.000000
vn 1.000000 -0.000000 -0.000000
vn 1.000000 -0.000000 -0.000000
vn 1.000000 -0.000000 -0.000000
vn 1.000000 -0.000000 -0.000000
vn 1.000000 -0.000000 -0.000000
vn 1.000000 -0.000000 -0.000000
vn 1.000000 -0.000000 -0.000000
vn 1.000000 -0.000000 -0.000000
vn 1.000000 -0.000000 -0.000000
vn -1.000000 -0.000000 -0.000000
vn -1.000000 -0.000000 -0.000000
vn -1.000000 -0.000000 -0.000000
vn -1.000000 -0.000000 -0.000000
vn -1.000000 -0.000000 -0.000000
vn -1.000000 -0.000000 -0.000000
vn -1.000000 -0.000000 -0.000000
vn -1.000000 -0.000000 -0.000000
vn -1.000000 -0.000000 -0.000000
vn -1.000000 -0.000000 -0.000000
vn -1.000000 -0.000000 -0.000000
vn -1.000000 -0.000000 -0.000000
vn -1.000000 -0.000000 -0.000000
vn -1.000000 -0.000000 -0.000000
vn -1.000000 -0.000000 -0.000000
vn -1.000000 -0.000000 -0.000000
vn -1.000000 -0.000000 -0.000000
vn -1.000000 -0.000000 -0.000000
vn -1.000000 -0.000000 -0.000000
vn -1.000000 -0.000000 -0.000000
vn -1.000000 -0.000000 -0.000000
vn -1.000000 -0.000000 -0.000000
vn -1.000000 -0.000000 -0.000000
vn -1.000000 -0.000000 -0.000000
vn -1.000000 -0.000000 -0.000000
vn -1.000000 -0.000000 -0.000000
vn -1.000000 -0.000000 -0.000000
vn -1.000000 -0.000000 -0.000000
vn -1.000000 -0.000000 -0.000000
vn -1.000000 -0.000000 -0.000000
vn -1.000000 -0.000000 -0.000000
vn -1.000000 -0.000000 -0.000000
vn -0.000000 1.000000 -0.000000
vn -0.000000 1.000000 -0.000000
vn -0.000000 1.000000 -0.000000
vn -0.000000 1.000000 -0.000000
vn -0.000000 -1.000000 -0.000000
vn -0.000000 -1.000000 -0.000000
vn -0.000000 -1.000000 -0.000000
vn -0.000000 -1.000000 -0.000000
vn -0.000000 1.000000 -0.000000
vn -0.000000 1.000000 -0.000000
vn -0.000000 1.000000 -0.000000
vn -0.000000 1.000000 -0.000000
vn -0.000000 1.000000 -0.000000
vn -0.000000 1.000000 -0.000000
vn -0.000000 1.000000 -0.000000
vn -0.000000 1.000000 -0.000000
vn -0.000000 1.000000 -0.000000
vn -0.000000 1.000000 -0.000000
vn -0.000000 1.000000 -0.000000
vn -0.000000 1.000000 -0.000000
vn -0.000000 1.000000 -0.000000
vn -0.000000 1.000000 -0.000000
vn -0.000000 1.000000 -0.000000
vn -0.000000 1.000000 -0.000000
vn -0.000000 1.000000 -0.000000
vn -0.000000 1.000000 -0.000000
vn -0.000000 1.000000 -0.000000
vn -0.000000 1.000000 -0.000000
vn -0.000000 1.000000 -0.000000
vn -0.000000 1.000000 -0.000000
vn -0.000000 1.000000 -0.000000
vn -0.000000 1.000000 -0.000000
vn -0.000000 1.000000 -0.000000
vn -0.000000 1.000000 -0.000000
vn -0.000000 1.000000 -0.000000
vn -0.000000 1.000000 -0.000000
vn -0.000000 1.000000 -0.000000
vn -0.000000 1.000000 -0.000000
vn -0.000000 1.000000 -0.000000
vn -0.000000 1.000000 -0.000000
vn -0.000000 1.000000 -0.000000
vn -0.000000 1.000000 -0.000000
vn -0.000000 1.000000 -0.000000
vn -0.000000 1.000000 -0.000000
vn -0.000000 1.000000 -0.000000
vn -0.000000 1.000000 -0.000000
vn -0.000000 1.000000 -0.000000
vn -0.000000 1.000000 -0.000000
vn -0.000000 -1.000000 -0.000000
vn -0.000000 -1.000000 -0.000000
vn -0.000000 -1.000000 -0.000000
vn -0.000000 -1.000000 -0.000000
vn -0.000000 -1.000000 -0.000000
vn -0.000000 -1.000000 -0.000000
vn -0.000000 -1.000000 -0.000000
vn -0.000000 -1.000000 -0.000000
vn -0.000000 -1.000000 -0.000000
vn -0.000000 -1.000000 -0.000000
vn -0.000000 -1.000000 -0.000000
vn -0.000000 -1.000000 -0.000000
vn -0.000000 -1.000000 -0.000000
vn -0.000000 -1.000000 -0.000000
vn -0.000000 -1.000000 -0.000000
vn -0.000000 -1.000000 -0.000000
vn -0.000000 -1.000000 -0.000000
vn -0.000000 -1.000000 -0.000000
vn -0.000000 -1.000000 -0.000000
vn -0.000000 -1.000000 -0.000000
vn -0.000000 -1.000000 -0.000000
vn -0.000000 -1.000000 -0.000000
vn -0.000000 -1.000000 -0.000000
vn -0.000000 -1.000000 -0.000000
vn -0.000000 -0.000000 1.000000
vn -0.000000 -0.000000 1.000000
vn -0.000000 -0.000000 1.000000
vn -0.000000 -0.000000 1.000000
vn -0.000000 -0.000000 1.000000
vn -0.000000 -0.000000 1.000000
vn -0.000000 -0.000000 1.000000
vn -0.000000 -0.000000 1.000000
vn -0.000000 -0.000000 1.000000
vn -0.000000 -0.000000 1.000000
vn -0.000000 -0.000000 1.000000
vn -0.000000 -0.000000 1.000000
vn -0.000000 -0.000000 -1.000000
vn -0.000000 -0.000000 -1.000000
vn -0.000000 -0.000000 -1.000000
vn -0.000000 -0.000000 -1.000000
vn -0.000000 -0.000000 -1.000000
vn -0.000000 -0.000000 -1.000000
vn -0.000000 -0.000000 -1.000000
vn -0.000000 -0.000000 -1.000000
vn -0.000000 -0.000000 -1.000000
vn -0.000000 -0.000000 -1.000000
vn -0.000000 -0.000000 -1.000000
vn -0.000000 -0.000000 -1.000000
vn -0.000000 -0.000000 -1.000000
vn -0.000000 -0.000000 -1.000000
vn -0.000000 -0.000000 -1.000000
vn -0.000000 -0.000000 -1.000000
vn -0.000000 -0.000000 -1.000000
vn -0.000000 -0.000000 -1.000000
vn -0.000000 -0.000000 -1.000000
vn -0.000000 -0.000000 -1.000000
vn -0.000000 -0.000000 -1.000000
vn -0.000000 -0.000000 -1.000000
vn -0.000000 -0.000000 -1.000000
vn -0.000000 -0.000000 -1.000000
vn -0.000000 -0.000000 1.000000
vn -0.000000 -0.000000 1.000000
vn -0.000000 -0.000000 1.000000
vn -0.000000 -0.000000 1.000000
vn -0.000000 -0.000000 -1.000000
vn -0.000000 -0.000000 -1.000000
vn -0.000000 -0.000000 -1.000000
vn -0.000000 -0.000000 -1.000000
vn -0.000000 -0.000000 -1.000000
vn -0.000000 -0.000000 -1.000000
vn -0.000000 -0.000000 -1.000000
vn -0.000000 -0.000000 -1.000000
vn -0.000000 -0.000000 1.000000
vn -0.000000 -0.000000 1.000000
vn -0.000000 -0.000000 1.000000
vn -0.000000 -0.000000 1.000000
vn -0.000000 -0.000000 1.000000
vn -0.000000 -0.000000 1.000000
vn -0.000000 -0.000000 1.000000
vn -0.000000 -0.000000 1.000000
vn -0.000000 -0.000000 -1.000000
vn -0.000000 -0.000000 -1.000000
vn -0.000000 -0.000000 -1.000000
vn -0.000000 -0.000000 -1.000000
vn -0.000000 -0.000000 -1.000000
vn -0.000000 -0.000000 -1.000000
vn -0.000000 -0.000000 -1.000000
vn -0.000000 -0.000000 -1.000000
vn 1.000000 -0.000000 -0.000000
vn 1.000000 -0.000000 -0.000000
vn 1.000000 -0.000000 -0.000000
vn 1.000000 -0.000000 -0.000000
vn 1.000000 -0.000000 -0.000000
vn 1.000000 -0.000000 -0.000000
vn 1.000000 -0.000000 -0.000000
vn 1.000000 -0.000000 -0.000000
vn -1.000000 -0.000000 -0.000000
vn -1.000000 -0.000000 -0.000000
vn -1.000000 -0.000000 -0.000000
vn -1.000000 -0.000000 -0.000000
vn -1.000000 -0.000000 -0.000000
vn -1.000000 -0.000000 -0.000000
vn -1.000000 -0.000000 -0.000000
vn -1.000000 -0.000000 -0.000000
vn -0.000000 0.965926 -0.258819
vn -0.000000 0.965926 -0.258819
vn -0.000000 0.965926 -0.258819
vn -0.000000 0.965926 -0.258819
vn -0.000000 -0.965926 0.258819
vn -0.000000 -0.965926 0.258819
vn -0.000000 -0.965926 0.258819
vn -0.000000 -0.965926 0.258819
vn -0.000000 -0.965926 0.258819
vn -0.000000 -0.965926 0.258819
vn -0.000000 -0.965926 0.258819
vn -0.000000 -0.965926 0.258819
vn -0.000000 -0.965926 0.258819
vn -0.000000 -0.965926 0.258819
vn -0.000000 -0.965926 0.258819
vn -0.000000 -0.965926 0.258819
vn -0.000000 -0.965926 0.258819
vn -0.000000 -0.965926 0.258819
vn -0.000000 -0.965926 0.258819
vn -0.000000 -0.965926 0.258819
vn -0.000000 0.258819 0.965926
vn -0.000000 0.258819 0.965926
vn -0.000000 0.258819 0.965926
vn -0.000000 0.258819 0.965926
vn -0.000000 0.258819 0.965926
vn -0.000000 0.258819 0.965926
vn -0.000000 0.258819 0.965926
vn -0.000000 0.258819 0.965926
vn -0.000000 -0.258819 -0.965926
vn -0.000000 -0.258819 -0.965926
vn -0.000000 -0.258819 -0.965926
vn -0.000000 -0.258819 -0.965926
vn -0.000000 -0.258819 -0.965926
vn -0.000000 -0.258819 -0.965926
vn -0.000000 -0.258819 -0.965926
vn -0.000000 -0.258819 -0.965926
usemtl PistolMat
s off
f 1/1/1 3/3/3 4/4/4
f 1/1/1 4/4/4 2/2/2
f 5/5/5 7/7/7 8/8/8
f 5/5/5 8/8/8 6/6/6
f 9/9/9 11/11/11 12/12/12
f 9/9/9 12/12/12 10/10/10
f 13/13/13 15/15/15 16/16/16
f 13/13/13 16/16/16 14/14/14
f 17/17/17 19/19/19 20/20/20
f 17/17/17 20/20/20 18/18/18
f 21/21/21 23/23/23 24/24/24
f 21/21/21 24/24/24 22/22/22
f 25/25/25 27/27/27 28/28/28
f 25/25/25 28/28/28 26/26/26
f 29/29/29 31/31/31 32/32/32
f 29/29/29 32/32/32 30/30/30
f 33/33/33 35/35/35 36/36/36
f 33/33/33 36/36/36 34/34/34
f 37/37/37 39/39/39 40/40/40
f 37/37/37 40/40/40 38/38/38
f 41/41/41 43/43/43 44/44/44
f 41/41/41 44/44/44 42/42/42
f 45/45/45 47/47/47 48/48/48
f 45/45/45 48/48/48 46/46/46
f 49/49/49 51/51/51 52/52/52
f 49/49/49 52/52/52 50/50/50
f 53/53/53 55/55/55 56/56/56
f 53/53/53 56/56/56 54/54/54
f 57/57/57 59/59/59 60/60/60
f 57/57/57 60/60/60 58/58/58
f 61/61/61 63/63/63 64/64/64
f 61/61/61 64/64/64 62/62/62
f 65/65/65 67/67/67 68/68/68
f 65/65/65 68/68/68 66/66/66
f 69/69/69 71/71/71 72/72/72
f 69/69/69 72/72/72 70/70/70
f 73/73/73 75/75/75 76/76/76
f 73/73/73 76/76/76 74/74/74
f 77/77/77 79/79/79 80/80/80
f 77/77/77 80/80/80 78/78/78
f 81/81/81 83/83/83 84/84/84
f 81/81/81 84/84/84 82/82/82
f 85/85/85 87/87/87 88/88/88
f 85/85/85 88/88/88 86/86/86
f 89/89/89 91/91/91 92/92/92
f 89/89/89 92/92/92 90/90/90
f 93/93/93 95/95/95 96/96/96
f 93/93/93 96/96/96 94/94/94
f 97/97/97 99/99/99 100/100/100
f 97/97/97 100/100/100 98/98/98
f 101/101/101 103/103/103 104/104/104
f 101/101/101 104/104/104 102/102/102
f 105/105/105 107/107/107 108/108/108
f 105/105/105 108/108/108 106/106/106
f 109/109/109 111/111/111 112/112/112
f 109/109/109 112/112/112 110/110/110
f 113/113/113 115/115/115 116/116/116
f 113/113/113 116/116/116 114/114/114
f 117/117/117 119/119/119 120/120/120
f 117/117/117 120/120/120 118/118/118
f 121/121/121 123/123/123 124/124/124
f 121/121/121 124/124/124 122/122/122
f 125/125/125 127/127/127 128/128/128
f 125/125/125 128/128/128 126/126/126
f 129/129/129 131/131/131 132/132/132
f 129/129/129 132/132/132 130/130/130
f 133/133/133 135/135/135 136/136/136
f 133/133/133 136/136/136 134/134/134
f 137/137/137 139/139/139 140/140/140
f 137/137/137 140/140/140 138/138/138
f 141/141/141 143/143/143 144/144/144
f 141/141/141 144/144/144 142/142/142
f 145/145/145 147/147/147 148/148/148
f 145/145/145 148/148/148 146/146/146
f 149/149/149 151/151/151 152/152/152
f 149/149/149 152/152/152 150/150/150
f 153/153/153 155/155/155 156/156/156
f 153/153/153 156/156/156 154/154/154
f 157/157/157 159/159/159 160/160/160
f 157/157/157 160/160/160 158/158/158
f 161/161/161 163/163/163 164/164/164
f 161/161/161 164/164/164 162/162/162
f 165/165/165 167/167/167 168/168/168
f 165/165/165 168/168/168 166/166/166
f 169/169/169 171/171/171 172/172/172
f 169/169/169 172/172/172 170/170/170
f 173/173/173 175/175/175 176/176/176
f 173/173/173 176/176/176 174/174/174
f 177/177/177 179/179/179 180/180/180
f 177/177/177 180/180/180 178/178/178
f 181/181/181 183/183/183 184/184/184
f 181/181/181 184/184/184 182/182/182
f 185/185/185 186/186/186 187/187/187
f 185/185/185 187/187/187 188/188/188
f 189/189/189 190/190/190 191/191/191
f 189/189/189 191/191/191 192/192/192
f 193/193/193 194/194/194 195/195/195
f 193/193/193 195/195/195 196/196/196
f 197/197/197 198/198/198 199/199/199
f 197/197/197 199/199/199 200/200/200
f 201/201/201 202/202/202 203/203/203
f 201/201/201 203/203/203 204/204/204
f 205/205/205 206/206/206 207/207/207
f 205/205/205 207/207/207 208/208/208
f 209/209/209 210/210/210 211/211/211
f 209/209/209 211/211/211 212/212/212
f 213/213/213 214/214/214 215/215/215
f 213/213/213 215/215/215 216/216/216
f 217/217/217 218/218/218 219/219/219
f 217/217/217 219/219/219 220/220/220
f 221/221/221 222/222/222 223/223/223
f 221/221/221 223/223/223 224/224/224
f 225/225/225 226/226/226 227/227/227
f 225/225/225 227/227/227 228/228/228
f 229/229/229 230/230/230 231/231/231
f 229/229/229 231/231/231 232/232/232
f 233/233/233 234/234/234 235/235/235
f 233/233/233 235/235/235 236/236/236
f 237/237/237 238/238/238 239/239/239
f 237/237/237 239/239/239 240/240/240
f 241/241/241 242/242/242 243/243/243
f 241/241/241 243/243/243 244/244/244
f 245/245/245 246/246/246 247/247/247
f 245/245/245 247/247/247 248/248/248
f 249/249/249 250/250/250 251/251/251
f 249/249/249 251/251/251 252/252/252
f 253/253/253 254/254/254 255/255/255
f 253/253/253 255/255/255 256/256/256
f 257/257/257 258/258/258 259/259/259
f 257/257/257 259/259/259 260/260/260
f 261/261/261 262/262/262 263/263/263
f 261/261/261 263/263/263 264/264/264
f 265/265/265 266/266/266 267/267/267
f 265/265/265 267/267/267 268/268/268
f 269/269/269 270/270/270 271/271/271
f 269/269/269 271/271/271 272/272/272
f 273/273/273 274/274/274 275/275/275
f 273/273/273 275/275/275 276/276/276
f 277/277/277 278/278/278 279/279/279
f 277/277/277 279/279/279 280/280/280
f 281/281/281 282/282/282 283/283/283
f 281/281/281 283/283/283 284/284/284
f 285/285/285 286/286/286 287/287/287
f 285/285/285 287/287/287 288/288/288
f 289/289/289 290/290/290 291/291/291
f 289/289/289 291/291/291 292/292/292
f 293/293/293 294/294/294 295/295/295
f 293/293/293 295/295/295 296/296/296
f 297/297/297 298/298/298 299/299/299
f 297/297/297 299/299/299 300/300/300
f 301/301/301 302/302/302 303/303/303
f 301/301/301 303/303/303 304/304/304
f 305/305/305 306/306/306 307/307/307
f 305/305/305 307/307/307 308/308/308
f 309/309/309 310/310/310 311/311/311
f 309/309/309 311/311/311 312/312/312
f 313/313/313 314/314/314 315/315/315
f 313/313/313 315/315/315 316/316/316
f 317/317/317 318/318/318 319/319/319
f 317/317/317 319/319/319 320/320/320
f 321/321/321 322/322/322 323/323/323
f 321/321/321 323/323/323 324/324/324
f 325/325/325 326/326/326 327/327/327
f 325/325/325 327/327/327 328/328/328
f 329/329/329 330/330/330 331/331/331
f 329/329/329 331/331/331 332/332/332
f 333/333/333 334/334/334 335/335/335
f 333/333/333 335/335/335 336/336/336
f 337/337/337 338/338/338 339/339/339
f 337/337/337 339/339/339 340/340/340
f 341/341/341 342/342/342 343/343/343
f 341/341/341 343/343/343 344/344/344
f 345/345/345 346/346/346 347/347/347
f 345/345/345 347/347/347 348/348/348
f 349/349/349 350/350/350 351/351/351
f 349/349/349 351/351/351 352/352/352
f 353/353/353 354/354/354 355/355/355
f 353/353/353 355/355/355 356/356/356
f 357/357/357 358/358/358 359/359/359
f 357/357/357 359/359/359 360/360/360
f 361/361/361 362/362/362 363/363/363
f 361/361/361 363/363/363 364/364/364
f 365/365/365 366/366/366 367/367/367
f 365/365/365 367/367/367 368/368/368
f 369/369/369 370/370/370 371/371/371
f 369/369/369 371/371/371 372/372/372
f 373/373/373 374/374/374 375/375/375
f 373/373/373 375/375/375 376/376/376
f 377/377/377 378/378/378 379/379/379
f 377/377/377 379/379/379 380/380/380
f 381/381/381 382/382/382 383/383/383
f 381/381/381 383/383/383 384/384/384
f 385/385/385 386/386/386 387/387/387
f 385/385/385 387/387/387 388/388/388
f 389/389/389 390/390/390 391/391/391
f 389/389/389 391/391/391 392/392/392
f 393/393/393 394/394/394 395/395/395
f 393/393/393 395/395/395 396/396/396
f 397/397/397 398/398/398 399/399/399
f 397/397/397 399/399/399 400/400/400
f 401/401/401 402/402/402 403/403/403
f 401/401/401 403/403/403 404/404/404
f 405/405/405 406/406/406 407/407/407
f 405/405/405 407/407/407 408/408/408
f 409/409/409 410/410/410 411/411/411
f 409/409/409 411/411/411 412/412/412
f 413/413/413 414/414/414 415/415/415
f 413/413/413 415/415/415 416/416/416
f 417/417/417 418/418/418 419/419/419
f 417/417/417 419/419/419 420/420/420
f 421/421/421 422/422/422 423/423/423
f 421/421/421 423/423/423 424/424/424
f 425/425/425 426/426/426 427/427/427
f 425/425/425 427/427/427 428/428/428
f 429/429/429 430/430/430 431/431/431
f 429/429/429 431/431/431 432/432/432
f 433/433/433 434/434/434 435/435/435
f 433/433/433 435/435/435 436/436/436
o Slide
g Slide
v 0.218750 0.781250 0.375000
v 0.218750 0.781250 -1.312500
v 0.218750 0.406250 0.375000
v 0.218750 0.406250 -1.312500
v -0.218750 0.781250 -1.312500
v -0.218750 0.781250 0.375000
v -0.218750 0.406250 -1.312500
v -0.218750 0.406250 0.375000
v -0.218750 0.781250 -1.312500
v 0.218750 0.781250 -1.312500
v -0.218750 0.781250 0.375000
v 0.218750 0.781250 0.375000
v -0.218750 0.406250 0.375000
v 0.218750 0.406250 0.375000
v -0.218750 0.406250 -1.312500
v 0.218750 0.406250 -1.312500
v -0.218750 0.781250 0.375000
v 0.218750 0.781250 0.375000
v -0.218750 0.406250 0.375000
v 0.218750 0.406250 0.375000
v 0.218750 0.781250 -1.312500
v -0.218750 0.781250 -1.312500
v 0.218750 0.406250 -1.312500
v -0.218750 0.406250 -1.312500
v 0.093750 0.843750 0.187500
v 0.093750 0.843750 -1.187500
v 0.093750 0.781250 0.187500
v 0.093750 0.781250 -1.187500
v -0.093750 0.843750 -1.187500
v -0.093750 0.843750 0.187500
v -0.093750 0.781250 -1.187500
v -0.093750 0.781250 0.187500
v -0.093750 0.843750 -1.187500
v 0.093750 0.843750 -1.187500
v -0.093750 0.843750 0.187500
v 0.093750 0.843750 0.187500
v 0.093750 0.843750 -1.187500
v -0.093750 0.843750 -1.187500
v 0.093750 0.781250 -1.187500
v -0.093750 0.781250 -1.187500
v 0.156250 0.906250 0.312500
v 0.156250 0.906250 0.187500
v 0.156250 0.781250 0.312500
v 0.156250 0.781250 0.187500
v -0.156250 0.906250 0.187500
v -0.156250 0.906250 0.312500
v -0.156250 0.781250 0.187500
v -0.156250 0.781250 0.312500
v -0.156250 0.906250 0.187500
v 0.156250 0.906250 0.187500
v -0.156250 0.906250 0.312500
v 0.156250 0.906250 0.312500
v -0.156250 0.906250 0.312500
v 0.156250 0.906250 0.312500
v -0.156250 0.781250 0.312500
v 0.156250 0.781250 0.312500
v 0.156250 0.906250 0.187500
v -0.156250 0.906250 0.187500
v 0.156250 0.781250 0.187500
v -0.156250 0.781250 0.187500
v 0.093750 0.968750 -1.000000
v 0.093750 0.968750 -1.125000
v 0.093750 0.843750 -1.000000
v 0.093750 0.843750 -1.125000
v -0.093750 0.968750 -1.125000
v -0.093750 0.968750 -1.000000
v -0.093750 0.843750 -1.125000
v -0.093750 0.843750 -1.000000
v -0.093750 0.968750 -1.125000
v 0.093750 0.968750 -1.125000
v -0.093750 0.968750 -1.000000
v 0.093750 0.968750 -1.000000
v -0.093750 0.968750 -1.000000
v 0.093750 0.968750 -1.000000
v -0.093750 0.843750 -1.000000
v 0.093750 0.843750 -1.000000
v 0.093750 0.968750 -1.125000
v -0.093750 0.968750 -1.125000
v 0.093750 0.843750 -1.125000
v -0.093750 0.843750 -1.125000
v -0.250000 0.375000 -1.343750
v -0.250000 0.812500 -1.343750
v -0.250000 0.812500 0.406250
v -0.250000 0.375000 0.406250
v -0.187500 0.812500 0.156250
v -0.187500 0.937500 0.156250
v -0.187500 0.937500 0.343750
v -0.187500 0.812500 0.343750
v -0.125000 0.812500 -1.218750
v -0.125000 0.875000 -1.218750
v -0.125000 0.875000 0.156250
v -0.125000 0.812500 0.156250
v -0.125000 0.875000 -1.156250
v -0.125000 1.000000 -1.156250
v -0.125000 1.000000 -0.968750
v -0.125000 0.875000 -0.968750
v 0.125000 0.812500 0.156250
v 0.125000 0.875000 0.156250
v 0.125000 0.875000 -1.218750
v 0.125000 0.812500 -1.218750
v 0.125000 0.875000 -0.968750
v 0.125000 1.000000 -0.968750
v 0.125000 1.000000 -1.156250
v 0.125000 0.875000 -1.156250
v 0.187500 0.812500 0.343750
v 0.187500 0.937500 0.343750
v 0.187500 0.937500 0.156250
v 0.187500 0.812500 0.156250
v 0.250000 0.375000 0.406250
v 0.250000 0.812500 0.406250
v 0.250000 0.812500 -1.343750
v 0.250000 0.375000 -1.343750
v -0.250000 0.375000 0.406250
v 0.250000 0.375000 0.406250
v 0.250000 0.375000 -1.343750
v -0.250000 0.375000 -1.343750
v -0.250000 0.812500 -1.343750
v -0.187500 0.812500 -1.343750
v -0.187500 0.812500 0.406250
v -0.250000 0.812500 0.406250
v -0.187500 0.812500 -1.343750
v -0.125000 0.812500 -1.343750
v -0.125000 0.812500 0.156250
v -0.187500 0.812500 0.156250
v -0.187500 0.812500 0.343750
v 0.250000 0.812500 0.343750
v 0.250000 0.812500 0.406250
v -0.187500 0.812500 0.406250
v -0.125000 0.812500 -1.343750
v 0.250000 0.812500 -1.343750
v 0.250000 0.812500 -1.218750
v -0.125000 0.812500 -1.218750
v 0.125000 0.812500 -1.218750
v 0.250000 0.812500 -1.218750
v 0.250000 0.812500 0.156250
v 0.125000 0.812500 0.156250
v 0.187500 0.812500 0.156250
v 0.250000 0.812500 0.156250
v 0.250000 0.812500 0.343750
v 0.187500 0.812500 0.343750
v -0.125000 0.875000 -1.218750
v 0.125000 0.875000 -1.218750
v 0.125000 0.875000 -1.156250
v -0.125000 0.875000 -1.156250
v -0.125000 0.875000 -0.968750
v 0.125000 0.875000 -0.968750
v 0.125000 0.875000 0.156250
v -0.125000 0.875000 0.156250
v -0.187500 0.937500 0.156250
v 0.187500 0.937500 0.156250
v 0.187500 0.937500 0.343750
v -0.187500 0.937500 0.343750
v -0.125000 1.000000 -1.156250
v 0.125000 1.000000 -1.156250
v 0.125000 1.000000 -0.968750
v -0.125000 1.000000 -0.968750
v -0.250000 0.375000 -1.343750
v 0.250000 0.375000 -1.343750
v 0.250000 0.812500 -1.343750
v -0.250000 0.812500 -1.343750
v -0.125000 0.812500 -1.218750
v 0.125000 0.812500 -1.218750
v 0.125000 0.875000 -1.218750
v -0.125000 0.875000 -1.218750
v -0.125000 0.875000 -1.156250
v 0.125000 0.875000 -1.156250
v 0.125000 1.000000 -1.156250
v -0.125000 1.000000 -1.156250
v -0.125000 1.000000 -0.968750
v 0.125000 1.000000 -0.968750
v 0.125000 0.875000 -0.968750
v -0.125000 0.875000 -0.968750
v -0.187500 0.812500 0.156250
v -0.125000 0.812500 0.156250
v -0.125000 0.937500 0.156250
v -0.187500 0.937500 0.156250
v -0.125000 0.875000 0.156250
v 0.187500 0.875000 0.156250
v 0.187500 0.937500 0.156250
v -0.125000 0.937500 0.156250
v 0.125000 0.812500 0.156250
v 0.187500 0.812500 0.156250
v 0.187500 0.875000 0.156250
v 0.125000 0.875000 0.156250
v -0.187500 0.937500 0.343750
v 0.187500 0.937500 0.343750
v 0.187500 0.812500 0.343750
v -0.187500 0.812500 0.343750
v -0.250000 0.812500 0.406250
v 0.250000 0.812500 0.406250
v 0.250000 0.375000 0.406250
v -0.250000 0.375000 0.406250
vt 0.007812 0.679688
vt 0.218750 0.679688
vt 0.007812 0.632812
vt 0.218750 0.632812
vt 0.234375 0.679688
vt 0.445312 0.679688
vt 0.234375 0.632812
vt 0.445312 0.632812
vt 0.007812 0.992188
vt 0.062500 0.992188
vt 0.007812 0.781250
vt 0.062500 0.781250
vt 0.078125 0.992188
vt 0.132812 0.992188
vt 0.078125 0.781250
vt 0.132812 0.781250
vt 0.632812 0.679688
vt 0.687500 0.679688
vt 0.632812 0.632812
vt 0.687500 0.632812
vt 0.703125 0.679688
vt 0.757812 0.679688
vt 0.703125 0.632812
vt 0.757812 0.632812
vt 0.007812 0.492188
vt 0.179688 0.492188
vt 0.007812 0.484375
vt 0.179688 0.484375
vt 0.195312 0.492188
vt 0.367188 0.492188
vt 0.195312 0.484375
vt 0.367188 0.484375
vt 0.148438 0.992188
vt 0.171875 0.992188
vt 0.148438 0.820312
vt 0.171875 0.820312
vt 0.382812 0.492188
vt 0.406250 0.492188
vt 0.382812 0.484375
vt 0.406250 0.484375
vt 0.703125 0.523438
vt 0.718750 0.523438
vt 0.703125 0.507812
vt 0.718750 0.507812
vt 0.734375 0.523438
vt 0.750000 0.523438
vt 0.734375 0.507812
vt 0.750000 0.507812
vt 0.070312 0.523438
vt 0.109375 0.523438
vt 0.070312 0.507812
vt 0.109375 0.507812
vt 0.125000 0.523438
vt 0.164062 0.523438
vt 0.125000 0.507812
vt 0.164062 0.507812
vt 0.179688 0.523438
vt 0.218750 0.523438
vt 0.179688 0.507812
vt 0.218750 0.507812
vt 0.765625 0.523438
vt 0.781250 0.523438
vt 0.765625 0.507812
vt 0.781250 0.507812
vt 0.796875 0.523438
vt 0.812500 0.523438
vt 0.796875 0.507812
vt 0.812500 0.507812
vt 0.507812 0.523438
vt 0.531250 0.523438
vt 0.507812 0.507812
vt 0.531250 0.507812
vt 0.546875 0.523438
vt 0.570312 0.523438
vt 0.546875 0.507812
vt 0.570312 0.507812
vt 0.585938 0.523438
vt 0.609375 0.523438
vt 0.585938 0.507812
vt 0.609375 0.507812
vt 0.562500 0.734375
vt 0.562500 0.734375
vt 0.562500 0.734375
vt 0.562500 0.734375
vt 0.562500 0.734375
vt 0.562500 0.734375
vt 0.562500 0.734375
vt 0.562500 0.734375
vt 0.562500 0.734375
vt 0.562500 0.734375
vt 0.562500 0.734375
vt 0.562500 0.734375
vt 0.562500 0.734375
vt 0.562500 0.734375
vt 0.562500 0.734375
vt 0.562500 0.734375
vt 0.562500 0.734375
vt 0.562500 0.734375
vt 0.562500 0.734375
vt 0.562500 0.734375
vt 0.562500 0.734375
vt 0.562500 0.734375
vt 0.562500 0.734375
vt 0.562500 0.734375
vt 0.562500 0.734375
vt 0.562500 0.734375
vt 0.562500 0.734375
vt 0.562500 0.734375
vt 0.562500 0.734375
vt 0.562500 0.734375
vt 0.562500 0.734375
vt 0.562500 0.734375
vt 0.562500 0.734375
vt 0.562500 0.734375
vt 0.562500 0.734375
vt 0.562500 0.734375
vt 0.562500 0.734375
vt 0.562500 0.734375
vt 0.562500 0.734375
vt 0.562500 0.734375
vt 0.562500 0.734375
vt 0.562500 0.734375
vt 0.562500 0.734375
vt 0.562500 0.734375
vt 0.562500 0.734375
vt 0.562500 0.734375
vt 0.562500 0.734375
vt 0.562500 0.734375
vt 0.562500 0.734375
vt 0.562500 0.734375
vt 0.562500 0.734375
vt 0.562500 0.734375
vt 0.562500 0.734375
vt 0.562500 0.734375
vt 0.562500 0.734375
vt 0.562500 0.734375
vt 0.562500 0.734375
vt 0.562500 0.734375
vt 0.562500 0.734375
vt 0.562500 0.734375
vt 0.562500 0.734375
vt 0.562500 0.734375
vt 0.562500 0.734375
vt 0.562500 0.734375
vt 0.562500 0.734375
vt 0.562500 0.734375
vt 0.562500 0.734375
vt 0.562500 0.734375
vt 0.562500 0.734375
vt 0.562500 0.734375
vt 0.562500 0.734375
vt 0.562500 0.734375
vt 0.562500 0.734375
vt 0.562500 0.734375
vt 0.562500 0.734375
vt 0.562500 0.734375
vt 0.562500 0.734375
vt 0.562500 0.734375
vt 0.562500 0.734375
vt 0.562500 0.734375
vt 0.562500 0.734375
vt 0.562500 0.734375
vt 0.562500 0.734375
vt 0.562500 0.734375
vt 0.562500 0.734375
vt 0.562500 0.734375
vt 0.562500 0.734375
vt 0.562500 0.734375
vt 0.562500 0.734375
vt 0.562500 0.734375
vt 0.562500 0.734375
vt 0.562500 0.734375
vt 0.562500 0.734375
vt 0.562500 0.734375
vt 0.562500 0.734375
vt 0.562500 0.734375
vt 0.562500 0.734375
vt 0.562500 0.734375
vt 0.562500 0.734375
vt 0.562500 0.734375
vt 0.562500 0.734375
vt 0.562500 0.734375
vt 0.562500 0.734375
vt 0.562500 0.734375
vt 0.562500 0.734375
vt 0.562500 0.734375
vt 0.562500 0.734375
vt 0.562500 0.734375
vt 0.562500 0.734375
vt 0.562500 0.734375
vt 0.562500 0.734375
vt 0.562500 0.734375
vn 1.000000 0.000000 0.000000
vn 1.000000 0.000000 0.000000
vn 1.000000 0.000000 0.000000
vn 1.000000 0.000000 0.000000
vn -1.000000 0.000000 0.000000
vn -1.000000 0.000000 0.000000
vn -1.000000 0.000000 0.000000
vn -1.000000 0.000000 0.000000
vn 0.000000 1.000000 0.000000
vn 0.000000 1.000000 0.000000
vn 0.000000 1.000000 0.000000
vn 0.000000 1.000000 0.000000
vn 0.000000 -1.000000 0.000000
vn 0.000000 -1.000000 0.000000
vn 0.000000 -1.000000 0.000000
vn 0.000000 -1.000000 0.000000
vn 0.000000 0.000000 1.000000
vn 0.000000 0.000000 1.000000
vn 0.000000 0.000000 1.000000
vn 0.000000 0.000000 1.000000
vn 0.000000 -0.000000 -1.000000
vn 0.000000 -0.000000 -1.000000
vn 0.000000 -0.000000 -1.000000
vn 0.000000 -0.000000 -1.000000
vn 1.000000 0.000000 0.000000
vn 1.000000 0.000000 0.000000
vn 1.000000 0.000000 0.000000
vn 1.000000 0.000000 0.000000
vn -1.000000 0.000000 0.000000
vn -1.000000 0.000000 0.000000
vn -1.000000 0.000000 0.000000
vn -1.000000 0.000000 0.000000
vn 0.000000 1.000000 0.000000
vn 0.000000 1.000000 0.000000
vn 0.000000 1.000000 0.000000
vn 0.000000 1.000000 0.000000
vn 0.000000 -0.000000 -1.000000
vn 0.000000 -0.000000 -1.000000
vn 0.000000 -0.000000 -1.000000
vn 0.000000 -0.000000 -1.000000
vn 1.000000 0.000000 0.000000
vn 1.000000 0.000000 0.000000
vn 1.000000 0.000000 0.000000
vn 1.000000 0.000000 0.000000
vn -1.000000 0.000000 0.000000
vn -1.000000 0.000000 0.000000
vn -1.000000 0.000000 0.000000
vn -1.000000 0.000000 0.000000
vn 0.000000 1.000000 0.000000
vn 0.000000 1.000000 0.000000
vn 0.000000 1.000000 0.000000
vn 0.000000 1.000000 0.000000
vn 0.000000 0.000000 1.000000
vn 0.000000 0.000000 1.000000
vn 0.000000 0.000000 1.000000
vn 0.000000 0.000000 1.000000
vn 0.000000 -0.000000 -1.000000
vn 0.000000 -0.000000 -1.000000
vn 0.000000 -0.000000 -1.000000
vn 0.000000 -0.000000 -1.000000
vn 1.000000 0.000000 0.000000
vn 1.000000 0.000000 0.000000
vn 1.000000 0.000000 0.000000
vn 1.000000 0.000000 0.000000
vn -1.000000 0.000000 0.000000
vn -1.000000 0.000000 0.000000
vn -1.000000 0.000000 0.000000
vn -1.000000 0.000000 0.000000
vn 0.000000 1.000000 0.000000
vn 0.000000 1.000000 0.000000
vn 0.000000 1.000000 0.000000
vn 0.000000 1.000000 0.000000
vn 0.000000 0.000000 1.000000
vn 0.000000 0.000000 1.000000
vn 0.000000 0.000000 1.000000
vn 0.000000 0.000000 1.000000
vn 0.000000 -0.000000 -1.000000
vn 0.000000 -0.000000 -1.000000
vn 0.000000 -0.000000 -1.000000
vn 0.000000 -0.000000 -1.000000
vn 1.000000 -0.000000 -0.000000
vn 1.000000 -0.000000 -0.000000
vn 1.000000 -0.000000 -0.000000
vn 1.000000 -0.000000 -0.000000
vn 1.000000 -0.000000 -0.000000
vn 1.000000 -0.000000 -0.000000
vn 1.000000 -0.000000 -0.000000
vn 1.000000 -0.000000 -0.000000
vn 1.000000 -0.000000 -0.000000
vn 1.000000 -0.000000 -0.000000
vn 1.000000 -0.000000 -0.000000
vn 1.000000 -0.000000 -0.000000
vn 1.000000 -0.000000 -0.000000
vn 1.000000 -0.000000 -0.000000
vn 1.000000 -0.000000 -0.000000
vn 1.000000 -0.000000 -0.000000
vn -1.000000 -0.000000 -0.000000
vn -1.000000 -0.000000 -0.000000
vn -1.000000 -0.000000 -0.000000
vn -1.000000 -0.000000 -0.000000
vn -1.000000 -0.000000 -0.000000
vn -1.000000 -0.000000 -0.000000
vn -1.000000 -0.000000 -0.000000
vn -1.000000 -0.000000 -0.000000
vn -1.000000 -0.000000 -0.000000
vn -1.000000 -0.000000 -0.000000
vn -1.000000 -0.000000 -0.000000
vn -1.000000 -0.000000 -0.000000
vn -1.000000 -0.000000 -0.000000
vn -1.000000 -0.000000 -0.000000
vn -1.000000 -0.000000 -0.000000
vn -1.000000 -0.000000 -0.000000
vn -0.000000 1.000000 -0.000000
vn -0.000000 1.000000 -0.000000
vn -0.000000 1.000000 -0.000000
vn -0.000000 1.000000 -0.000000
vn -0.000000 -1.000000 -0.000000
vn -0.000000 -1.000000 -0.000000
vn -0.000000 -1.000000 -0.000000
vn -0.000000 -1.000000 -0.000000
vn -0.000000 -1.000000 -0.000000
vn -0.000000 -1.000000 -0.000000
vn -0.000000 -1.000000 -0.000000
vn -0.000000 -1.000000 -0.000000
vn -0.000000 -1.000000 -0.000000
vn -0.000000 -1.000000 -0.000000
vn -0.000000 -1.000000 -0.000000
vn -0.000000 -1.000000 -0.000000
vn -0.000000 -1.000000 -0.000000
vn -0.000000 -1.000000 -0.000000
vn -0.000000 -1.000000 -0.000000
vn -0.000000 -1.000000 -0.000000
vn -0.000000 -1.000000 -0.000000
vn -0.000000 -1.000000 -0.000000
vn -0.000000 -1.000000 -0.000000
vn -0.000000 -1.000000 -0.000000
vn -0.000000 -1.000000 -0.000000
vn -0.000000 -1.000000 -0.000000
vn -0.000000 -1.000000 -0.000000
vn -0.000000 -1.000000 -0.000000
vn -0.000000 -1.000000 -0.000000
vn -0.000000 -1.000000 -0.000000
vn -0.000000 -1.000000 -0.000000
vn -0.000000 -1.000000 -0.000000
vn -0.000000 -1.000000 -0.000000
vn -0.000000 -1.000000 -0.000000
vn -0.000000 -1.000000 -0.000000
vn -0.000000 -1.000000 -0.000000
vn -0.000000 -1.000000 -0.000000
vn -0.000000 -1.000000 -0.000000
vn -0.000000 -1.000000 -0.000000
vn -0.000000 -1.000000 -0.000000
vn -0.000000 -1.000000 -0.000000
vn -0.000000 -1.000000 -0.000000
vn -0.000000 -1.000000 -0.000000
vn -0.000000 -1.000000 -0.000000
vn -0.000000 -0.000000 1.000000
vn -0.000000 -0.000000 1.000000
vn -0.000000 -0.000000 1.000000
vn -0.000000 -0.000000 1.000000
vn -0.000000 -0.000000 1.000000
vn -0.000000 -0.000000 1.000000
vn -0.000000 -0.000000 1.000000
vn -0.000000 -0.000000 1.000000
vn -0.000000 -0.000000 1.000000
vn -0.000000 -0.000000 1.000000
vn -0.000000 -0.000000 1.000000
vn -0.000000 -0.000000 1.000000
vn -0.000000 -0.000000 -1.000000
vn -0.000000 -0.000000 -1.000000
vn -0.000000 -0.000000 -1.000000
vn -0.000000 -0.000000 -1.000000
vn -0.000000 -0.000000 1.000000
vn -0.000000 -0.000000 1.000000
vn -0.000000 -0.000000 1.000000
vn -0.000000 -0.000000 1.000000
vn -0.000000 -0.000000 1.000000
vn -0.000000 -0.000000 1.000000
vn -0.000000 -0.000000 1.000000
vn -0.000000 -0.000000 1.000000
vn -0.000000 -0.000000 1.000000
vn -0.000000 -0.000000 1.000000
vn -0.000000 -0.000000 1.000000
vn -0.000000 -0.000000 1.000000
vn -0.000000 -0.000000 -1.000000
vn -0.000000 -0.000000 -1.000000
vn -0.000000 -0.000000 -1.000000
vn -0.000000 -0.000000 -1.000000
vn -0.000000 -0.000000 -1.000000
vn -0.000000 -0.000000 -1.000000
vn -0.000000 -0.000000 -1.000000
vn -0.000000 -0.000000 -1.000000
usemtl PistolMat
s off
f 437/437/437 439/439/439 440/440/440
f 437/437/437 440/440/440 438/438/438
f 441/441/441 443/443/443 444/444/444
f 441/441/441 444/444/444 442/442/442
f 445/445/445 447/447/447 448/448/448
f 445/445/445 448/448/448 446/446/446
f 449/449/449 451/451/451 452/452/452
f 449/449/449 452/452/452 450/450/450
f 453/453/453 455/455/455 456/456/456
f 453/453/453 456/456/456 454/454/454
f 457/457/457 459/459/459 460/460/460
f 457/457/457 460/460/460 458/458/458
f 461/461/461 463/463/463 464/464/464
f 461/461/461 464/464/464 462/462/462
f 465/465/465 467/467/467 468/468/468
f 465/465/465 468/468/468 466/466/466
f 469/469/469 471/471/471 472/472/472
f 469/469/469 472/472/472 470/470/470
f 473/473/473 475/475/475 476/476/476
f 473/473/473 476/476/476 474/474/474
f 477/477/477 479/479/479 480/480/480
f 477/477/477 480/480/480 478/478/478
f 481/481/481 483/483/483 484/484/484
f 481/481/481 484/484/484 482/482/482
f 485/485/485 487/487/487 488/488/488
f 485/485/485 488/488/488 486/486/486
f 489/489/489 491/491/491 492/492/492
f 489/489/489 492/492/492 490/490/490
f 493/493/493 495/495/495 496/496/496
f 493/493/493 496/496/496 494/494/494
f 497/497/497 499/499/499 500/500/500
f 497/497/497 500/500/500 498/498/498
f 501/501/501 503/503/503 504/504/504
f 501/501/501 504/504/504 502/502/502
f 505/505/505 507/507/507 508/508/508
f 505/505/505 508/508/508 506/506/506
f 509/509/509 511/511/511 512/512/512
f 509/509/509 512/512/512 510/510/510
f 513/513/513 515/515/515 516/516/516
f 513/513/513 516/516/516 514/514/514
f 517/517/517 518/518/518 519/519/519
f 517/517/517 519/519/519 520/520/520
f 521/521/521 522/522/522 523/523/523
f 521/521/521 523/523/523 524/524/524
f 525/525/525 526/526/526 527/527/527
f 525/525/525 527/527/527 528/528/528
f 529/529/529 530/530/530 531/531/531
f 529/529/529 531/531/531 532/532/532
f 533/533/533 534/534/534 535/535/535
f 533/533/533 535/535/535 536/536/536
f 537/537/537 538/538/538 539/539/539
f 537/537/537 539/539/539 540/540/540
f 541/541/541 542/542/542 543/543/543
f 541/541/541 543/543/543 544/544/544
f 545/545/545 546/546/546 547/547/547
f 545/545/545 547/547/547 548/548/548
f 549/549/549 550/550/550 551/551/551
f 549/549/549 551/551/551 552/552/552
f 553/553/553 554/554/554 555/555/555
f 553/553/553 555/555/555 556/556/556
f 557/557/557 558/558/558 559/559/559
f 557/557/557 559/559/559 560/560/560
f 561/561/561 562/562/562 563/563/563
f 561/561/561 563/563/563 564/564/564
f 565/565/565 566/566/566 567/567/567
f 565/565/565 567/567/567 568/568/568
f 569/569/569 570/570/570 571/571/571
f 569/569/569 571/571/571 572/572/572
f 573/573/573 574/574/574 575/575/575
f 573/573/573 575/575/575 576/576/576
f 577/577/577 578/578/578 579/579/579
f 577/577/577 579/579/579 580/580/580
f 581/581/581 582/582/582 583/583/583
f 581/581/581 583/583/583 584/584/584
f 585/585/585 586/586/586 587/587/587
f 585/585/585 587/587/587 588/588/588
f 589/589/589 590/590/590 591/591/591
f 589/589/589 591/591/591 592/592/592
f 593/593/593 594/594/594 595/595/595
f 593/593/593 595/595/595 596/596/596
f 597/597/597 598/598/598 599/599/599
f 597/597/597 599/599/599 600/600/600
f 601/601/601 602/602/602 603/603/603
f 601/601/601 603/603/603 604/604/604
f 605/605/605 606/606/606 607/607/607
f 605/605/605 607/607/607 608/608/608
f 609/609/609 610/610/610 611/611/611
f 609/609/609 611/611/611 612/612/612
f 613/613/613 614/614/614 615/615/615
f 613/613/613 615/615/615 616/616/616
f 617/617/617 618/618/618 619/619/619
f 617/617/617 619/619/619 620/620/620
f 621/621/621 622/622/622 623/623/623
f 621/621/621 623/623/623 624/624/624
f 625/625/625 626/626/626 627/627/627
f 625/625/625 627/627/627 628/628/628
o Magazine
g Magazine
v 0.125000 0.307681 0.156884
v 0.125000 0.194448 -0.265708
v 0.125000 -0.235652 0.302470
v 0.125000 -0.348885 -0.120122
v -0.125000 0.194448 -0.265708
v -0.125000 0.307681 0.156884
v -0.125000 -0.348885 -0.120122
v -0.125000 -0.235652 0.302470
v -0.125000 0.194448 -0.265708
v 0.125000 0.194448 -0.265708
v -0.125000 0.307681 0.156884
v 0.125000 0.307681 0.156884
v -0.125000 0.307681 0.156884
v 0.125000 0.307681 0.156884
v -0.125000 -0.235652 0.302470
v 0.125000 -0.235652 0.302470
v 0.125000 0.194448 -0.265708
v -0.125000 0.194448 -0.265708
v 0.125000 -0.348885 -0.120122
v -0.125000 -0.348885 -0.120122
v 0.187500 -0.211388 0.393026
v 0.187500 -0.373149 -0.210678
v 0.187500 -0.332128 0.425378
v 0.187500 -0.493890 -0.178326
v -0.187500 -0.373149 -0.210678
v -0.187500 -0.211388 0.393026
v -0.187500 -0.493890 -0.178326
v -0.187500 -0.332128 0.425378
v -0.187500 -0.373149 -0.210678
v 0.187500 -0.373149 -0.210678
v -0.187500 -0.211388 0.393026
v 0.187500 -0.211388 0.393026
v -0.187500 -0.332128 0.425378
v 0.187500 -0.332128 0.425378
v -0.187500 -0.493890 -0.178326
v 0.187500 -0.493890 -0.178326
v -0.187500 -0.211388 0.393026
v 0.187500 -0.211388 0.393026
v -0.187500 -0.332128 0.425378
v 0.187500 -0.332128 0.425378
v 0.187500 -0.373149 -0.210678
v -0.187500 -0.373149 -0.210678
v 0.187500 -0.493890 -0.178326
v -0.187500 -0.493890 -0.178326
v -0.218750 -0.532163 -0.200423
v -0.218750 -0.351052 -0.248951
v -0.218750 -0.173114 0.415123
v -0.218750 -0.354225 0.463651
v -0.156250 -0.326788 -0.158396
v -0.156250 0.216545 -0.303981
v -0.156250 0.345955 0.178981
v -0.156250 -0.197379 0.324567
v 0.156250 -0.197379 0.324567
v 0.156250 0.345955 0.178981
v 0.156250 0.216545 -0.303981
v 0.156250 -0.326788 -0.158396
v 0.218750 -0.354225 0.463651
v 0.218750 -0.173114 0.415123
v 0.218750 -0.351052 -0.248951
v 0.218750 -0.532163 -0.200423
v -0.218750 -0.354225 0.463651
v 0.218750 -0.354225 0.463651
v 0.218750 -0.532163 -0.200423
v -0.218750 -0.532163 -0.200423
v -0.218750 -0.351052 -0.248951
v -0.156250 -0.351052 -0.248951
v -0.156250 -0.173114 0.415123
v -0.218750 -0.173114 0.415123
v -0.156250 -0.351052 -0.248951
v 0.218750 -0.351052 -0.248951
v 0.218750 -0.326788 -0.158396
v -0.156250 -0.326788 -0.158396
v -0.156250 -0.197379 0.324567
v 0.218750 -0.197379 0.324567
v 0.218750 -0.173114 0.415123
v -0.156250 -0.173114 0.415123
v 0.156250 -0.326788 -0.158396
v 0.218750 -0.326788 -0.158396
v 0.218750 -0.197379 0.324567
v 0.156250 -0.197379 0.324567
v -0.156250 0.216545 -0.303981
v 0.156250 0.216545 -0.303981
v 0.156250 0.345955 0.178981
v -0.156250 0.345955 0.178981
v -0.218750 -0.532163 -0.200423
v 0.218750 -0.532163 -0.200423
v 0.218750 -0.351052 -0.248951
v -0.218750 -0.351052 -0.248951
v -0.156250 -0.326788 -0.158396
v 0.156250 -0.326788 -0.158396
v 0.156250 0.216545 -0.303981
v -0.156250 0.216545 -0.303981
v -0.156250 0.345955 0.178981
v 0.156250 0.345955 0.178981
v 0.156250 -0.197379 0.324567
v -0.156250 -0.197379 0.324567
v -0.218750 -0.173114 0.415123
v 0.218750 -0.173114 0.415123
v 0.218750 -0.354225 0.463651
v -0.218750 -0.354225 0.463651
vt 0.906250 0.992188
vt 0.960938 0.992188
vt 0.906250 0.921875
vt 0.960938 0.921875
vt 0.007812 0.765625
vt 0.062500 0.765625
vt 0.007812 0.695312
vt 0.062500 0.695312
vt 0.953125 0.765625
vt 0.984375 0.765625
vt 0.953125 0.710938
vt 0.984375 0.710938
vt 0.078125 0.765625
vt 0.109375 0.765625
vt 0.078125 0.695312
vt 0.109375 0.695312
vt 0.125000 0.765625
vt 0.156250 0.765625
vt 0.125000 0.695312
vt 0.156250 0.695312
vt 0.539062 0.570312
vt 0.617188 0.570312
vt 0.539062 0.554688
vt 0.617188 0.554688
vt 0.632812 0.570312
vt 0.710938 0.570312
vt 0.632812 0.554688
vt 0.710938 0.554688
vt 0.781250 0.992188
vt 0.828125 0.992188
vt 0.781250 0.914062
vt 0.828125 0.914062
vt 0.843750 0.992188
vt 0.890625 0.992188
vt 0.843750 0.914062
vt 0.890625 0.914062
vt 0.898438 0.570312
vt 0.945312 0.570312
vt 0.898438 0.554688
vt 0.945312 0.554688
vt 0.007812 0.523438
vt 0.054688 0.523438
vt 0.007812 0.507812
vt 0.054688 0.507812
vt 0.562500 0.734375
vt 0.562500 0.734375
vt 0.562500 0.734375
vt 0.562500 0.734375
vt 0.562500 0.734375
vt 0.562500 0.734375
vt 0.562500 0.734375
vt 0.562500 0.734375
vt 0.562500 0.734375
vt 0.562500 0.734375
vt 0.562500 0.734375
vt 0.562500 0.734375
vt 0.562500 0.734375
vt 0.562500 0.734375
vt 0.562500 0.734375
vt 0.562500 0.734375
vt 0.562500 0.734375
vt 0.562500 0.734375
vt 0.562500 0.734375
vt 0.562500 0.734375
vt 0.562500 0.734375
vt 0.562500 0.734375
vt 0.562500 0.734375
vt 0.562500 0.734375
vt 0.562500 0.734375
vt 0.562500 0.734375
vt 0.562500 0.734375
vt 0.562500 0.734375
vt 0.562500 0.734375
vt 0.562500 0.734375
vt 0.562500 0.734375
vt 0.562500 0.734375
vt 0.562500 0.734375
vt 0.562500 0.734375
vt 0.562500 0.734375
vt 0.562500 0.734375
vt 0.562500 0.734375
vt 0.562500 0.734375
vt 0.562500 0.734375
vt 0.562500 0.734375
vt 0.562500 0.734375
vt 0.562500 0.734375
vt 0.562500 0.734375
vt 0.562500 0.734375
vt 0.562500 0.734375
vt 0.562500 0.734375
vt 0.562500 0.734375
vt 0.562500 0.734375
vt 0.562500 0.734375
vt 0.562500 0.734375
vt 0.562500 0.734375
vt 0.562500 0.734375
vt 0.562500 0.734375
vt 0.562500 0.734375
vt 0.562500 0.734375
vt 0.562500 0.734375
vn 1.000000 0.000000 0.000000
vn 1.000000 0.000000 0.000000
vn 1.000000 0.000000 0.000000
vn 1.000000 0.000000 0.000000
vn -1.000000 0.000000 0.000000
vn -1.000000 0.000000 0.000000
vn -1.000000 0.000000 0.000000
vn -1.000000 0.000000 0.000000
vn 0.000000 0.965926 -0.258819
vn 0.000000 0.965926 -0.258819
vn 0.000000 0.965926 -0.258819
vn 0.000000 0.965926 -0.258819
vn 0.000000 0.258819 0.965926
vn 0.000000 0.258819 0.965926
vn 0.000000 0.258819 0.965926
vn 0.000000 0.258819 0.965926
vn 0.000000 -0.258819 -0.965926
vn 0.000000 -0.258819 -0.965926
vn 0.000000 -0.258819 -0.965926
vn 0.000000 -0.258819 -0.965926
vn 1.000000 0.000000 0.000000
vn 1.000000 0.000000 0.000000
vn 1.000000 0.000000 0.000000
vn 1.000000 0.000000 0.000000
vn -1.000000 0.000000 0.000000
vn -1.000000 0.000000 0.000000
vn -1.000000 0.000000 0.000000
vn -1.000000 0.000000 0.000000
vn 0.000000 0.965926 -0.258819
vn 0.000000 0.965926 -0.258819
vn 0.000000 0.965926 -0.258819
vn 0.000000 0.965926 -0.258819
vn 0.000000 -0.965926 0.258819
vn 0.000000 -0.965926 0.258819
vn 0.000000 -0.965926 0.258819
vn 0.000000 -0.965926 0.258819
vn 0.000000 0.258819 0.965926
vn 0.000000 0.258819 0.965926
vn 0.000000 0.258819 0.965926
vn 0.000000 0.258819 0.965926
vn 0.000000 -0.258819 -0.965926
vn 0.000000 -0.258819 -0.965926
vn 0.000000 -0.258819 -0.965926
vn 0.000000 -0.258819 -0.965926
vn 1.000000 -0.000000 -0.000000
vn 1.000000 -0.000000 -0.000000
vn 1.000000 -0.000000 -0.000000
vn 1.000000 -0.000000 -0.000000
vn 1.000000 -0.000000 -0.000000
vn 1.000000 -0.000000 -0.000000
vn 1.000000 -0.000000 -0.000000
vn 1.000000 -0.000000 -0.000000
vn -1.000000 -0.000000 -0.000000
vn -1.000000 -0.000000 -0.000000
vn -1.000000 -0.000000 -0.000000
vn -1.000000 -0.000000 -0.000000
vn -1.000000 -0.000000 -0.000000
vn -1.000000 -0.000000 -0.000000
vn -1.000000 -0.000000 -0.000000
vn -1.000000 -0.000000 -0.000000
vn -0.000000 0.965926 -0.258819
vn -0.000000 0.965926 -0.258819
vn -0.000000 0.965926 -0.258819
vn -0.000000 0.965926 -0.258819
vn -0.000000 -0.965926 0.258819
vn -0.000000 -0.965926 0.258819
vn -0.000000 -0.965926 0.258819
vn -0.000000 -0.965926 0.258819
vn -0.000000 -0.965926 0.258819
vn -0.000000 -0.965926 0.258819
vn -0.000000 -0.965926 0.258819
vn -0.000000 -0.965926 0.258819
vn -0.000000 -0.965926 0.258819
vn -0.000000 -0.965926 0.258819
vn -0.000000 -0.965926 0.258819
vn -0.000000 -0.965926 0.258819
vn -0.000000 -0.965926 0.258819
vn -0.000000 -0.965926 0.258819
vn -0.000000 -0.965926 0.258819
vn -0.000000 -0.965926 0.258819
vn -0.000000 -0.965926 0.258819
vn -0.000000 -0.965926 0.258819
vn -0.000000 -0.965926 0.258819
vn -0.000000 -0.965926 0.258819
vn -0.000000 0.258819 0.965926
vn -0.000000 0.258819 0.965926
vn -0.000000 0.258819 0.965926
vn -0.000000 0.258819 0.965926
vn -0.000000 0.258819 0.965926
vn -0.000000 0.258819 0.965926
vn -0.000000 0.258819 0.965926
vn -0.000000 0.258819 0.965926
vn -0.000000 -0.258819 -0.965926
vn -0.000000 -0.258819 -0.965926
vn -0.000000 -0.258819 -0.965926
vn -0.000000 -0.258819 -0.965926
vn -0.000000 -0.258819 -0.965926
vn -0.000000 -0.258819 -0.965926
vn -0.000000 -0.258819 -0.965926
vn -0.000000 -0.258819 -0.965926
usemtl PistolMat
s off
f 629/629/629 631/631/631 632/632/632
f 629/629/629 632/632/632 630/630/630
f 633/633/633 635/635/635 636/636/636
f 633/633/633 636/636/636 634/634/634
f 637/637/637 639/639/639 640/640/640
f 637/637/637 640/640/640 638/638/638
f 641/641/641 643/643/643 644/644/644
f 641/641/641 644/644/644 642/642/642
f 645/645/645 647/647/647 648/648/648
f 645/645/645 648/648/648 646/646/646
f 649/649/649 651/651/651 652/652/652
f 649/649/649 652/652/652 650/650/650
f 653/653/653 655/655/655 656/656/656
f 653/653/653 656/656/656 654/654/654
f 657/657/657 659/659/659 660/660/660
f 657/657/657 660/660/660 658/658/658
f 661/661/661 663/663/663 664/664/664
f 661/661/661 664/664/664 662/662/662
f 665/665/665 667/667/667 668/668/668
f 665/665/665 668/668/668 666/666/666
f 669/669/669 671/671/671 672/672/672
f 669/669/669 672/672/672 670/670/670
f 673/673/673 674/674/674 675/675/675
f 673/673/673 675/675/675 676/676/676
f 677/677/677 678/678/678 679/679/679
f 677/677/677 679/679/679 680/680/680
f 681/681/681 682/682/682 683/683/683
f 681/681/681 683/683/683 684/684/684
f 685/685/685 686/686/686 687/687/687
f 685/685/685 687/687/687 688/688/688
f 689/689/689 690/690/690 691/691/691
f 689/689/689 691/691/691 692/692/692
f 693/693/693 694/694/694 695/695/695
f 693/693/693 695/695/695 696/696/696
f 697/697/697 698/698/698 699/699/699
f 697/697/697 699/699/699 700/700/700
f 701/701/701 702/702/702 703/703/703
f 701/701/701 703/703/703 704/704/704
f 705/705/705 706/706/706 707/707/707
f 705/705/705 707/707/707 708/708/708
f 709/709/709 710/710/710 711/711/711
f 709/709/709 711/711/711 712/712/712
f 713/713/713 714/714/714 715/715/715
f 713/713/713 715/715/715 716/716/716
f 717/717/717 718/718/718 719/719/719
f 717/717/717 719/719/719 720/720/720
f 721/721/721 722/722/722 723/723/723
f 721/721/721 723/723/723 724/724/724
f 725/725/725 726/726/726 727/727/727
f 725/725/725 727/727/727 728/728/728
o Trigger
g Trigger
v 0.093750 0.218750 -0.500000
v 0.093750 0.218750 -0.625000
v 0.093750 -0.031250 -0.500000
v 0.093750 -0.031250 -0.625000
v -0.093750 0.218750 -0.625000
v -0.093750 0.218750 -0.500000
v -0.093750 -0.031250 -0.625000
v -0.093750 -0.031250 -0.500000
v -0.093750 0.218750 -0.625000
v 0.093750 0.218750 -0.625000
v -0.093750 0.218750 -0.500000
v 0.093750 0.218750 -0.500000
v -0.093750 -0.031250 -0.500000
v 0.093750 -0.031250 -0.500000
v -0.093750 -0.031250 -0.625000
v 0.093750 -0.031250 -0.625000
v -0.093750 0.218750 -0.500000
v 0.093750 0.218750 -0.500000
v -0.093750 -0.031250 -0.500000
v 0.093750 -0.031250 -0.500000
v 0.093750 0.218750 -0.625000
v -0.093750 0.218750 -0.625000
v 0.093750 -0.031250 -0.625000
v -0.093750 -0.031250 -0.625000
v -0.125000 -0.062500 -0.656250
v -0.125000 0.250000 -0.656250
v -0.125000 0.250000 -0.468750
v -0.125000 -0.062500 -0.468750
v 0.125000 -0.062500 -0.468750
v 0.125000 0.250000 -0.468750
v 0.125000 0.250000 -0.656250
v 0.125000 -0.062500 -0.656250
v -0.125000 -0.062500 -0.468750
v 0.125000 -0.062500 -0.468750
v 0.125000 -0.062500 -0.656250
v -0.125000 -0.062500 -0.656250
v -0.125000 0.250000 -0.656250
v 0.125000 0.250000 -0.656250
v 0.125000 0.250000 -0.468750
v -0.125000 0.250000 -0.468750
v -0.125000 -0.062500 -0.656250
v 0.125000 -0.062500 -0.656250
v 0.125000 0.250000 -0.656250
v -0.125000 0.250000 -0.656250
v -0.125000 0.250000 -0.468750
v 0.125000 0.250000 -0.468750
v 0.125000 -0.062500 -0.468750
v -0.125000 -0.062500 -0.468750
vt 0.070312 0.570312
vt 0.085938 0.570312
vt 0.070312 0.539062
vt 0.085938 0.539062
vt 0.101562 0.570312
vt 0.117188 0.570312
vt 0.101562 0.539062
vt 0.117188 0.539062
vt 0.625000 0.523438
vt 0.648438 0.523438
vt 0.625000 0.507812
vt 0.648438 0.507812
vt 0.664062 0.523438
vt 0.687500 0.523438
vt 0.664062 0.507812
vt 0.687500 0.507812
vt 0.929688 0.617188
vt 0.953125 0.617188
vt 0.929688 0.585938
vt 0.953125 0.585938
vt 0.968750 0.617188
vt 0.992188 0.617188
vt 0.968750 0.585938
vt 0.992188 0.585938
vt 0.562500 0.734375
vt 0.562500 0.734375
vt 0.562500 0.734375
vt 0.562500 0.734375
vt 0.562500 0.734375
vt 0.562500 0.734375
vt 0.562500 0.734375
vt 0.562500 0.734375
vt 0.562500 0.734375
vt 0.562500 0.734375
vt 0.562500 0.734375
vt 0.562500 0.734375
vt 0.562500 0.734375
vt 0.562500 0.734375
vt 0.562500 0.734375
vt 0.562500 0.734375
vt 0.562500 0.734375
vt 0.562500 0.734375
vt 0.562500 0.734375
vt 0.562500 0.734375
vt 0.562500 0.734375
vt 0.562500 0.734375
vt 0.562500 0.734375
vt 0.562500 0.734375
vn 1.000000 0.000000 0.000000
vn 1.000000 0.000000 0.000000
vn 1.000000 0.000000 0.000000
vn 1.000000 0.000000 0.000000
vn -1.000000 0.000000 0.000000
vn -1.000000 0.000000 0.000000
vn -1.000000 0.000000 0.000000
vn -1.000000 0.000000 0.000000
vn 0.000000 1.000000 0.000000
vn 0.000000 1.000000 0.000000
vn 0.000000 1.000000 0.000000
vn 0.000000 1.000000 0.000000
vn 0.000000 -1.000000 0.000000
vn 0.000000 -1.000000 0.000000
vn 0.000000 -1.000000 0.000000
vn 0.000000 -1.000000 0.000000
vn 0.000000 0.000000 1.000000
vn 0.000000 0.000000 1.000000
vn 0.000000 0.000000 1.000000
vn 0.000000 0.000000 1.000000
vn 0.000000 -0.000000 -1.000000
vn 0.000000 -0.000000 -1.000000
vn 0.000000 -0.000000 -1.000000
vn 0.000000 -0.000000 -1.000000
vn 1.000000 -0.000000 -0.000000
vn 1.000000 -0.000000 -0.000000
vn 1.000000 -0.000000 -0.000000
vn 1.000000 -0.000000 -0.000000
vn -1.000000 -0.000000 -0.000000
vn -1.000000 -0.000000 -0.000000
vn -1.000000 -0.000000 -0.000000
vn -1.000000 -0.000000 -0.000000
vn -0.000000 1.000000 -0.000000
vn -0.000000 1.000000 -0.000000
vn -0.000000 1.000000 -0.000000
vn -0.000000 1.000000 -0.000000
vn -0.000000 -1.000000 -0.000000
vn -0.000000 -1.000000 -0.000000
vn -0.000000 -1.000000 -0.000000
vn -0.000000 -1.000000 -0.000000
vn -0.000000 -0.000000 1.000000
vn -0.000000 -0.000000 1.000000
vn -0.000000 -0.000000 1.000000
vn -0.000000 -0.000000 1.000000
vn -0.000000 -0.000000 -1.000000
vn -0.000000 -0.000000 -1.000000
vn -0.000000 -0.000000 -1.000000
vn -0.000000 -0.000000 -1.000000
usemtl PistolMat
s off
f 729/729/729 731/731/731 732/732/732
f 729/729/729 732/732/732 730/730/730
f 733/733/733 735/735/735 736/736/736
f 733/733/733 736/736/736 734/734/734
f 737/737/737 739/739/739 740/740/740
f 737/737/737 740/740/740 738/738/738
f 741/741/741 743/743/743 744/744/744
f 741/741/741 744/744/744 742/742/742
f 745/745/745 747/747/747 748/748/748
f 745/745/745 748/748/748 746/746/746
f 749/749/749 751/751/751 752/752/752
f 749/749/749 752/752/752 750/750/750
f 753/753/753 754/754/754 755/755/755
f 753/753/753 755/755/755 756/756/756
f 757/757/757 758/758/758 759/759/759
f 757/757/757 759/759/759 760/760/760
f 761/761/761 762/762/762 763/763/763
f 761/761/761 763/763/763 764/764/764
f 765/765/765 766/766/766 767/767/767
f 765/765/765 767/767/767 768/768/768
f 769/769/769 770/770/770 771/771/771
f 769/769/769 771/771/771 772/772/772
f 773/773/773 774/774/774 775/775/775
f 773/773/773 775/775/775 776/776/776
