# Spark-9 blocky pistol, generated by gen_spark_pistol.py
# 1059 vertices, 894 quads. Y up, barrel along +X.
mtllib spark_pistol.mtl
o spark_pistol
v -0.031250 0.078125 -0.007812
v -0.031250 0.085938 -0.007812
v -0.031250 0.085938 0.000000
v -0.031250 0.078125 0.000000
v -0.031250 0.085938 0.007812
v -0.031250 0.078125 0.007812
v 0.007812 -0.070312 -0.015625
v 0.007812 -0.062500 -0.015625
v 0.007812 -0.062500 0.000000
v 0.007812 -0.070312 0.000000
v 0.007812 -0.062500 0.007812
v 0.007812 -0.070312 0.007812
v 0.007812 -0.062500 0.015625
v 0.007812 -0.070312 0.015625
v 0.007812 0.078125 -0.015625
v 0.007812 0.085938 -0.015625
v 0.007812 0.085938 -0.007812
v 0.007812 0.078125 -0.007812
v 0.007812 0.078125 0.007812
v 0.007812 0.085938 0.007812
v 0.007812 0.085938 0.015625
v 0.007812 0.078125 0.015625
v 0.015625 -0.062500 -0.023438
v 0.015625 -0.054688 -0.023438
v 0.015625 -0.054688 0.023438
v 0.015625 -0.062500 0.023438
v 0.015625 -0.046875 -0.023438
v 0.015625 -0.046875 -0.015625
v 0.015625 -0.054688 -0.015625
v 0.015625 -0.046875 0.015625
v 0.015625 -0.054688 0.015625
v 0.015625 -0.046875 0.023438
v 0.015625 -0.031250 -0.023438
v 0.015625 -0.031250 -0.015625
v 0.015625 -0.031250 -0.007812
v 0.015625 -0.046875 -0.007812
v 0.015625 -0.039062 -0.007812
v 0.015625 -0.039062 0.000000
v 0.015625 -0.046875 0.000000
v 0.015625 -0.039062 0.007812
v 0.015625 -0.046875 0.007812
v 0.015625 -0.031250 0.007812
v 0.015625 -0.031250 0.015625
v 0.015625 -0.039062 0.015625
v 0.015625 -0.039062 0.023438
v 0.015625 -0.031250 0.023438
v 0.023438 -0.031250 -0.023438
v 0.023438 -0.023438 -0.023438
v 0.023438 -0.023438 -0.015625
v 0.023438 -0.031250 -0.015625
v 0.023438 -0.023438 -0.007812
v 0.023438 -0.031250 -0.007812
v 0.023438 -0.023438 0.000000
v 0.023438 -0.031250 0.000000
v 0.023438 -0.023438 0.007812
v 0.023438 -0.031250 0.007812
v 0.023438 -0.023438 0.015625
v 0.023438 -0.031250 0.015625
v 0.023438 -0.023438 0.023438
v 0.023438 -0.031250 0.023438
v 0.023438 -0.015625 -0.023438
v 0.023438 -0.015625 -0.015625
v 0.023438 -0.007812 -0.015625
v 0.023438 -0.007812 -0.007812
v 0.023438 -0.015625 -0.007812
v 0.023438 -0.015625 0.000000
v 0.023438 -0.015625 0.007812
v 0.023438 -0.015625 0.015625
v 0.023438 -0.015625 0.023438
v 0.023438 -0.007812 -0.023438
v 0.023438 -0.007812 0.007812
v 0.023438 -0.007812 0.015625
v 0.023438 -0.007812 0.023438
v 0.031250 -0.007812 -0.023438
v 0.031250 0.000000 -0.023438
v 0.031250 0.000000 -0.015625
v 0.031250 -0.007812 -0.015625
v 0.031250 0.000000 -0.007812
v 0.031250 -0.007812 -0.007812
v 0.031250 0.000000 0.000000
v 0.031250 -0.007812 0.000000
v 0.031250 0.000000 0.007812
v 0.031250 -0.007812 0.007812
v 0.031250 0.000000 0.015625
v 0.031250 -0.007812 0.015625
v 0.031250 0.000000 0.023438
v 0.031250 -0.007812 0.023438
v 0.031250 0.007812 -0.023438
v 0.031250 0.007812 -0.015625
v 0.031250 0.007812 0.000000
v 0.031250 0.015625 0.000000
v 0.031250 0.015625 0.007812
v 0.031250 0.015625 0.015625
v 0.031250 0.007812 0.015625
v 0.031250 0.007812 0.023438
v 0.031250 0.015625 -0.023438
v 0.031250 0.015625 -0.015625
v 0.031250 0.015625 0.023438
v 0.039062 0.015625 -0.023438
v 0.039062 0.023438 -0.023438
v 0.039062 0.023438 -0.015625
v 0.039062 0.015625 -0.015625
v 0.039062 0.015625 0.015625
v 0.039062 0.023438 0.015625
v 0.039062 0.023438 0.023438
v 0.039062 0.015625 0.023438
v 0.054688 -0.007812 -0.007812
v 0.054688 0.000000 -0.007812
v 0.054688 0.000000 0.000000
v 0.054688 -0.007812 0.000000
v 0.054688 0.000000 0.007812
v 0.054688 -0.007812 0.007812
v 0.062500 0.000000 -0.007812
v 0.062500 0.007812 -0.007812
v 0.062500 0.007812 0.000000
v 0.062500 0.000000 0.000000
v 0.062500 0.007812 0.007812
v 0.062500 0.000000 0.007812
v 0.062500 0.015625 -0.007812
v 0.062500 0.015625 0.000000
v 0.062500 0.015625 0.007812
v 0.101562 -0.015625 -0.007812
v 0.101562 -0.007812 -0.007812
v 0.101562 -0.007812 0.000000
v 0.101562 -0.015625 0.000000
v 0.101562 -0.007812 0.007812
v 0.101562 -0.015625 0.007812
v 0.101562 0.007812 -0.007812
v 0.101562 0.007812 0.000000
v 0.101562 0.015625 0.000000
v 0.101562 0.015625 0.007812
v 0.101562 0.015625 -0.007812
v 0.148438 0.015625 -0.015625
v 0.148438 0.023438 -0.015625
v 0.148438 0.023438 0.000000
v 0.148438 0.015625 0.000000
v 0.148438 0.023438 0.007812
v 0.148438 0.015625 0.007812
v 0.148438 0.023438 0.015625
v 0.148438 0.015625 0.015625
v 0.148438 0.031250 -0.015625
v 0.148438 0.031250 0.000000
v 0.148438 0.039062 0.000000
v 0.148438 0.039062 0.007812
v 0.148438 0.031250 0.007812
v 0.148438 0.031250 0.015625
v 0.148438 0.039062 -0.015625
v 0.148438 0.039062 -0.007812
v 0.148438 0.031250 -0.007812
v 0.148438 0.039062 0.015625
v 0.148438 0.070312 -0.023438
v 0.148438 0.078125 -0.023438
v 0.148438 0.078125 -0.015625
v 0.148438 0.070312 -0.015625
v 0.148438 0.070312 0.015625
v 0.148438 0.078125 0.015625
v 0.148438 0.078125 0.023438
v 0.148438 0.070312 0.023438
v 0.148438 0.078125 -0.007812
v 0.148438 0.085938 -0.007812
v 0.148438 0.085938 0.007812
v 0.148438 0.078125 0.007812
v 0.156250 0.039062 -0.023438
v 0.156250 0.046875 -0.023438
v 0.156250 0.046875 -0.015625
v 0.156250 0.039062 -0.015625
v 0.156250 0.039062 0.015625
v 0.156250 0.046875 0.015625
v 0.156250 0.046875 0.023438
v 0.156250 0.039062 0.023438
v 0.156250 0.054688 -0.023438
v 0.156250 0.054688 -0.015625
v 0.156250 0.054688 0.015625
v 0.156250 0.054688 0.023438
v 0.156250 0.062500 -0.023438
v 0.156250 0.062500 -0.015625
v 0.156250 0.062500 0.015625
v 0.156250 0.062500 0.023438
v 0.156250 0.070312 -0.023438
v 0.156250 0.070312 -0.015625
v 0.156250 0.070312 0.015625
v 0.156250 0.070312 0.023438
v 0.156250 0.078125 -0.015625
v 0.156250 0.078125 -0.007812
v 0.156250 0.070312 -0.007812
v 0.156250 0.078125 0.000000
v 0.156250 0.070312 0.000000
v 0.156250 0.078125 0.007812
v 0.156250 0.070312 0.007812
v 0.156250 0.078125 0.015625
v 0.179688 0.039062 -0.015625
v 0.179688 0.046875 -0.015625
v 0.179688 0.046875 0.000000
v 0.179688 0.039062 0.000000
v 0.179688 0.046875 0.007812
v 0.179688 0.039062 0.007812
v 0.179688 0.046875 0.015625
v 0.179688 0.039062 0.015625
v 0.179688 0.054688 -0.015625
v 0.179688 0.054688 -0.007812
v 0.179688 0.046875 -0.007812
v 0.179688 0.054688 0.000000
v 0.179688 0.054688 0.007812
v 0.179688 0.054688 0.015625
v 0.179688 0.062500 -0.015625
v 0.179688 0.062500 -0.007812
v 0.179688 0.062500 0.000000
v 0.179688 0.062500 0.007812
v 0.179688 0.062500 0.015625
v 0.179688 0.070312 -0.015625
v 0.179688 0.070312 0.000000
v 0.179688 0.070312 0.015625
v -0.039062 -0.070312 -0.007812
v -0.039062 -0.062500 -0.007812
v -0.039062 -0.062500 -0.015625
v -0.039062 -0.070312 -0.015625
v -0.039062 -0.070312 0.015625
v -0.039062 -0.062500 0.015625
v -0.039062 -0.062500 0.023438
v -0.039062 -0.054688 0.023438
v -0.039062 -0.054688 -0.023438
v -0.039062 -0.062500 -0.023438
v -0.039062 0.070312 0.000000
v -0.039062 0.078125 0.000000
v -0.039062 0.078125 -0.007812
v -0.039062 0.070312 -0.007812
v -0.039062 0.070312 0.007812
v -0.039062 0.078125 0.007812
v -0.039062 0.085938 0.000000
v -0.039062 0.085938 -0.007812
v -0.039062 0.085938 0.007812
v -0.031250 -0.054688 -0.015625
v -0.031250 -0.046875 -0.015625
v -0.031250 -0.046875 -0.023438
v -0.031250 -0.054688 -0.023438
v -0.031250 -0.054688 0.000000
v -0.031250 -0.046875 0.000000
v -0.031250 -0.054688 0.015625
v -0.031250 -0.046875 0.015625
v -0.031250 -0.054688 0.023438
v -0.031250 -0.046875 0.023438
v -0.031250 -0.039062 -0.015625
v -0.031250 -0.039062 -0.023438
v -0.031250 -0.046875 -0.007812
v -0.031250 -0.039062 -0.007812
v -0.031250 -0.039062 0.000000
v -0.031250 -0.046875 0.007812
v -0.031250 -0.039062 0.007812
v -0.031250 -0.039062 0.015625
v -0.031250 -0.039062 0.023438
v -0.031250 -0.031250 -0.015625
v -0.031250 -0.031250 -0.023438
v -0.031250 -0.031250 0.000000
v -0.031250 -0.031250 0.007812
v -0.031250 -0.031250 0.015625
v -0.031250 -0.031250 0.023438
v -0.031250 0.031250 -0.007812
v -0.031250 0.039062 -0.007812
v -0.031250 0.039062 -0.015625
v -0.031250 0.031250 -0.015625
v -0.031250 0.031250 0.000000
v -0.031250 0.039062 0.000000
v -0.031250 0.031250 0.015625
v -0.031250 0.039062 0.015625
v -0.031250 0.054688 0.000000
v -0.031250 0.062500 0.000000
v -0.031250 0.062500 -0.007812
v -0.031250 0.054688 -0.007812
v -0.031250 0.054688 0.007812
v -0.031250 0.062500 0.007812
v -0.031250 0.070312 0.000000
v -0.031250 0.070312 -0.007812
v -0.031250 0.070312 0.007812
v -0.023438 -0.031250 -0.015625
v -0.023438 -0.023438 -0.015625
v -0.023438 -0.023438 -0.023438
v -0.023438 -0.031250 -0.023438
v -0.023438 -0.031250 -0.007812
v -0.023438 -0.015625 -0.007812
v -0.023438 -0.015625 -0.015625
v -0.023438 -0.031250 0.000000
v -0.023438 -0.023438 0.000000
v -0.023438 -0.023438 -0.007812
v -0.023438 -0.031250 0.007812
v -0.023438 -0.015625 0.007812
v -0.023438 -0.015625 0.000000
v -0.023438 -0.031250 0.015625
v -0.023438 -0.023438 0.015625
v -0.023438 -0.023438 0.007812
v -0.023438 -0.031250 0.023438
v -0.023438 -0.015625 0.023438
v -0.023438 -0.015625 0.015625
v -0.023438 -0.015625 -0.023438
v -0.023438 -0.007812 -0.015625
v -0.023438 -0.007812 -0.023438
v -0.023438 -0.007812 -0.007812
v -0.023438 -0.007812 0.000000
v -0.023438 -0.007812 0.007812
v -0.023438 -0.007812 0.015625
v -0.023438 -0.007812 0.023438
v -0.015625 -0.007812 -0.015625
v -0.015625 0.007812 -0.015625
v -0.015625 0.007812 -0.023438
v -0.015625 -0.007812 -0.023438
v -0.015625 -0.007812 -0.007812
v -0.015625 0.007812 -0.007812
v -0.015625 -0.007812 0.000000
v -0.015625 0.000000 0.000000
v -0.015625 0.000000 -0.007812
v -0.015625 -0.007812 0.015625
v -0.015625 0.000000 0.015625
v -0.015625 -0.007812 0.023438
v -0.015625 0.000000 0.023438
v -0.015625 0.007812 0.000000
v -0.015625 0.000000 0.007812
v -0.015625 0.007812 0.007812
v -0.015625 0.007812 0.015625
v -0.015625 0.007812 0.023438
v -0.015625 0.015625 -0.015625
v -0.015625 0.015625 -0.023438
v -0.015625 0.015625 0.000000
v -0.015625 0.031250 0.007812
v -0.015625 0.031250 0.000000
v -0.015625 0.015625 0.015625
v -0.015625 0.015625 0.007812
v -0.015625 0.015625 0.023438
v -0.015625 0.015625 -0.007812
v -0.015625 0.023438 -0.007812
v -0.015625 0.023438 -0.015625
v -0.015625 0.023438 0.000000
v -0.015625 0.023438 0.015625
v -0.015625 0.023438 0.007812
v -0.015625 0.031250 -0.007812
v -0.015625 0.031250 -0.015625
v -0.015625 0.031250 0.015625
v -0.015625 0.039062 -0.015625
v -0.015625 0.046875 -0.015625
v -0.015625 0.046875 -0.023438
v -0.015625 0.039062 -0.023438
v -0.015625 0.039062 -0.007812
v -0.015625 0.046875 -0.007812
v -0.015625 0.039062 0.015625
v -0.015625 0.046875 0.015625
v -0.015625 0.039062 0.023438
v -0.015625 0.046875 0.023438
v -0.015625 0.062500 -0.015625
v -0.015625 0.062500 -0.023438
v -0.015625 0.054688 -0.007812
v -0.015625 0.054688 -0.015625
v -0.015625 0.046875 0.000000
v -0.015625 0.054688 0.000000
v -0.015625 0.054688 0.015625
v -0.015625 0.054688 0.023438
v -0.015625 0.070312 -0.007812
v -0.015625 0.070312 -0.015625
v -0.015625 0.062500 0.023438
v -0.015625 0.062500 0.007812
v -0.015625 0.054688 0.007812
v -0.015625 0.070312 -0.023438
v -0.015625 0.062500 0.015625
v -0.015625 0.070312 0.015625
v -0.015625 0.070312 0.007812
v -0.015625 0.070312 0.023438
v -0.015625 0.078125 -0.007812
v -0.015625 0.078125 -0.015625
v -0.015625 0.078125 0.015625
v -0.015625 0.078125 0.007812
v -0.007812 0.015625 -0.015625
v -0.007812 0.023438 -0.015625
v -0.007812 0.023438 -0.023438
v -0.007812 0.015625 -0.023438
v -0.007812 0.015625 0.023438
v -0.007812 0.023438 0.023438
v -0.007812 0.023438 0.015625
v -0.007812 0.015625 0.015625
v -0.007812 0.070312 -0.015625
v -0.007812 0.078125 -0.015625
v -0.007812 0.078125 -0.023438
v -0.007812 0.070312 -0.023438
v -0.007812 0.070312 0.023438
v -0.007812 0.078125 0.023438
v -0.007812 0.078125 0.015625
v -0.007812 0.070312 0.015625
v -0.007812 0.078125 -0.007812
v -0.007812 0.085938 -0.007812
v -0.007812 0.085938 -0.015625
v -0.007812 0.085938 0.015625
v -0.007812 0.085938 0.007812
v -0.007812 0.078125 0.007812
v 0.046875 -0.007812 0.000000
v 0.046875 0.000000 0.000000
v 0.046875 0.000000 -0.007812
v 0.046875 -0.007812 -0.007812
v 0.046875 -0.007812 0.007812
v 0.046875 0.000000 0.007812
v 0.054688 0.007812 0.000000
v 0.054688 0.007812 -0.007812
v 0.054688 0.007812 0.007812
v 0.054688 0.015625 0.000000
v 0.054688 0.015625 -0.007812
v 0.054688 0.015625 0.007812
v 0.085938 -0.007812 0.000000
v 0.085938 0.015625 0.000000
v 0.085938 0.015625 -0.007812
v 0.085938 -0.007812 -0.007812
v 0.085938 -0.007812 0.007812
v 0.085938 0.000000 0.007812
v 0.085938 0.000000 0.000000
v 0.085938 0.007812 0.007812
v 0.085938 0.007812 0.000000
v 0.085938 0.015625 0.007812
v 0.132812 0.078125 0.007812
v 0.132812 0.085938 0.007812
v 0.132812 0.085938 -0.007812
v 0.132812 0.078125 -0.007812
v 0.070312 -0.007812 0.000000
v 0.070312 -0.007812 -0.007812
v -0.015625 -0.007812 0.007812
v 0.062500 -0.007812 0.007812
v 0.062500 -0.007812 0.000000
v 0.070312 -0.007812 0.007812
v 0.007812 0.023438 -0.015625
v 0.007812 0.023438 -0.023438
v 0.023438 0.023438 -0.015625
v 0.023438 0.023438 -0.023438
v 0.031250 0.023438 -0.015625
v 0.031250 0.023438 -0.023438
v 0.000000 0.023438 0.023438
v 0.000000 0.023438 0.015625
v 0.015625 0.023438 0.023438
v 0.015625 0.023438 0.015625
v 0.023438 0.023438 0.023438
v 0.023438 0.023438 0.015625
v 0.031250 0.023438 0.023438
v 0.031250 0.023438 0.015625
v -0.015625 0.039062 0.000000
v -0.023438 0.039062 0.015625
v -0.023438 0.039062 0.000000
v -0.023438 0.039062 0.007812
v -0.015625 0.039062 0.007812
v 0.164062 0.070312 0.007812
v 0.164062 0.070312 -0.015625
v 0.164062 0.070312 0.015625
v 0.171875 0.070312 0.015625
v 0.171875 0.070312 -0.015625
v 0.171875 0.070312 0.000000
v 0.007812 0.078125 -0.023438
v 0.015625 0.078125 -0.015625
v 0.015625 0.078125 -0.023438
v 0.023438 0.078125 -0.015625
v 0.023438 0.078125 -0.023438
v 0.031250 0.078125 -0.015625
v 0.031250 0.078125 -0.023438
v 0.039062 0.078125 -0.015625
v 0.039062 0.078125 -0.023438
v 0.062500 0.078125 -0.015625
v 0.062500 0.078125 -0.023438
v 0.070312 0.078125 -0.015625
v 0.070312 0.078125 -0.023438
v 0.078125 0.078125 -0.015625
v 0.078125 0.078125 -0.023438
v 0.093750 0.078125 -0.015625
v 0.093750 0.078125 -0.023438
v 0.101562 0.078125 -0.015625
v 0.101562 0.078125 -0.023438
v 0.109375 0.078125 -0.015625
v 0.109375 0.078125 -0.023438
v 0.117188 0.078125 -0.015625
v 0.117188 0.078125 -0.023438
v 0.125000 0.078125 -0.015625
v 0.125000 0.078125 -0.023438
v 0.132812 0.078125 -0.015625
v 0.132812 0.078125 -0.023438
v 0.140625 0.078125 -0.015625
v 0.140625 0.078125 -0.023438
v -0.015625 0.078125 0.000000
v -0.007812 0.078125 0.000000
v 0.039062 0.078125 -0.007812
v 0.046875 0.078125 -0.007812
v 0.046875 0.078125 -0.015625
v 0.054688 0.078125 -0.007812
v 0.054688 0.078125 -0.015625
v 0.062500 0.078125 -0.007812
v 0.062500 0.078125 0.000000
v 0.070312 0.078125 0.000000
v 0.070312 0.078125 -0.007812
v 0.085938 0.078125 -0.007812
v 0.085938 0.078125 -0.015625
v 0.085938 0.078125 0.015625
v 0.093750 0.078125 0.015625
v 0.093750 0.078125 0.000000
v 0.101562 0.078125 0.000000
v 0.101562 0.078125 -0.007812
v 0.109375 0.078125 -0.007812
v 0.125000 0.078125 -0.007812
v 0.000000 0.078125 0.007812
v 0.000000 0.078125 -0.007812
v 0.000000 0.078125 0.000000
v 0.007812 0.078125 0.000000
v 0.015625 0.078125 0.000000
v 0.015625 0.078125 -0.007812
v 0.031250 0.078125 0.000000
v 0.031250 0.078125 -0.007812
v 0.039062 0.078125 0.000000
v 0.039062 0.078125 0.015625
v 0.046875 0.078125 0.015625
v 0.046875 0.078125 0.000000
v 0.054688 0.078125 0.000000
v 0.078125 0.078125 0.000000
v 0.078125 0.078125 -0.007812
v 0.085938 0.078125 0.000000
v 0.109375 0.078125 0.000000
v 0.117188 0.078125 0.000000
v 0.117188 0.078125 -0.007812
v 0.125000 0.078125 0.000000
v 0.132812 0.078125 0.000000
v 0.148438 0.078125 0.000000
v 0.015625 0.078125 0.007812
v 0.023438 0.078125 0.007812
v 0.023438 0.078125 0.000000
v 0.023438 0.078125 0.015625
v 0.031250 0.078125 0.015625
v 0.031250 0.078125 0.007812
v 0.039062 0.078125 0.007812
v 0.054688 0.078125 0.015625
v 0.054688 0.078125 0.007812
v 0.062500 0.078125 0.007812
v 0.085938 0.078125 0.007812
v 0.093750 0.078125 0.007812
v 0.101562 0.078125 0.007812
v 0.117188 0.078125 0.007812
v 0.125000 0.078125 0.007812
v 0.062500 0.078125 0.015625
v 0.078125 0.078125 0.015625
v 0.078125 0.078125 0.007812
v 0.117188 0.078125 0.015625
v 0.125000 0.078125 0.015625
v 0.132812 0.078125 0.015625
v 0.140625 0.078125 0.015625
v 0.140625 0.078125 0.007812
v 0.000000 0.078125 0.023438
v 0.000000 0.078125 0.015625
v 0.007812 0.078125 0.023438
v 0.015625 0.078125 0.023438
v 0.015625 0.078125 0.015625
v 0.039062 0.078125 0.023438
v 0.046875 0.078125 0.023438
v 0.054688 0.078125 0.023438
v 0.062500 0.078125 0.023438
v 0.070312 0.078125 0.023438
v 0.070312 0.078125 0.015625
v 0.085938 0.078125 0.023438
v 0.093750 0.078125 0.023438
v 0.125000 0.078125 0.023438
v 0.132812 0.078125 0.023438
v 0.140625 0.078125 0.023438
v 0.000000 0.085938 -0.007812
v 0.000000 0.085938 -0.015625
v 0.140625 0.085938 0.007812
v 0.140625 0.085938 -0.007812
v -0.031250 -0.070312 -0.015625
v -0.031250 -0.070312 -0.007812
v -0.023438 -0.070312 -0.015625
v -0.023438 -0.070312 -0.007812
v -0.015625 -0.070312 -0.015625
v -0.015625 -0.070312 -0.007812
v -0.007812 -0.070312 -0.015625
v -0.007812 -0.070312 -0.007812
v 0.000000 -0.070312 -0.015625
v 0.000000 -0.070312 -0.007812
v 0.000000 -0.070312 0.000000
v -0.031250 -0.070312 0.015625
v -0.031250 -0.070312 0.000000
v -0.015625 -0.070312 0.000000
v -0.015625 -0.070312 0.007812
v -0.031250 -0.070312 0.007812
v 0.000000 -0.070312 0.007812
v -0.023438 -0.070312 0.007812
v -0.023438 -0.070312 0.015625
v -0.015625 -0.070312 0.015625
v 0.000000 -0.070312 0.015625
v 0.015625 -0.062500 -0.015625
v 0.007812 -0.062500 0.023438
v 0.015625 -0.031250 0.000000
v 0.031250 -0.015625 -0.007812
v 0.031250 -0.015625 0.000000
v 0.046875 -0.015625 -0.007812
v 0.046875 -0.015625 0.007812
v 0.031250 -0.015625 0.007812
v 0.054688 -0.015625 -0.007812
v 0.054688 -0.015625 0.000000
v 0.046875 -0.015625 0.000000
v 0.070312 -0.015625 -0.007812
v 0.070312 -0.015625 0.000000
v 0.085938 -0.015625 -0.007812
v 0.085938 -0.015625 0.000000
v 0.093750 -0.015625 -0.007812
v 0.093750 -0.015625 0.000000
v 0.054688 -0.015625 0.007812
v 0.062500 -0.015625 0.000000
v 0.062500 -0.015625 0.007812
v 0.070312 -0.015625 0.007812
v 0.085938 -0.015625 0.007812
v 0.093750 -0.015625 0.007812
v 0.039062 0.015625 -0.007812
v 0.031250 0.015625 -0.007812
v 0.062500 0.015625 -0.015625
v 0.070312 0.015625 -0.015625
v 0.070312 0.015625 -0.007812
v 0.085938 0.015625 -0.015625
v 0.093750 0.015625 -0.015625
v 0.093750 0.015625 -0.007812
v 0.101562 0.015625 -0.015625
v 0.109375 0.015625 -0.015625
v 0.109375 0.015625 0.000000
v 0.117188 0.015625 -0.015625
v 0.117188 0.015625 0.000000
v 0.125000 0.015625 -0.015625
v 0.125000 0.015625 -0.007812
v 0.117188 0.015625 -0.007812
v 0.132812 0.015625 -0.015625
v 0.132812 0.015625 -0.007812
v 0.140625 0.015625 -0.015625
v 0.140625 0.015625 -0.007812
v 0.140625 0.015625 0.000000
v 0.039062 0.015625 0.000000
v 0.046875 0.015625 -0.007812
v 0.046875 0.015625 0.000000
v 0.070312 0.015625 0.015625
v 0.062500 0.015625 0.015625
v 0.078125 0.015625 -0.007812
v 0.078125 0.015625 0.000000
v 0.070312 0.015625 0.000000
v 0.085938 0.015625 0.015625
v 0.078125 0.015625 0.015625
v 0.125000 0.015625 0.000000
v 0.132812 0.015625 0.000000
v 0.039062 0.015625 0.007812
v 0.054688 0.015625 0.015625
v 0.078125 0.015625 0.007812
v 0.070312 0.015625 0.007812
v 0.109375 0.015625 0.015625
v 0.101562 0.015625 0.015625
v 0.117188 0.015625 0.007812
v 0.109375 0.015625 0.007812
v 0.125000 0.015625 0.007812
v 0.132812 0.015625 0.007812
v 0.140625 0.015625 0.007812
v 0.093750 0.015625 0.007812
v 0.093750 0.015625 0.015625
v 0.117188 0.015625 0.015625
v 0.125000 0.015625 0.015625
v 0.132812 0.015625 0.015625
v 0.140625 0.015625 0.015625
v -0.023438 0.031250 0.000000
v -0.023438 0.031250 0.015625
v -0.023438 0.031250 0.007812
v -0.007812 0.039062 -0.023438
v -0.007812 0.039062 -0.015625
v 0.000000 0.039062 -0.023438
v 0.000000 0.039062 -0.015625
v 0.007812 0.039062 -0.023438
v 0.007812 0.039062 -0.015625
v 0.015625 0.039062 -0.023438
v 0.015625 0.039062 -0.015625
v 0.023438 0.039062 -0.023438
v 0.023438 0.039062 -0.015625
v 0.031250 0.039062 -0.023438
v 0.031250 0.039062 -0.015625
v 0.039062 0.039062 -0.023438
v 0.039062 0.039062 -0.015625
v 0.046875 0.039062 -0.023438
v 0.046875 0.039062 -0.015625
v 0.054688 0.039062 -0.023438
v 0.054688 0.039062 -0.015625
v 0.062500 0.039062 -0.023438
v 0.062500 0.039062 -0.015625
v 0.070312 0.039062 -0.023438
v 0.070312 0.039062 -0.015625
v 0.078125 0.039062 -0.023438
v 0.078125 0.039062 -0.015625
v 0.085938 0.039062 -0.023438
v 0.085938 0.039062 -0.015625
v 0.101562 0.039062 -0.023438
v 0.101562 0.039062 -0.015625
v 0.117188 0.039062 -0.023438
v 0.117188 0.039062 -0.015625
v 0.132812 0.039062 -0.023438
v 0.132812 0.039062 -0.015625
v 0.140625 0.039062 -0.023438
v 0.140625 0.039062 -0.015625
v 0.148438 0.039062 -0.023438
v 0.156250 0.039062 -0.007812
v 0.164062 0.039062 -0.015625
v 0.164062 0.039062 -0.007812
v 0.171875 0.039062 -0.015625
v 0.171875 0.039062 -0.007812
v 0.171875 0.039062 0.000000
v 0.164062 0.039062 0.000000
v 0.156250 0.039062 0.000000
v 0.171875 0.039062 0.007812
v 0.164062 0.039062 0.007812
v 0.156250 0.039062 0.007812
v 0.164062 0.039062 0.015625
v 0.171875 0.039062 0.015625
v -0.007812 0.039062 0.015625
v -0.007812 0.039062 0.023438
v 0.000000 0.039062 0.015625
v 0.000000 0.039062 0.023438
v 0.007812 0.039062 0.015625
v 0.007812 0.039062 0.023438
v 0.015625 0.039062 0.015625
v 0.015625 0.039062 0.023438
v 0.023438 0.039062 0.015625
v 0.023438 0.039062 0.023438
v 0.031250 0.039062 0.015625
v 0.031250 0.039062 0.023438
v 0.046875 0.039062 0.015625
v 0.046875 0.039062 0.023438
v 0.062500 0.039062 0.015625
v 0.062500 0.039062 0.023438
v 0.085938 0.039062 0.015625
v 0.085938 0.039062 0.023438
v 0.101562 0.039062 0.015625
v 0.101562 0.039062 0.023438
v 0.109375 0.039062 0.015625
v 0.109375 0.039062 0.023438
v 0.132812 0.039062 0.015625
v 0.132812 0.039062 0.023438
v 0.140625 0.039062 0.015625
v 0.140625 0.039062 0.023438
v 0.148438 0.039062 0.023438
v -0.023438 0.054688 -0.007812
v -0.023438 0.054688 0.000000
v -0.023438 0.054688 0.007812
v -0.023438 0.062500 0.007812
v -0.023438 0.070312 0.007812
v 0.093750 -0.007812 0.007812
v 0.093750 0.000000 0.007812
v 0.101562 0.000000 0.007812
v 0.101562 0.007812 0.007812
v 0.093750 0.007812 0.007812
v -0.031250 -0.062500 0.015625
v -0.023438 -0.062500 0.015625
v -0.015625 -0.062500 0.015625
v 0.000000 -0.062500 0.015625
v 0.000000 0.031250 0.015625
v -0.007812 0.031250 0.015625
v 0.015625 0.031250 0.015625
v 0.031250 0.031250 0.015625
v 0.023438 0.031250 0.015625
v 0.046875 0.023438 0.015625
v 0.046875 0.031250 0.015625
v 0.039062 0.031250 0.015625
v 0.039062 0.039062 0.015625
v 0.070312 0.023438 0.015625
v 0.062500 0.031250 0.015625
v 0.070312 0.031250 0.015625
v 0.070312 0.039062 0.015625
v 0.078125 0.023438 0.015625
v 0.085938 0.023438 0.015625
v 0.085938 0.031250 0.015625
v 0.093750 0.031250 0.015625
v 0.093750 0.039062 0.015625
v 0.093750 0.023438 0.015625
v 0.101562 0.023438 0.015625
v 0.101562 0.031250 0.015625
v 0.109375 0.023438 0.015625
v 0.117188 0.023438 0.015625
v 0.117188 0.039062 0.015625
v 0.125000 0.023438 0.015625
v 0.125000 0.039062 0.015625
v 0.132812 0.023438 0.015625
v 0.140625 0.023438 0.015625
v 0.140625 0.031250 0.015625
v 0.125000 0.031250 0.015625
v 0.132812 0.031250 0.015625
v 0.164062 0.046875 0.015625
v 0.164062 0.054688 0.015625
v 0.164062 0.062500 0.015625
v 0.171875 0.046875 0.015625
v 0.171875 0.062500 0.015625
v 0.171875 0.054688 0.015625
v -0.015625 -0.054688 0.023438
v -0.015625 -0.046875 0.023438
v -0.023438 -0.046875 0.023438
v -0.023438 -0.039062 0.023438
v -0.015625 -0.039062 0.023438
v -0.015625 -0.031250 0.023438
v -0.015625 -0.015625 0.023438
v -0.007812 -0.054688 0.023438
v -0.007812 -0.046875 0.023438
v -0.007812 -0.039062 0.023438
v -0.007812 -0.031250 0.023438
v -0.007812 -0.023438 0.023438
v -0.015625 -0.023438 0.023438
v -0.007812 -0.015625 0.023438
v -0.007812 -0.007812 0.023438
v -0.007812 0.000000 0.023438
v -0.007812 0.007812 0.023438
v -0.007812 0.046875 0.023438
v -0.007812 0.054688 0.023438
v -0.007812 0.062500 0.023438
v 0.007812 -0.054688 0.023438
v 0.007812 -0.046875 0.023438
v 0.000000 -0.046875 0.023438
v 0.000000 -0.039062 0.023438
v 0.000000 -0.031250 0.023438
v 0.000000 -0.023438 0.023438
v 0.000000 -0.015625 0.023438
v 0.000000 -0.007812 0.023438
v 0.000000 0.000000 0.023438
v 0.000000 0.007812 0.023438
v 0.000000 0.015625 0.023438
v 0.000000 0.046875 0.023438
v 0.000000 0.054688 0.023438
v 0.000000 0.062500 0.023438
v 0.000000 0.070312 0.023438
v 0.007812 -0.039062 0.023438
v 0.007812 -0.031250 0.023438
v 0.007812 -0.023438 0.023438
v 0.007812 -0.015625 0.023438
v 0.007812 -0.007812 0.023438
v 0.007812 0.000000 0.023438
v 0.007812 0.007812 0.023438
v 0.007812 0.015625 0.023438
v 0.015625 0.015625 0.023438
v 0.007812 0.046875 0.023438
v 0.007812 0.070312 0.023438
v 0.015625 -0.023438 0.023438
v 0.015625 -0.015625 0.023438
v 0.015625 -0.007812 0.023438
v 0.015625 0.000000 0.023438
v 0.015625 0.007812 0.023438
v 0.015625 0.046875 0.023438
v 0.015625 0.054688 0.023438
v 0.007812 0.054688 0.023438
v 0.015625 0.062500 0.023438
v 0.007812 0.062500 0.023438
v 0.015625 0.070312 0.023438
v 0.023438 0.000000 0.023438
v 0.023438 0.007812 0.023438
v 0.023438 0.015625 0.023438
v 0.023438 0.046875 0.023438
v 0.023438 0.062500 0.023438
v 0.023438 0.070312 0.023438
v 0.039062 0.070312 0.023438
v 0.031250 0.046875 0.023438
v 0.031250 0.062500 0.023438
v 0.031250 0.070312 0.023438
v 0.046875 0.046875 0.023438
v 0.039062 0.046875 0.023438
v 0.039062 0.062500 0.023438
v 0.054688 0.062500 0.023438
v 0.054688 0.070312 0.023438
v 0.117188 0.046875 0.023438
v 0.117188 0.054688 0.023438
v 0.039062 0.054688 0.023438
v 0.046875 0.054688 0.023438
v 0.046875 0.062500 0.023438
v 0.046875 0.070312 0.023438
v 0.062500 0.046875 0.023438
v 0.062500 0.054688 0.023438
v 0.062500 0.062500 0.023438
v 0.062500 0.070312 0.023438
v 0.085938 0.046875 0.023438
v 0.085938 0.054688 0.023438
v 0.085938 0.062500 0.023438
v 0.070312 0.062500 0.023438
v 0.070312 0.070312 0.023438
v 0.085938 0.070312 0.023438
v 0.101562 0.046875 0.023438
v 0.093750 0.054688 0.023438
v 0.093750 0.062500 0.023438
v 0.093750 0.070312 0.023438
v 0.125000 0.054688 0.023438
v 0.125000 0.062500 0.023438
v 0.101562 0.062500 0.023438
v 0.101562 0.070312 0.023438
v 0.125000 0.070312 0.023438
v 0.109375 0.046875 0.023438
v 0.117188 0.062500 0.023438
v 0.117188 0.070312 0.023438
v 0.132812 0.046875 0.023438
v 0.140625 0.046875 0.023438
v 0.140625 0.054688 0.023438
v 0.132812 0.054688 0.023438
v 0.132812 0.062500 0.023438
v 0.132812 0.070312 0.023438
v 0.140625 0.062500 0.023438
v 0.140625 0.070312 0.023438
v 0.148438 0.046875 0.023438
v 0.148438 0.054688 0.023438
v 0.148438 0.062500 0.023438
v -0.023438 -0.046875 -0.023438
v -0.023438 -0.054688 -0.023438
v -0.023438 -0.039062 -0.023438
v -0.015625 -0.046875 -0.023438
v -0.015625 -0.054688 -0.023438
v -0.015625 -0.039062 -0.023438
v -0.015625 -0.031250 -0.023438
v -0.015625 -0.023438 -0.023438
v -0.015625 -0.015625 -0.023438
v -0.007812 -0.039062 -0.023438
v -0.007812 -0.046875 -0.023438
v -0.007812 -0.031250 -0.023438
v -0.007812 -0.023438 -0.023438
v -0.007812 -0.015625 -0.023438
v -0.007812 -0.007812 -0.023438
v -0.007812 0.007812 -0.023438
v -0.007812 0.046875 -0.023438
v -0.007812 0.062500 -0.023438
v 0.000000 -0.039062 -0.023438
v 0.000000 -0.046875 -0.023438
v 0.000000 -0.031250 -0.023438
v 0.000000 -0.023438 -0.023438
v 0.000000 -0.015625 -0.023438
v 0.000000 -0.007812 -0.023438
v -0.007812 0.000000 -0.023438
v 0.000000 0.000000 -0.023438
v 0.000000 0.007812 -0.023438
v 0.000000 0.015625 -0.023438
v 0.007812 0.015625 -0.023438
v 0.000000 0.046875 -0.023438
v -0.007812 0.054688 -0.023438
v 0.000000 0.054688 -0.023438
v 0.000000 0.062500 -0.023438
v 0.000000 0.070312 -0.023438
v 0.007812 0.070312 -0.023438
v 0.007812 -0.039062 -0.023438
v 0.007812 -0.046875 -0.023438
v 0.007812 -0.031250 -0.023438
v 0.007812 -0.023438 -0.023438
v 0.007812 -0.015625 -0.023438
v 0.007812 -0.007812 -0.023438
v 0.007812 0.000000 -0.023438
v 0.007812 0.007812 -0.023438
v 0.007812 0.046875 -0.023438
v 0.007812 0.054688 -0.023438
v 0.015625 -0.023438 -0.023438
v 0.015625 -0.015625 -0.023438
v 0.015625 -0.007812 -0.023438
v 0.015625 0.000000 -0.023438
v 0.015625 0.007812 -0.023438
v 0.015625 0.015625 -0.023438
v 0.023438 0.015625 -0.023438
v 0.015625 0.046875 -0.023438
v 0.015625 0.054688 -0.023438
v 0.007812 0.062500 -0.023438
v 0.015625 0.062500 -0.023438
v 0.015625 0.070312 -0.023438
v 0.023438 0.000000 -0.023438
v 0.023438 0.007812 -0.023438
v 0.023438 0.046875 -0.023438
v 0.023438 0.054688 -0.023438
v 0.023438 0.070312 -0.023438
v 0.031250 0.046875 -0.023438
v 0.023438 0.062500 -0.023438
v 0.031250 0.062500 -0.023438
v 0.031250 0.070312 -0.023438
v 0.039062 0.046875 -0.023438
v 0.031250 0.054688 -0.023438
v 0.039062 0.054688 -0.023438
v 0.046875 0.062500 -0.023438
v 0.046875 0.054688 -0.023438
v 0.039062 0.070312 -0.023438
v 0.039062 0.062500 -0.023438
v 0.046875 0.046875 -0.023438
v 0.117188 0.054688 -0.023438
v 0.117188 0.046875 -0.023438
v 0.046875 0.070312 -0.023438
v 0.062500 0.070312 -0.023438
v 0.054688 0.046875 -0.023438
v 0.070312 0.062500 -0.023438
v 0.070312 0.054688 -0.023438
v 0.062500 0.062500 -0.023438
v 0.062500 0.046875 -0.023438
v 0.070312 0.046875 -0.023438
v 0.070312 0.070312 -0.023438
v 0.078125 0.046875 -0.023438
v 0.078125 0.070312 -0.023438
v 0.078125 0.054688 -0.023438
v 0.085938 0.046875 -0.023438
v 0.078125 0.062500 -0.023438
v 0.093750 0.062500 -0.023438
v 0.093750 0.054688 -0.023438
v 0.085938 0.070312 -0.023438
v 0.085938 0.062500 -0.023438
v 0.093750 0.070312 -0.023438
v 0.101562 0.046875 -0.023438
v 0.109375 0.070312 -0.023438
v 0.109375 0.062500 -0.023438
v 0.101562 0.062500 -0.023438
v 0.101562 0.054688 -0.023438
v 0.101562 0.070312 -0.023438
v 0.109375 0.054688 -0.023438
v 0.117188 0.070312 -0.023438
v 0.132812 0.046875 -0.023438
v 0.140625 0.054688 -0.023438
v 0.140625 0.046875 -0.023438
v 0.117188 0.062500 -0.023438
v 0.125000 0.062500 -0.023438
v 0.125000 0.054688 -0.023438
v 0.125000 0.070312 -0.023438
v 0.148438 0.062500 -0.023438
v 0.148438 0.054688 -0.023438
v 0.132812 0.070312 -0.023438
v 0.132812 0.062500 -0.023438
v 0.140625 0.070312 -0.023438
v 0.140625 0.062500 -0.023438
v 0.148438 0.046875 -0.023438
v -0.031250 -0.062500 -0.015625
v -0.023438 -0.062500 -0.015625
v 0.000000 0.031250 -0.015625
v -0.015625 -0.062500 -0.015625
v -0.007812 -0.062500 -0.015625
v -0.007812 0.031250 -0.015625
v 0.000000 -0.062500 -0.015625
v 0.000000 0.023438 -0.015625
v 0.000000 0.078125 -0.015625
v 0.031250 0.031250 -0.015625
v 0.015625 0.031250 -0.015625
v 0.023438 0.031250 -0.015625
v 0.039062 0.031250 -0.015625
v 0.062500 0.023438 -0.015625
v 0.054688 0.031250 -0.015625
v 0.054688 0.023438 -0.015625
v 0.062500 0.031250 -0.015625
v 0.078125 0.031250 -0.015625
v 0.070312 0.023438 -0.015625
v 0.070312 0.031250 -0.015625
v 0.085938 0.023438 -0.015625
v 0.078125 0.023438 -0.015625
v 0.093750 0.023438 -0.015625
v 0.093750 0.039062 -0.015625
v 0.101562 0.023438 -0.015625
v 0.093750 0.031250 -0.015625
v 0.101562 0.031250 -0.015625
v 0.109375 0.023438 -0.015625
v 0.109375 0.031250 -0.015625
v 0.109375 0.039062 -0.015625
v 0.117188 0.023438 -0.015625
v 0.125000 0.031250 -0.015625
v 0.125000 0.023438 -0.015625
v 0.117188 0.031250 -0.015625
v 0.140625 0.031250 -0.015625
v 0.132812 0.023438 -0.015625
v 0.140625 0.023438 -0.015625
v 0.164062 0.046875 -0.015625
v 0.164062 0.062500 -0.015625
v 0.171875 0.046875 -0.015625
v 0.171875 0.062500 -0.015625
v 0.171875 0.054688 -0.015625
v -0.023438 0.062500 -0.007812
v -0.023438 0.070312 -0.007812
v -0.015625 0.062500 -0.007812
v 0.093750 -0.007812 -0.007812
v 0.093750 0.007812 -0.007812
v 0.140625 0.078125 -0.007812
vt 0.843750 0.300000
vt 0.906250 0.300000
vt 0.093750 0.700000
vt 0.968750 0.900000
vt 0.218750 0.900000
vt 0.781250 0.100000
vt 0.281250 0.500000
vt 0.343750 0.700000
vt 0.406250 0.500000
vt 0.281250 0.700000
vt 0.406250 0.700000
vt 0.843750 0.700000
vt 0.156250 0.700000
vt 0.656250 0.700000
vt 0.156250 0.500000
vt 0.968750 0.700000
vt 0.031250 0.500000
vt 0.531250 0.100000
vt 0.593750 0.100000
vt 0.968750 0.300000
vt 0.093750 0.100000
vt 0.406250 0.100000
vt 0.343750 0.100000
vt 0.281250 0.900000
vt 0.468750 0.900000
vt 0.593750 0.500000
vt 0.468750 0.500000
vt 0.843750 0.100000
vt 0.781250 0.700000
vt 0.593750 0.700000
vt 0.218750 0.500000
vt 0.093750 0.500000
vt 0.343750 0.500000
vt 0.656250 0.300000
vt 0.781250 0.300000
vt 0.218750 0.100000
vt 0.468750 0.100000
vt 0.031250 0.900000
vt 0.093750 0.900000
vt 0.906250 0.500000
vt 0.718750 0.500000
vt 0.656250 0.500000
vt 0.531250 0.700000
vt 0.718750 0.700000
vt 0.468750 0.700000
vt 0.218750 0.300000
vt 0.593750 0.300000
vt 0.531250 0.500000
vt 0.781250 0.500000
vt 0.468750 0.300000
vt 0.843750 0.500000
vt 0.343750 0.900000
vt 0.218750 0.700000
vt 0.656250 0.100000
vt 0.718750 0.300000
vt 0.406250 0.900000
vt 0.531250 0.900000
vt 0.656250 0.900000
vt 0.906250 0.700000
vt 0.968750 0.500000
vt 0.718750 0.900000
vt 0.406250 0.300000
vt 0.031250 0.100000
vt 0.343750 0.300000
vt 0.281250 0.100000
vt 0.156250 0.300000
vt 0.156250 0.100000
vt 0.031250 0.700000
vt 0.906250 0.900000
vt 0.531250 0.300000
vt 0.843750 0.900000
vt 0.156250 0.900000
vt 0.718750 0.100000
vn 1 0 0
vn -1 0 0
vn 0 1 0
vn 0 -1 0
vn 0 0 1
vn 0 0 -1
usemtl spark_pistol
s off
f 1/1/1 2/1/1 3/1/1 4/1/1
f 4/2/1 3/2/1 5/2/1 6/2/1
f 7/3/1 8/3/1 9/3/1 10/3/1
f 10/4/1 9/4/1 11/4/1 12/4/1
f 12/3/1 11/3/1 13/3/1 14/3/1
f 15/5/1 16/5/1 17/5/1 18/5/1
f 19/5/1 20/5/1 21/5/1 22/5/1
f 23/6/1 24/6/1 25/6/1 26/6/1
f 24/7/1 27/7/1 28/7/1 29/7/1
f 29/8/1 28/8/1 30/8/1 31/8/1
f 31/7/1 30/7/1 32/7/1 25/7/1
f 27/9/1 33/9/1 34/9/1 28/9/1
f 28/10/1 34/10/1 35/10/1 36/10/1
f 36/10/1 37/10/1 38/10/1 39/10/1
f 39/11/1 38/11/1 40/11/1 41/11/1
f 41/8/1 42/8/1 43/8/1 30/8/1
f 30/9/1 44/9/1 45/9/1 32/9/1
f 37/8/1 35/8/1 42/8/1 40/8/1
f 44/7/1 43/7/1 46/7/1 45/7/1
f 47/12/1 48/12/1 49/12/1 50/12/1
f 50/4/1 49/4/1 51/4/1 52/4/1
f 52/13/1 51/13/1 53/13/1 54/13/1
f 54/3/1 53/3/1 55/3/1 56/3/1
f 56/4/1 55/4/1 57/4/1 58/4/1
f 58/14/1 57/14/1 59/14/1 60/14/1
f 48/7/1 61/7/1 62/7/1 49/7/1
f 49/11/1 63/11/1 64/11/1 51/11/1
f 51/11/1 65/11/1 66/11/1 53/11/1
f 53/10/1 66/10/1 67/10/1 55/10/1
f 55/8/1 67/8/1 68/8/1 57/8/1
f 57/9/1 68/9/1 69/9/1 59/9/1
f 61/15/1 70/15/1 63/15/1 62/15/1
f 67/11/1 71/11/1 72/11/1 68/11/1
f 68/7/1 72/7/1 73/7/1 69/7/1
f 74/16/1 75/16/1 76/16/1 77/16/1
f 77/4/1 76/4/1 78/4/1 79/4/1
f 79/8/1 78/8/1 80/8/1 81/8/1
f 81/11/1 80/11/1 82/11/1 83/11/1
f 83/3/1 82/3/1 84/3/1 85/3/1
f 85/16/1 84/16/1 86/16/1 87/16/1
f 75/7/1 88/7/1 89/7/1 76/7/1
f 76/11/1 89/11/1 90/11/1 80/11/1
f 80/10/1 91/10/1 92/10/1 82/10/1
f 82/8/1 92/8/1 93/8/1 84/8/1
f 84/7/1 94/7/1 95/7/1 86/7/1
f 88/15/1 96/15/1 97/15/1 89/15/1
f 89/10/1 97/10/1 91/10/1 90/10/1
f 94/15/1 93/15/1 98/15/1 95/15/1
f 99/17/1 100/17/1 101/17/1 102/17/1
f 103/15/1 104/15/1 105/15/1 106/15/1
f 107/18/1 108/18/1 109/18/1 110/18/1
f 110/19/1 109/19/1 111/19/1 112/19/1
f 113/20/1 114/20/1 115/20/1 116/20/1
f 116/21/1 115/21/1 117/21/1 118/21/1
f 114/22/1 119/22/1 120/22/1 115/22/1
f 115/23/1 120/23/1 121/23/1 117/23/1
f 122/13/1 123/13/1 124/13/1 125/13/1
f 125/3/1 124/3/1 126/3/1 127/3/1
f 123/10/1 128/10/1 129/10/1 124/10/1
f 124/8/1 130/8/1 131/8/1 126/8/1
f 128/8/1 132/8/1 130/8/1 129/8/1
f 133/24/1 134/24/1 135/24/1 136/24/1
f 136/25/1 135/25/1 137/25/1 138/25/1
f 138/24/1 137/24/1 139/24/1 140/24/1
f 134/11/1 141/11/1 142/11/1 135/11/1
f 135/8/1 143/8/1 144/8/1 137/8/1
f 137/10/1 145/10/1 146/10/1 139/10/1
f 141/10/1 147/10/1 148/10/1 149/10/1
f 149/8/1 148/8/1 143/8/1 142/8/1
f 145/8/1 144/8/1 150/8/1 146/8/1
f 151/26/1 152/26/1 153/26/1 154/26/1
f 155/27/1 156/27/1 157/27/1 158/27/1
f 159/28/1 160/28/1 161/28/1 162/28/1
f 163/29/1 164/29/1 165/29/1 166/29/1
f 167/30/1 168/30/1 169/30/1 170/30/1
f 164/31/1 171/31/1 172/31/1 165/31/1
f 168/32/1 173/32/1 174/32/1 169/32/1
f 171/32/1 175/32/1 176/32/1 172/32/1
f 173/33/1 177/33/1 178/33/1 174/33/1
f 175/27/1 179/27/1 180/27/1 176/27/1
f 177/27/1 181/27/1 182/27/1 178/27/1
f 180/34/1 183/34/1 184/34/1 185/34/1
f 185/35/1 184/35/1 186/35/1 187/35/1
f 187/34/1 186/34/1 188/34/1 189/34/1
f 189/35/1 188/35/1 190/35/1 181/35/1
f 191/21/1 192/21/1 193/21/1 194/21/1
f 194/20/1 193/20/1 195/20/1 196/20/1
f 196/36/1 195/36/1 197/36/1 198/36/1
f 192/37/1 199/37/1 200/37/1 201/37/1
f 201/38/1 200/38/1 202/38/1 193/38/1
f 193/39/1 202/39/1 203/39/1 195/39/1
f 195/23/1 203/23/1 204/23/1 197/23/1
f 199/23/1 205/23/1 206/23/1 200/23/1
f 200/39/1 206/39/1 207/39/1 202/39/1
f 202/38/1 207/38/1 208/38/1 203/38/1
f 203/22/1 208/22/1 209/22/1 204/22/1
f 205/19/1 210/19/1 211/19/1 207/19/1
f 207/18/1 211/18/1 212/18/1 209/18/1
f 213/13/2 214/13/2 215/13/2 216/13/2
f 217/3/2 218/3/2 214/3/2 213/3/2
f 219/6/2 220/6/2 221/6/2 222/6/2
f 223/40/2 224/40/2 225/40/2 226/40/2
f 227/41/2 228/41/2 224/41/2 223/41/2
f 224/1/2 229/1/2 230/1/2 225/1/2
f 228/2/2 231/2/2 229/2/2 224/2/2
f 232/7/2 233/7/2 234/7/2 235/7/2
f 236/11/2 237/11/2 233/11/2 232/11/2
f 238/8/2 239/8/2 237/8/2 236/8/2
f 240/7/2 241/7/2 239/7/2 238/7/2
f 233/15/2 242/15/2 243/15/2 234/15/2
f 244/10/2 245/10/2 242/10/2 233/10/2
f 237/8/2 246/8/2 245/8/2 244/8/2
f 247/10/2 248/10/2 246/10/2 237/10/2
f 239/11/2 249/11/2 248/11/2 247/11/2
f 241/15/2 250/15/2 249/15/2 239/15/2
f 242/42/2 251/42/2 252/42/2 243/42/2
f 246/43/2 253/43/2 251/43/2 242/43/2
f 248/44/2 254/44/2 253/44/2 246/44/2
f 249/45/2 255/45/2 254/45/2 248/45/2
f 250/42/2 256/42/2 255/42/2 249/42/2
f 257/10/2 258/10/2 259/10/2 260/10/2
f 261/8/2 262/8/2 258/8/2 257/8/2
f 263/10/2 264/10/2 262/10/2 261/10/2
f 265/41/2 266/41/2 267/41/2 268/41/2
f 269/40/2 270/40/2 266/40/2 265/40/2
f 266/46/2 271/46/2 272/46/2 267/46/2
f 270/47/2 273/47/2 271/47/2 266/47/2
f 274/15/2 275/15/2 276/15/2 277/15/2
f 278/8/2 279/8/2 280/8/2 274/8/2
f 281/8/2 282/8/2 283/8/2 278/8/2
f 284/10/2 285/10/2 286/10/2 281/10/2
f 287/10/2 288/10/2 289/10/2 284/10/2
f 290/7/2 291/7/2 292/7/2 287/7/2
f 275/7/2 280/7/2 293/7/2 276/7/2
f 282/10/2 286/10/2 279/10/2 283/10/2
f 288/11/2 292/11/2 285/11/2 289/11/2
f 280/42/2 294/42/2 295/42/2 293/42/2
f 279/45/2 296/45/2 294/45/2 280/45/2
f 286/43/2 297/43/2 296/43/2 279/43/2
f 285/45/2 298/45/2 297/45/2 286/45/2
f 292/43/2 299/43/2 298/43/2 285/43/2
f 291/48/2 300/48/2 299/48/2 292/48/2
f 301/9/2 302/9/2 303/9/2 304/9/2
f 305/8/2 306/8/2 302/8/2 301/8/2
f 307/10/2 308/10/2 309/10/2 305/10/2
f 310/8/2 311/8/2 308/8/2 307/8/2
f 312/7/2 313/7/2 311/7/2 310/7/2
f 308/8/2 314/8/2 306/8/2 309/8/2
f 315/10/2 316/10/2 314/10/2 308/10/2
f 311/8/2 317/8/2 316/8/2 315/8/2
f 313/15/2 318/15/2 317/15/2 311/15/2
f 302/48/2 319/48/2 320/48/2 303/48/2
f 314/11/2 321/11/2 319/11/2 302/11/2
f 316/8/2 322/8/2 323/8/2 314/8/2
f 317/11/2 324/11/2 325/11/2 316/11/2
f 318/42/2 326/42/2 324/42/2 317/42/2
f 327/8/2 328/8/2 329/8/2 319/8/2
f 321/11/2 330/11/2 328/11/2 327/11/2
f 324/10/2 331/10/2 332/10/2 325/10/2
f 328/10/2 333/10/2 334/10/2 329/10/2
f 330/8/2 323/8/2 333/8/2 328/8/2
f 331/8/2 335/8/2 322/8/2 332/8/2
f 336/29/2 337/29/2 338/29/2 339/29/2
f 340/31/2 341/31/2 337/31/2 336/31/2
f 342/33/2 343/33/2 341/33/2 340/33/2
f 344/30/2 345/30/2 343/30/2 342/30/2
f 337/31/2 346/31/2 347/31/2 338/31/2
f 341/33/2 348/33/2 349/33/2 337/33/2
f 350/31/2 351/31/2 348/31/2 341/31/2
f 343/32/2 352/32/2 351/32/2 350/32/2
f 345/33/2 353/33/2 352/33/2 343/33/2
f 348/32/2 354/32/2 355/32/2 349/32/2
f 353/31/2 356/31/2 357/31/2 358/31/2
f 346/27/2 355/27/2 359/27/2 347/27/2
f 360/32/2 361/32/2 362/32/2 357/32/2
f 356/49/2 363/49/2 361/49/2 360/49/2
f 354/50/2 364/50/2 365/50/2 355/50/2
f 361/34/2 366/34/2 367/34/2 362/34/2
f 368/51/2 369/51/2 370/51/2 371/51/2
f 372/48/2 373/48/2 374/48/2 375/48/2
f 376/49/2 377/49/2 378/49/2 379/49/2
f 380/27/2 381/27/2 382/27/2 383/27/2
f 384/52/2 385/52/2 386/52/2 377/52/2
f 382/5/2 387/5/2 388/5/2 389/5/2
f 390/18/2 391/18/2 392/18/2 393/18/2
f 394/19/2 395/19/2 391/19/2 390/19/2
f 109/20/2 396/20/2 397/20/2 108/20/2
f 111/21/2 398/21/2 396/21/2 109/21/2
f 396/22/2 399/22/2 400/22/2 397/22/2
f 398/23/2 401/23/2 399/23/2 396/23/2
f 402/8/2 403/8/2 404/8/2 405/8/2
f 406/10/2 407/10/2 408/10/2 402/10/2
f 407/8/2 409/8/2 410/8/2 408/8/2
f 409/11/2 411/11/2 403/11/2 410/11/2
f 412/52/2 413/52/2 414/52/2 415/52/2
f 221/6/3 220/6/3 240/6/3 235/6/3
f 252/42/3 251/42/3 274/42/3 277/42/3
f 251/43/3 253/43/3 281/43/3 274/43/3
f 253/44/3 254/44/3 284/44/3 281/44/3
f 254/45/3 255/45/3 287/45/3 284/45/3
f 255/42/3 256/42/3 290/42/3 287/42/3
f 295/42/3 294/42/3 301/42/3 304/42/3
f 294/45/3 296/45/3 305/45/3 301/45/3
f 296/43/3 297/43/3 307/43/3 305/43/3
f 79/53/3 83/53/3 394/53/3 393/53/3
f 107/53/3 110/53/3 416/53/3 417/53/3
f 417/8/3 416/8/3 402/8/3 405/8/3
f 297/45/3 298/45/3 418/45/3 307/45/3
f 110/10/3 112/10/3 419/10/3 420/10/3
f 420/8/3 419/8/3 421/8/3 416/8/3
f 416/10/3 421/10/3 406/10/3 402/10/3
f 298/43/3 299/43/3 310/43/3 418/43/3
f 299/48/3 300/48/3 312/48/3 310/48/3
f 392/18/3 391/18/3 109/18/3 108/18/3
f 391/19/3 395/19/3 111/19/3 109/19/3
f 320/48/3 319/48/3 368/48/3 371/48/3
f 324/42/3 326/42/3 372/42/3 375/42/3
f 370/51/3 369/51/3 422/51/3 423/51/3
f 423/42/3 422/42/3 424/42/3 425/42/3
f 425/51/3 424/51/3 426/51/3 427/51/3
f 427/17/3 426/17/3 101/17/3 100/17/3
f 374/48/3 373/48/3 428/48/3 429/48/3
f 429/42/3 428/42/3 430/42/3 431/42/3
f 431/51/3 430/51/3 432/51/3 433/51/3
f 433/42/3 432/42/3 434/42/3 435/42/3
f 435/15/3 434/15/3 105/15/3 104/15/3
f 259/10/3 258/10/3 340/10/3 336/10/3
f 258/8/3 262/8/3 436/8/3 340/8/3
f 262/10/3 264/10/3 437/10/3 438/10/3
f 438/10/3 439/10/3 440/10/3 436/10/3
f 439/8/3 437/8/3 342/8/3 440/8/3
f 359/27/3 355/27/3 376/27/3 379/27/3
f 151/27/3 154/27/3 180/27/3 179/27/3
f 180/19/3 189/19/3 441/19/3 442/19/3
f 442/2/3 443/2/3 444/2/3 445/2/3
f 445/19/3 446/19/3 211/19/3 210/19/3
f 446/18/3 444/18/3 212/18/3 211/18/3
f 189/54/3 181/54/3 443/54/3 441/54/3
f 361/49/3 363/49/3 380/49/3 383/49/3
f 155/27/3 158/27/3 182/27/3 181/27/3
f 378/49/3 377/49/3 15/49/3 447/49/3
f 447/26/3 15/26/3 448/26/3 449/26/3
f 449/27/3 448/27/3 450/27/3 451/27/3
f 451/26/3 450/26/3 452/26/3 453/26/3
f 453/49/3 452/49/3 454/49/3 455/49/3
f 455/26/3 454/26/3 456/26/3 457/26/3
f 457/49/3 456/49/3 458/49/3 459/49/3
f 459/26/3 458/26/3 460/26/3 461/26/3
f 461/27/3 460/27/3 462/27/3 463/27/3
f 463/49/3 462/49/3 464/49/3 465/49/3
f 465/26/3 464/26/3 466/26/3 467/26/3
f 467/27/3 466/27/3 468/27/3 469/27/3
f 469/26/3 468/26/3 470/26/3 471/26/3
f 471/27/3 470/27/3 472/27/3 473/27/3
f 473/49/3 472/49/3 474/49/3 475/49/3
f 475/26/3 474/26/3 153/26/3 152/26/3
f 365/50/3 476/50/3 477/50/3 377/50/3
f 15/34/3 18/34/3 478/34/3 454/34/3
f 454/50/3 478/50/3 479/50/3 480/50/3
f 480/34/3 479/34/3 481/34/3 482/34/3
f 482/35/3 481/35/3 483/35/3 456/35/3
f 456/34/3 484/34/3 485/34/3 458/34/3
f 458/50/3 486/50/3 487/50/3 488/50/3
f 488/34/3 489/34/3 490/34/3 462/34/3
f 462/35/3 491/35/3 492/35/3 464/35/3
f 464/50/3 493/50/3 494/50/3 466/50/3
f 466/34/3 494/34/3 495/34/3 470/34/3
f 470/50/3 495/50/3 415/50/3 472/50/3
f 472/35/3 415/35/3 159/35/3 153/35/3
f 153/34/3 159/34/3 184/34/3 183/34/3
f 1/55/3 4/55/3 476/55/3 364/55/3
f 384/34/3 389/34/3 496/34/3 497/34/3
f 497/50/3 498/50/3 499/50/3 18/50/3
f 18/35/3 499/35/3 500/35/3 501/35/3
f 501/34/3 500/34/3 502/34/3 503/34/3
f 503/50/3 502/50/3 504/50/3 478/50/3
f 478/34/3 505/34/3 506/34/3 479/34/3
f 479/35/3 507/35/3 508/35/3 481/35/3
f 481/50/3 508/50/3 484/50/3 483/50/3
f 486/35/3 485/35/3 509/35/3 510/35/3
f 510/34/3 509/34/3 511/34/3 487/34/3
f 493/34/3 492/34/3 512/34/3 494/34/3
f 494/35/3 512/35/3 513/35/3 514/35/3
f 514/50/3 513/50/3 515/50/3 495/50/3
f 495/35/3 515/35/3 516/35/3 415/35/3
f 159/35/3 517/35/3 186/35/3 184/35/3
f 4/2/3 6/2/3 367/2/3 476/2/3
f 476/34/3 366/34/3 382/34/3 477/34/3
f 498/34/3 496/34/3 518/34/3 500/34/3
f 500/50/3 518/50/3 519/50/3 520/50/3
f 520/34/3 521/34/3 522/34/3 502/34/3
f 502/34/3 523/34/3 524/34/3 504/34/3
f 507/50/3 506/50/3 525/50/3 508/50/3
f 508/34/3 526/34/3 527/34/3 484/34/3
f 484/50/3 527/50/3 528/50/3 511/50/3
f 491/34/3 529/34/3 530/34/3 492/34/3
f 492/50/3 530/50/3 531/50/3 513/50/3
f 513/35/3 531/35/3 532/35/3 515/35/3
f 515/34/3 532/34/3 412/34/3 516/34/3
f 517/34/3 162/34/3 188/34/3 186/34/3
f 19/34/3 22/34/3 521/34/3 519/34/3
f 523/50/3 522/50/3 505/50/3 524/50/3
f 526/50/3 525/50/3 533/50/3 527/50/3
f 527/34/3 533/34/3 534/34/3 535/34/3
f 535/35/3 534/35/3 489/35/3 528/35/3
f 529/35/3 490/35/3 536/35/3 531/35/3
f 531/34/3 536/34/3 537/34/3 532/34/3
f 532/50/3 537/50/3 538/50/3 412/50/3
f 412/35/3 538/35/3 539/35/3 540/35/3
f 540/50/3 539/50/3 156/50/3 162/50/3
f 162/35/3 156/35/3 190/35/3 188/35/3
f 382/27/3 381/27/3 541/27/3 542/27/3
f 542/26/3 541/26/3 543/26/3 22/26/3
f 22/49/3 543/49/3 544/49/3 545/49/3
f 545/26/3 544/26/3 546/26/3 505/26/3
f 505/27/3 546/27/3 547/27/3 506/27/3
f 506/26/3 547/26/3 548/26/3 525/26/3
f 525/49/3 548/49/3 549/49/3 533/49/3
f 533/27/3 549/27/3 550/27/3 551/27/3
f 551/26/3 550/26/3 552/26/3 489/26/3
f 489/49/3 552/49/3 553/49/3 490/49/3
f 490/26/3 553/26/3 554/26/3 537/26/3
f 537/49/3 554/49/3 555/49/3 538/49/3
f 538/26/3 555/26/3 556/26/3 539/26/3
f 539/27/3 556/27/3 157/27/3 156/27/3
f 386/52/3 385/52/3 557/52/3 558/52/3
f 558/5/3 557/5/3 17/5/3 16/5/3
f 230/1/3 229/1/3 3/1/3 2/1/3
f 414/52/3 413/52/3 559/52/3 560/52/3
f 560/28/3 559/28/3 161/28/3 160/28/3
f 229/2/3 231/2/3 5/2/3 3/2/3
f 388/5/3 387/5/3 21/5/3 20/5/3
f 561/13/4 562/13/4 213/13/4 216/13/4
f 563/4/4 564/4/4 562/4/4 561/4/4
f 565/13/4 566/13/4 564/13/4 563/13/4
f 567/4/4 568/4/4 566/4/4 565/4/4
f 569/13/4 570/13/4 568/13/4 567/13/4
f 7/3/4 10/3/4 571/3/4 569/3/4
f 562/3/4 572/3/4 217/3/4 213/3/4
f 570/3/4 571/3/4 573/3/4 562/3/4
f 574/4/4 575/4/4 576/4/4 573/4/4
f 571/3/4 577/3/4 575/3/4 574/3/4
f 10/4/4 12/4/4 577/4/4 571/4/4
f 578/13/4 579/13/4 572/13/4 576/13/4
f 575/3/4 580/3/4 579/3/4 578/3/4
f 577/13/4 581/13/4 580/13/4 575/13/4
f 12/3/4 14/3/4 581/3/4 577/3/4
f 23/6/4 582/6/4 215/6/4 222/6/4
f 582/6/4 26/6/4 583/6/4 8/6/4
f 13/6/4 583/6/4 219/6/4 218/6/4
f 47/12/4 50/12/4 34/12/4 33/12/4
f 50/4/4 52/4/4 35/4/4 34/4/4
f 52/13/4 54/13/4 584/13/4 35/13/4
f 54/3/4 56/3/4 42/3/4 584/3/4
f 56/4/4 58/4/4 43/4/4 42/4/4
f 58/14/4 60/14/4 46/14/4 43/14/4
f 585/4/4 586/4/4 66/4/4 65/4/4
f 587/53/4 588/53/4 589/53/4 585/53/4
f 590/4/4 591/4/4 592/4/4 587/4/4
f 593/53/4 594/53/4 591/53/4 590/53/4
f 595/8/4 596/8/4 594/8/4 593/8/4
f 597/3/4 598/3/4 596/3/4 595/3/4
f 122/13/4 125/13/4 598/13/4 597/13/4
f 586/13/4 589/13/4 67/13/4 66/13/4
f 591/3/4 599/3/4 588/3/4 592/3/4
f 600/10/4 601/10/4 599/10/4 591/10/4
f 594/8/4 602/8/4 601/8/4 600/8/4
f 596/10/4 603/10/4 602/10/4 594/10/4
f 598/4/4 604/4/4 603/4/4 596/4/4
f 125/3/4 127/3/4 604/3/4 598/3/4
f 74/16/4 77/16/4 63/16/4 70/16/4
f 77/4/4 79/4/4 64/4/4 63/4/4
f 83/3/4 85/3/4 72/3/4 71/3/4
f 85/16/4 87/16/4 73/16/4 72/16/4
f 113/20/4 116/20/4 109/20/4 108/20/4
f 116/21/4 118/21/4 111/21/4 109/21/4
f 99/17/4 102/17/4 97/17/4 96/17/4
f 102/4/4 605/4/4 606/4/4 97/4/4
f 607/3/4 119/3/4 605/3/4 102/3/4
f 608/4/4 609/4/4 119/4/4 607/4/4
f 610/3/4 404/3/4 609/3/4 608/3/4
f 611/4/4 612/4/4 404/4/4 610/4/4
f 613/56/4 132/56/4 612/56/4 611/56/4
f 614/3/4 615/3/4 130/3/4 613/3/4
f 616/24/4 617/24/4 615/24/4 614/24/4
f 618/4/4 619/4/4 620/4/4 616/4/4
f 621/24/4 622/24/4 619/24/4 618/24/4
f 623/3/4 624/3/4 622/3/4 621/3/4
f 133/24/4 136/24/4 625/24/4 623/24/4
f 605/3/4 626/3/4 91/3/4 606/3/4
f 627/13/4 628/13/4 626/13/4 605/13/4
f 400/4/4 399/4/4 628/4/4 627/4/4
f 609/3/4 629/3/4 630/3/4 119/3/4
f 631/13/4 632/13/4 633/13/4 609/13/4
f 404/3/4 634/3/4 635/3/4 631/3/4
f 619/13/4 636/13/4 617/13/4 620/13/4
f 622/56/4 637/56/4 636/56/4 619/56/4
f 624/4/4 625/4/4 637/4/4 622/4/4
f 626/13/4 638/13/4 92/13/4 91/13/4
f 399/3/4 639/3/4 103/3/4 626/3/4
f 632/3/4 640/3/4 641/3/4 633/3/4
f 615/13/4 642/13/4 643/13/4 130/13/4
f 617/56/4 644/56/4 645/56/4 615/56/4
f 636/3/4 646/3/4 644/3/4 617/3/4
f 637/24/4 647/24/4 646/24/4 636/24/4
f 625/3/4 648/3/4 647/3/4 637/3/4
f 136/25/4 138/25/4 648/25/4 625/25/4
f 638/3/4 103/3/4 93/3/4 92/3/4
f 121/3/4 630/3/4 639/3/4 401/3/4
f 640/13/4 635/13/4 629/13/4 641/13/4
f 649/13/4 650/13/4 634/13/4 411/13/4
f 131/56/4 643/56/4 650/56/4 649/56/4
f 644/24/4 651/24/4 642/24/4 645/24/4
f 646/13/4 652/13/4 651/13/4 644/13/4
f 647/56/4 653/56/4 652/56/4 646/56/4
f 648/13/4 654/13/4 653/13/4 647/13/4
f 138/24/4 140/24/4 654/24/4 648/24/4
f 103/15/4 106/15/4 98/15/4 93/15/4
f 334/10/4 333/10/4 257/10/4 260/10/4
f 333/8/4 323/8/4 261/8/4 257/8/4
f 655/10/4 656/10/4 263/10/4 261/10/4
f 323/10/4 322/10/4 657/10/4 655/10/4
f 322/8/4 335/8/4 656/8/4 657/8/4
f 658/29/4 659/29/4 336/29/4 339/29/4
f 660/57/4 661/57/4 659/57/4 658/57/4
f 662/29/4 663/29/4 661/29/4 660/29/4
f 664/57/4 665/57/4 663/57/4 662/57/4
f 666/29/4 667/29/4 665/29/4 664/29/4
f 668/58/4 669/58/4 667/58/4 666/58/4
f 670/29/4 671/29/4 669/29/4 668/29/4
f 672/30/4 673/30/4 671/30/4 670/30/4
f 674/29/4 675/29/4 673/29/4 672/29/4
f 676/30/4 677/30/4 675/30/4 674/30/4
f 678/59/4 679/59/4 677/59/4 676/59/4
f 680/30/4 681/30/4 679/30/4 678/30/4
f 682/29/4 683/29/4 681/29/4 680/29/4
f 684/30/4 685/30/4 683/30/4 682/30/4
f 686/59/4 687/59/4 685/59/4 684/59/4
f 688/30/4 689/30/4 687/30/4 686/30/4
f 690/29/4 691/29/4 689/29/4 688/29/4
f 692/30/4 147/30/4 691/30/4 690/30/4
f 163/29/4 166/29/4 147/29/4 692/29/4
f 166/59/4 693/59/4 148/59/4 147/59/4
f 694/36/4 695/36/4 693/36/4 166/36/4
f 696/41/4 697/41/4 695/41/4 694/41/4
f 191/21/4 194/21/4 698/21/4 696/21/4
f 693/29/4 167/29/4 150/29/4 148/29/4
f 695/21/4 699/21/4 700/21/4 693/21/4
f 697/40/4 701/40/4 702/40/4 695/40/4
f 699/36/4 702/36/4 703/36/4 700/36/4
f 194/20/4 196/20/4 701/20/4 698/20/4
f 702/21/4 704/21/4 167/21/4 703/21/4
f 701/60/4 705/60/4 704/60/4 702/60/4
f 196/36/4 198/36/4 705/36/4 701/36/4
f 706/30/4 707/30/4 344/30/4 342/30/4
f 708/58/4 709/58/4 707/58/4 706/58/4
f 710/29/4 711/29/4 709/29/4 708/29/4
f 712/57/4 713/57/4 711/57/4 710/57/4
f 714/30/4 715/30/4 713/30/4 712/30/4
f 716/61/4 717/61/4 715/61/4 714/61/4
f 718/30/4 719/30/4 717/30/4 716/30/4
f 720/59/4 721/59/4 719/59/4 718/59/4
f 722/29/4 723/29/4 721/29/4 720/29/4
f 724/59/4 725/59/4 723/59/4 722/59/4
f 726/30/4 727/30/4 725/30/4 724/30/4
f 728/59/4 729/59/4 727/59/4 726/59/4
f 730/29/4 731/29/4 729/29/4 728/29/4
f 150/59/4 732/59/4 731/59/4 730/59/4
f 167/30/4 170/30/4 732/30/4 150/30/4
f 733/41/4 734/41/4 265/41/4 268/41/4
f 348/40/4 351/40/4 734/40/4 733/40/4
f 734/40/4 735/40/4 269/40/4 265/40/4
f 351/41/4 358/41/4 735/41/4 734/41/4
f 272/40/4 271/40/4 223/40/4 226/40/4
f 271/41/4 273/41/4 227/41/4 223/41/4
f 384/52/5 497/52/5 557/52/5 385/52/5
f 497/5/5 18/5/5 17/5/5 557/5/5
f 227/41/5 273/41/5 6/41/5 228/41/5
f 228/2/5 6/2/5 5/2/5 231/2/5
f 269/40/5 735/40/5 736/40/5 270/40/5
f 270/47/5 736/47/5 737/47/5 273/47/5
f 273/2/5 362/2/5 367/2/5 6/2/5
f 735/41/5 358/41/5 357/41/5 736/41/5
f 736/62/5 357/62/5 362/62/5 737/62/5
f 67/13/5 589/13/5 83/13/5 71/13/5
f 589/53/5 588/53/5 394/53/5 83/53/5
f 588/3/5 599/3/5 112/3/5 394/3/5
f 394/19/5 112/19/5 111/19/5 395/19/5
f 599/10/5 601/10/5 419/10/5 112/10/5
f 111/21/5 118/21/5 117/21/5 398/21/5
f 398/23/5 117/23/5 121/23/5 401/23/5
f 601/8/5 602/8/5 421/8/5 419/8/5
f 602/10/5 603/10/5 406/10/5 421/10/5
f 603/4/5 604/4/5 738/4/5 406/4/5
f 406/10/5 738/10/5 739/10/5 407/10/5
f 407/8/5 740/8/5 741/8/5 409/8/5
f 409/11/5 742/11/5 649/11/5 411/11/5
f 604/3/5 127/3/5 126/3/5 738/3/5
f 738/8/5 126/8/5 740/8/5 739/8/5
f 742/8/5 741/8/5 131/8/5 649/8/5
f 412/52/5 540/52/5 559/52/5 413/52/5
f 540/28/5 162/28/5 161/28/5 559/28/5
f 217/3/5 572/3/5 743/3/5 218/3/5
f 572/13/5 579/13/5 744/13/5 743/13/5
f 263/10/5 656/10/5 437/10/5 264/10/5
f 579/3/5 580/3/5 745/3/5 744/3/5
f 656/8/5 335/8/5 342/8/5 437/8/5
f 580/13/5 581/13/5 746/13/5 745/13/5
f 324/10/5 375/10/5 374/10/5 331/10/5
f 331/8/5 429/8/5 747/8/5 335/8/5
f 335/10/5 748/10/5 706/10/5 342/10/5
f 361/34/5 383/34/5 382/34/5 366/34/5
f 748/8/5 749/8/5 712/8/5 706/8/5
f 382/5/5 22/5/5 21/5/5 387/5/5
f 581/3/5 14/3/5 13/3/5 746/3/5
f 429/10/5 435/10/5 750/10/5 747/10/5
f 749/11/5 751/11/5 714/11/5 712/11/5
f 751/8/5 750/8/5 716/8/5 714/8/5
f 435/8/5 752/8/5 753/8/5 750/8/5
f 750/10/5 754/10/5 755/10/5 716/10/5
f 103/3/5 629/3/5 756/3/5 104/3/5
f 754/8/5 757/8/5 720/8/5 755/8/5
f 752/11/5 756/11/5 758/11/5 753/11/5
f 757/11/5 758/11/5 759/11/5 720/11/5
f 629/13/5 635/13/5 760/13/5 756/13/5
f 756/8/5 761/8/5 762/8/5 758/8/5
f 758/10/5 763/10/5 764/10/5 759/10/5
f 635/3/5 634/3/5 761/3/5 760/3/5
f 634/13/5 650/13/5 765/13/5 761/13/5
f 761/10/5 765/10/5 763/10/5 762/10/5
f 650/56/5 643/56/5 766/56/5 765/56/5
f 765/8/5 766/8/5 767/8/5 763/8/5
f 763/11/5 767/11/5 724/11/5 764/11/5
f 643/13/5 642/13/5 768/13/5 766/13/5
f 766/10/5 768/10/5 726/10/5 724/10/5
f 642/24/5 651/24/5 769/24/5 768/24/5
f 768/11/5 769/11/5 770/11/5 726/11/5
f 651/13/5 652/13/5 771/13/5 769/13/5
f 769/8/5 771/8/5 772/8/5 770/8/5
f 652/56/5 653/56/5 773/56/5 771/56/5
f 771/11/5 774/11/5 775/11/5 776/11/5
f 776/8/5 777/8/5 728/8/5 772/8/5
f 653/13/5 654/13/5 774/13/5 773/13/5
f 777/11/5 775/11/5 730/11/5 728/11/5
f 654/24/5 140/24/5 139/24/5 774/24/5
f 774/10/5 139/10/5 146/10/5 775/10/5
f 775/8/5 146/8/5 150/8/5 730/8/5
f 155/35/5 181/35/5 190/35/5 156/35/5
f 167/21/5 704/21/5 778/21/5 168/21/5
f 168/37/5 778/37/5 779/37/5 173/37/5
f 173/23/5 779/23/5 780/23/5 177/23/5
f 177/54/5 780/54/5 443/54/5 181/54/5
f 704/60/5 705/60/5 781/60/5 778/60/5
f 778/47/5 781/47/5 782/47/5 780/47/5
f 780/2/5 782/2/5 444/2/5 443/2/5
f 705/36/5 198/36/5 197/36/5 781/36/5
f 781/23/5 197/23/5 204/23/5 783/23/5
f 783/22/5 204/22/5 209/22/5 782/22/5
f 782/18/5 209/18/5 212/18/5 444/18/5
f 219/6/5 26/6/5 25/6/5 220/6/5
f 240/7/5 784/7/5 785/7/5 241/7/5
f 241/15/5 786/15/5 787/15/5 250/15/5
f 250/42/5 787/42/5 290/42/5 256/42/5
f 786/63/5 785/63/5 788/63/5 787/63/5
f 787/64/5 788/64/5 789/64/5 290/64/5
f 290/7/5 789/7/5 790/7/5 291/7/5
f 291/48/5 790/48/5 312/48/5 300/48/5
f 784/15/5 791/15/5 792/15/5 785/15/5
f 785/64/5 792/64/5 793/64/5 788/64/5
f 788/65/5 793/65/5 794/65/5 789/65/5
f 789/64/5 794/64/5 795/64/5 796/64/5
f 796/63/5 795/63/5 797/63/5 790/63/5
f 790/64/5 797/64/5 798/64/5 312/64/5
f 312/7/5 798/7/5 799/7/5 313/7/5
f 313/15/5 799/15/5 800/15/5 318/15/5
f 318/42/5 800/42/5 372/42/5 326/42/5
f 344/30/5 707/30/5 801/30/5 345/30/5
f 345/33/5 801/33/5 802/33/5 353/33/5
f 353/31/5 802/31/5 803/31/5 356/31/5
f 356/49/5 803/49/5 380/49/5 363/49/5
f 791/9/5 804/9/5 805/9/5 792/9/5
f 792/63/5 806/63/5 807/63/5 793/63/5
f 793/66/5 807/66/5 808/66/5 794/66/5
f 794/65/5 808/65/5 809/65/5 795/65/5
f 795/66/5 809/66/5 810/66/5 797/66/5
f 797/67/5 810/67/5 811/67/5 798/67/5
f 798/66/5 811/66/5 812/66/5 799/66/5
f 799/67/5 812/67/5 813/67/5 800/67/5
f 800/66/5 813/66/5 814/66/5 372/66/5
f 372/48/5 814/48/5 428/48/5 373/48/5
f 707/58/5 709/58/5 815/58/5 801/58/5
f 801/68/5 815/68/5 816/68/5 802/68/5
f 802/69/5 816/69/5 817/69/5 803/69/5
f 803/68/5 817/68/5 818/68/5 380/68/5
f 380/27/5 818/27/5 541/27/5 381/27/5
f 806/70/5 805/70/5 819/70/5 807/70/5
f 807/63/5 819/63/5 820/63/5 808/63/5
f 808/64/5 820/64/5 821/64/5 809/64/5
f 809/63/5 821/63/5 822/63/5 810/63/5
f 810/64/5 822/64/5 823/64/5 811/64/5
f 811/67/5 823/67/5 824/67/5 812/67/5
f 812/70/5 824/70/5 825/70/5 813/70/5
f 813/65/5 825/65/5 826/65/5 814/65/5
f 814/42/5 827/42/5 430/42/5 428/42/5
f 709/29/5 711/29/5 828/29/5 815/29/5
f 815/31/5 828/31/5 829/31/5 818/31/5
f 818/26/5 829/26/5 543/26/5 541/26/5
f 804/7/5 25/7/5 32/7/5 805/7/5
f 805/9/5 32/9/5 45/9/5 819/9/5
f 819/7/5 45/7/5 46/7/5 820/7/5
f 820/67/5 46/67/5 830/67/5 821/67/5
f 821/70/5 830/70/5 831/70/5 822/70/5
f 822/67/5 831/67/5 832/67/5 823/67/5
f 823/66/5 832/66/5 833/66/5 824/66/5
f 824/67/5 833/67/5 834/67/5 825/67/5
f 825/64/5 834/64/5 827/64/5 826/64/5
f 711/57/5 713/57/5 835/57/5 828/57/5
f 828/69/5 835/69/5 836/69/5 837/69/5
f 837/68/5 836/68/5 838/68/5 839/68/5
f 839/71/5 838/71/5 840/71/5 829/71/5
f 829/49/5 840/49/5 544/49/5 543/49/5
f 46/14/5 60/14/5 59/14/5 830/14/5
f 830/9/5 59/9/5 69/9/5 831/9/5
f 831/7/5 69/7/5 73/7/5 832/7/5
f 832/63/5 73/63/5 841/63/5 833/63/5
f 833/64/5 841/64/5 842/64/5 834/64/5
f 834/67/5 842/67/5 843/67/5 827/67/5
f 827/51/5 843/51/5 432/51/5 430/51/5
f 713/30/5 715/30/5 844/30/5 835/30/5
f 835/31/5 844/31/5 845/31/5 838/31/5
f 838/33/5 845/33/5 846/33/5 840/33/5
f 840/26/5 847/26/5 546/26/5 544/26/5
f 73/16/5 87/16/5 86/16/5 841/16/5
f 841/7/5 86/7/5 95/7/5 842/7/5
f 842/15/5 95/15/5 98/15/5 843/15/5
f 843/42/5 98/42/5 434/42/5 432/42/5
f 715/61/5 717/61/5 848/61/5 844/61/5
f 844/69/5 848/69/5 849/69/5 845/69/5
f 845/68/5 849/68/5 850/68/5 846/68/5
f 98/15/5 106/15/5 105/15/5 434/15/5
f 717/30/5 719/30/5 851/30/5 848/30/5
f 848/32/5 852/32/5 853/32/5 849/32/5
f 849/31/5 854/31/5 855/31/5 850/31/5
f 852/6/5 856/6/5 857/6/5 858/6/5
f 858/32/5 859/32/5 860/32/5 853/32/5
f 847/27/5 861/27/5 547/27/5 546/27/5
f 719/59/5 721/59/5 862/59/5 851/59/5
f 859/31/5 863/31/5 864/31/5 860/31/5
f 861/26/5 855/26/5 548/26/5 547/26/5
f 854/72/5 864/72/5 865/72/5 855/72/5
f 855/49/5 865/49/5 549/49/5 548/49/5
f 721/29/5 723/29/5 866/29/5 862/29/5
f 863/32/5 867/32/5 868/32/5 864/32/5
f 864/73/5 869/73/5 870/73/5 865/73/5
f 865/27/5 870/27/5 550/27/5 549/27/5
f 869/72/5 868/72/5 871/72/5 870/72/5
f 870/26/5 871/26/5 552/26/5 550/26/5
f 723/59/5 725/59/5 872/59/5 866/59/5
f 867/31/5 873/31/5 874/31/5 868/31/5
f 868/33/5 874/33/5 875/33/5 871/33/5
f 871/49/5 875/49/5 553/49/5 552/49/5
f 873/32/5 876/32/5 877/32/5 874/32/5
f 874/32/5 878/32/5 879/32/5 875/32/5
f 875/26/5 880/26/5 554/26/5 553/26/5
f 725/30/5 727/30/5 881/30/5 872/30/5
f 878/31/5 882/31/5 883/31/5 879/31/5
f 727/59/5 729/59/5 884/59/5 881/59/5
f 856/28/5 885/28/5 886/28/5 857/28/5
f 882/32/5 877/32/5 880/32/5 883/32/5
f 876/33/5 887/33/5 888/33/5 877/33/5
f 877/31/5 888/31/5 889/31/5 880/31/5
f 880/49/5 889/49/5 555/49/5 554/49/5
f 729/29/5 731/29/5 885/29/5 884/29/5
f 887/32/5 886/32/5 890/32/5 888/32/5
f 888/33/5 890/33/5 891/33/5 889/33/5
f 889/26/5 891/26/5 556/26/5 555/26/5
f 731/59/5 732/59/5 892/59/5 885/59/5
f 885/32/5 169/32/5 174/32/5 886/32/5
f 886/31/5 893/31/5 894/31/5 890/31/5
f 890/32/5 894/32/5 158/32/5 891/32/5
f 891/27/5 158/27/5 157/27/5 556/27/5
f 732/30/5 170/30/5 169/30/5 892/30/5
f 893/33/5 174/33/5 178/33/5 894/33/5
f 894/27/5 178/27/5 182/27/5 158/27/5
f 221/6/6 24/6/6 23/6/6 222/6/6
f 234/7/6 895/7/6 896/7/6 235/7/6
f 243/15/6 897/15/6 895/15/6 234/15/6
f 252/42/6 277/42/6 897/42/6 243/42/6
f 895/9/6 898/9/6 899/9/6 896/9/6
f 897/67/6 900/67/6 898/67/6 895/67/6
f 277/70/6 901/70/6 900/70/6 897/70/6
f 276/15/6 902/15/6 901/15/6 277/15/6
f 293/7/6 903/7/6 902/7/6 276/7/6
f 295/42/6 304/42/6 903/42/6 293/42/6
f 898/7/6 27/7/6 24/7/6 899/7/6
f 900/66/6 904/66/6 905/66/6 898/66/6
f 901/67/6 906/67/6 904/67/6 900/67/6
f 902/64/6 907/64/6 906/64/6 901/64/6
f 903/63/6 908/63/6 907/63/6 902/63/6
f 304/64/6 909/64/6 908/64/6 903/64/6
f 303/9/6 910/9/6 909/9/6 304/9/6
f 320/48/6 371/48/6 910/48/6 303/48/6
f 338/29/6 911/29/6 658/29/6 339/29/6
f 347/31/6 912/31/6 911/31/6 338/31/6
f 359/27/6 379/27/6 912/27/6 347/27/6
f 904/63/6 913/63/6 914/63/6 905/63/6
f 906/66/6 915/66/6 913/66/6 904/66/6
f 907/63/6 916/63/6 915/63/6 906/63/6
f 908/70/6 917/70/6 916/70/6 907/70/6
f 909/67/6 918/67/6 917/67/6 908/67/6
f 919/66/6 920/66/6 918/66/6 909/66/6
f 910/67/6 921/67/6 920/67/6 919/67/6
f 371/66/6 922/66/6 921/66/6 910/66/6
f 370/51/6 423/51/6 923/51/6 371/51/6
f 911/57/6 924/57/6 660/57/6 658/57/6
f 925/71/6 926/71/6 924/71/6 911/71/6
f 912/69/6 927/69/6 926/69/6 925/69/6
f 379/71/6 928/71/6 927/71/6 912/71/6
f 378/49/6 447/49/6 929/49/6 379/49/6
f 913/70/6 930/70/6 931/70/6 914/70/6
f 915/65/6 932/65/6 930/65/6 913/65/6
f 916/64/6 933/64/6 932/64/6 915/64/6
f 917/63/6 934/63/6 933/63/6 916/63/6
f 918/70/6 935/70/6 934/70/6 917/70/6
f 920/67/6 936/67/6 935/67/6 918/67/6
f 921/64/6 937/64/6 936/64/6 920/64/6
f 922/65/6 923/65/6 937/65/6 921/65/6
f 924/29/6 938/29/6 662/29/6 660/29/6
f 926/33/6 939/33/6 938/33/6 924/33/6
f 928/32/6 929/32/6 939/32/6 926/32/6
f 932/9/6 33/9/6 27/9/6 931/9/6
f 933/65/6 940/65/6 33/65/6 932/65/6
f 934/64/6 941/64/6 940/64/6 933/64/6
f 935/67/6 942/67/6 941/67/6 934/67/6
f 936/66/6 943/66/6 942/66/6 935/66/6
f 937/67/6 944/67/6 943/67/6 936/67/6
f 923/64/6 945/64/6 944/64/6 937/64/6
f 423/42/6 425/42/6 946/42/6 923/42/6
f 938/57/6 947/57/6 664/57/6 662/57/6
f 939/69/6 948/69/6 947/69/6 938/69/6
f 949/68/6 950/68/6 948/68/6 939/68/6
f 929/69/6 951/69/6 950/69/6 949/69/6
f 447/26/6 449/26/6 951/26/6 929/26/6
f 940/12/6 48/12/6 47/12/6 33/12/6
f 941/7/6 61/7/6 48/7/6 940/7/6
f 942/15/6 70/15/6 61/15/6 941/15/6
f 943/63/6 952/63/6 70/63/6 942/63/6
f 944/64/6 953/64/6 952/64/6 943/64/6
f 945/63/6 946/63/6 953/63/6 944/63/6
f 947/29/6 954/29/6 666/29/6 664/29/6
f 948/32/6 955/32/6 954/32/6 947/32/6
f 951/31/6 956/31/6 955/31/6 948/31/6
f 449/27/6 451/27/6 956/27/6 951/27/6
f 952/16/6 75/16/6 74/16/6 70/16/6
f 953/7/6 88/7/6 75/7/6 952/7/6
f 946/15/6 96/15/6 88/15/6 953/15/6
f 425/51/6 427/51/6 96/51/6 946/51/6
f 954/58/6 957/58/6 668/58/6 666/58/6
f 958/69/6 959/69/6 957/69/6 954/69/6
f 956/68/6 960/68/6 959/68/6 958/68/6
f 451/26/6 453/26/6 960/26/6 956/26/6
f 427/17/6 100/17/6 99/17/6 96/17/6
f 957/29/6 961/29/6 670/29/6 668/29/6
f 962/32/6 963/32/6 961/32/6 957/32/6
f 959/33/6 964/33/6 965/33/6 962/33/6
f 960/33/6 966/33/6 967/33/6 959/33/6
f 453/49/6 455/49/6 966/49/6 960/49/6
f 961/30/6 968/30/6 672/30/6 670/30/6
f 963/6/6 969/6/6 970/6/6 961/6/6
f 966/31/6 971/31/6 964/31/6 967/31/6
f 455/26/6 457/26/6 972/26/6 966/26/6
f 968/29/6 973/29/6 674/29/6 672/29/6
f 964/31/6 974/31/6 975/31/6 965/31/6
f 971/33/6 972/33/6 976/33/6 964/33/6
f 973/30/6 977/30/6 676/30/6 674/30/6
f 977/59/6 978/59/6 678/59/6 676/59/6
f 972/31/6 979/31/6 974/31/6 976/31/6
f 457/49/6 459/49/6 979/49/6 972/49/6
f 978/30/6 980/30/6 680/30/6 678/30/6
f 979/32/6 981/32/6 982/32/6 975/32/6
f 459/26/6 461/26/6 981/26/6 979/26/6
f 980/29/6 983/29/6 682/29/6 680/29/6
f 984/31/6 985/31/6 986/31/6 982/31/6
f 981/32/6 987/32/6 988/32/6 984/32/6
f 461/27/6 463/27/6 989/27/6 981/27/6
f 983/30/6 990/30/6 684/30/6 682/30/6
f 987/31/6 991/31/6 992/31/6 988/31/6
f 985/32/6 993/32/6 994/32/6 986/32/6
f 463/49/6 465/49/6 995/49/6 989/49/6
f 990/59/6 970/59/6 686/59/6 684/59/6
f 993/31/6 992/31/6 996/31/6 994/31/6
f 465/26/6 467/26/6 991/26/6 995/26/6
f 991/33/6 997/33/6 969/33/6 996/33/6
f 467/27/6 469/27/6 997/27/6 991/27/6
f 970/30/6 998/30/6 688/30/6 686/30/6
f 969/28/6 999/28/6 1000/28/6 970/28/6
f 1001/32/6 1002/32/6 1003/32/6 969/32/6
f 997/33/6 1004/33/6 1002/33/6 1001/33/6
f 469/26/6 471/26/6 1004/26/6 997/26/6
f 1002/31/6 1005/31/6 1006/31/6 1003/31/6
f 1004/32/6 1007/32/6 1008/32/6 1002/32/6
f 471/27/6 473/27/6 1007/27/6 1004/27/6
f 998/29/6 1000/29/6 690/29/6 688/29/6
f 1007/31/6 1009/31/6 1010/31/6 1008/31/6
f 473/49/6 475/49/6 1009/49/6 1007/49/6
f 1000/30/6 1011/30/6 692/30/6 690/30/6
f 999/33/6 1006/33/6 1011/33/6 1000/33/6
f 1009/32/6 151/32/6 1005/32/6 1010/32/6
f 475/26/6 152/26/6 151/26/6 1009/26/6
f 1011/29/6 164/29/6 163/29/6 692/29/6
f 1006/31/6 171/31/6 164/31/6 1011/31/6
f 1005/32/6 175/32/6 171/32/6 1006/32/6
f 151/27/6 179/27/6 175/27/6 1005/27/6
f 215/13/6 1012/13/6 561/13/6 216/13/6
f 1012/4/6 1013/4/6 563/4/6 561/4/6
f 259/10/6 661/10/6 1014/10/6 260/10/6
f 1013/13/6 1015/13/6 565/13/6 563/13/6
f 1015/4/6 1016/4/6 567/4/6 565/4/6
f 329/8/6 369/8/6 368/8/6 319/8/6
f 334/10/6 1017/10/6 369/10/6 329/10/6
f 365/50/6 377/50/6 376/50/6 355/50/6
f 1016/13/6 1018/13/6 569/13/6 567/13/6
f 1017/8/6 1014/8/6 1019/8/6 369/8/6
f 386/52/6 558/52/6 1020/52/6 377/52/6
f 1018/3/6 8/3/6 7/3/6 569/3/6
f 1014/10/6 1021/10/6 426/10/6 1019/10/6
f 661/8/6 665/8/6 1022/8/6 1014/8/6
f 558/5/6 16/5/6 15/5/6 1020/5/6
f 665/11/6 667/11/6 1023/11/6 1022/11/6
f 667/8/6 671/8/6 1024/8/6 1023/8/6
f 1021/11/6 1024/11/6 101/11/6 426/11/6
f 101/3/6 1025/3/6 607/3/6 102/3/6
f 1024/8/6 1026/8/6 1027/8/6 101/8/6
f 671/10/6 675/10/6 1026/10/6 1024/10/6
f 1026/11/6 1028/11/6 1025/11/6 1027/11/6
f 675/8/6 681/8/6 1029/8/6 1026/8/6
f 1025/4/6 1030/4/6 608/4/6 607/4/6
f 1028/10/6 1031/10/6 1030/10/6 1025/10/6
f 1030/3/6 1032/3/6 610/3/6 608/3/6
f 1031/8/6 1029/8/6 1033/8/6 1030/8/6
f 681/10/6 683/10/6 1032/10/6 1033/10/6
f 1032/4/6 1034/4/6 611/4/6 610/4/6
f 683/8/6 1035/8/6 1034/8/6 1032/8/6
f 1034/56/6 1036/56/6 613/56/6 611/56/6
f 1037/11/6 1038/11/6 1036/11/6 1034/11/6
f 1035/8/6 685/8/6 1038/8/6 1037/8/6
f 1036/3/6 1039/3/6 614/3/6 613/3/6
f 1038/8/6 1040/8/6 1039/8/6 1036/8/6
f 685/10/6 1041/10/6 1040/10/6 1038/10/6
f 1039/24/6 1042/24/6 616/24/6 614/24/6
f 1040/11/6 1043/11/6 1044/11/6 1039/11/6
f 1041/8/6 687/8/6 1045/8/6 1040/8/6
f 1042/4/6 1044/4/6 618/4/6 616/4/6
f 687/11/6 691/11/6 1046/11/6 1045/11/6
f 1044/24/6 1047/24/6 621/24/6 618/24/6
f 1043/10/6 1046/10/6 1048/10/6 1044/10/6
f 1047/3/6 1048/3/6 623/3/6 621/3/6
f 1048/24/6 134/24/6 133/24/6 623/24/6
f 1046/11/6 141/11/6 134/11/6 1048/11/6
f 691/10/6 147/10/6 141/10/6 1046/10/6
f 153/34/6 183/34/6 180/34/6 154/34/6
f 165/36/6 1049/36/6 694/36/6 166/36/6
f 176/22/6 1050/22/6 1049/22/6 165/22/6
f 180/19/6 442/19/6 1050/19/6 176/19/6
f 1049/41/6 1051/41/6 696/41/6 694/41/6
f 1050/62/6 1052/62/6 1051/62/6 1049/62/6
f 442/2/6 445/2/6 1052/2/6 1050/2/6
f 1051/21/6 192/21/6 191/21/6 696/21/6
f 1053/37/6 199/37/6 192/37/6 1051/37/6
f 1052/23/6 205/23/6 199/23/6 1053/23/6
f 445/19/6 210/19/6 205/19/6 1052/19/6
f 225/40/6 1/40/6 272/40/6 226/40/6
f 230/1/6 2/1/6 1/1/6 225/1/6
f 267/41/6 1054/41/6 733/41/6 268/41/6
f 272/46/6 1055/46/6 1054/46/6 267/46/6
f 1/55/6 364/55/6 354/55/6 272/55/6
f 1054/40/6 1056/40/6 348/40/6 733/40/6
f 1055/47/6 354/47/6 1056/47/6 1054/47/6
f 64/4/6 79/4/6 585/4/6 65/4/6
f 79/53/6 393/53/6 587/53/6 585/53/6
f 393/4/6 107/4/6 590/4/6 587/4/6
f 392/18/6 108/18/6 107/18/6 393/18/6
f 107/53/6 417/53/6 593/53/6 590/53/6
f 397/20/6 114/20/6 113/20/6 108/20/6
f 400/22/6 119/22/6 114/22/6 397/22/6
f 417/8/6 405/8/6 595/8/6 593/8/6
f 405/3/6 1057/3/6 597/3/6 595/3/6
f 404/8/6 612/8/6 1057/8/6 405/8/6
f 1057/13/6 123/13/6 122/13/6 597/13/6
f 1058/10/6 128/10/6 123/10/6 1057/10/6
f 612/8/6 132/8/6 128/8/6 1058/8/6
f 414/52/6 560/52/6 1059/52/6 415/52/6
f 560/28/6 160/28/6 159/28/6 1059/28/6
f 388/5/6 20/5/6 19/5/6 389/5/6
