# Rotstopper pistol, one object per component, studs, -Z forward, origin = grip centre
mtllib rotstopper.mtl
o Frame
g Frame_Frame
usemtl frame
v -0.14000 0.28000 -0.98000
v -0.14000 0.28000 0.32000
v -0.14000 0.50000 -0.98000
v -0.14000 0.50000 0.32000
v 0.14000 0.28000 -0.98000
v 0.14000 0.28000 0.32000
v 0.14000 0.50000 -0.98000
v 0.14000 0.50000 0.32000
f 1 2 4 3
f 5 7 8 6
f 1 5 6 2
f 3 4 8 7
f 1 3 7 5
f 2 6 8 4
g Frame_Beavertail
usemtl frame
v -0.13000 0.38000 0.32000
v -0.13000 0.38000 0.52000
v -0.13000 0.50000 0.32000
v -0.13000 0.50000 0.52000
v 0.13000 0.38000 0.32000
v 0.13000 0.38000 0.52000
v 0.13000 0.50000 0.32000
v 0.13000 0.50000 0.52000
f 9 10 12 11
f 13 15 16 14
f 9 13 14 10
f 11 12 16 15
f 9 11 15 13
f 10 14 16 12
g Frame_RailLug1
usemtl sdark
v -0.10000 0.23000 -0.74000
v -0.10000 0.23000 -0.66000
v -0.10000 0.28000 -0.74000
v -0.10000 0.28000 -0.66000
v 0.10000 0.23000 -0.74000
v 0.10000 0.23000 -0.66000
v 0.10000 0.28000 -0.74000
v 0.10000 0.28000 -0.66000
f 17 18 20 19
f 21 23 24 22
f 17 21 22 18
f 19 20 24 23
f 17 19 23 21
f 18 22 24 20
g Frame_RailLug2
usemtl sdark
v -0.10000 0.23000 -0.86000
v -0.10000 0.23000 -0.78000
v -0.10000 0.28000 -0.86000
v -0.10000 0.28000 -0.78000
v 0.10000 0.23000 -0.86000
v 0.10000 0.23000 -0.78000
v 0.10000 0.28000 -0.86000
v 0.10000 0.28000 -0.78000
f 25 26 28 27
f 29 31 32 30
f 25 29 30 26
f 27 28 32 31
f 25 27 31 29
f 26 30 32 28
g Frame_RailLug3
usemtl sdark
v -0.10000 0.23000 -0.98000
v -0.10000 0.23000 -0.90000
v -0.10000 0.28000 -0.98000
v -0.10000 0.28000 -0.90000
v 0.10000 0.23000 -0.98000
v 0.10000 0.23000 -0.90000
v 0.10000 0.28000 -0.98000
v 0.10000 0.28000 -0.90000
f 33 34 36 35
f 37 39 40 38
f 33 37 38 34
f 35 36 40 39
f 33 35 39 37
f 34 38 40 36
g Frame_GuardFront
usemtl frame
v -0.05000 0.02000 -0.63500
v -0.05000 0.02000 -0.56500
v -0.05000 0.28000 -0.63500
v -0.05000 0.28000 -0.56500
v 0.05000 0.02000 -0.63500
v 0.05000 0.02000 -0.56500
v 0.05000 0.28000 -0.63500
v 0.05000 0.28000 -0.56500
f 41 42 44 43
f 45 47 48 46
f 41 45 46 42
f 43 44 48 47
f 41 43 47 45
f 42 46 48 44
g Frame_GuardBottom
usemtl frame
v -0.05000 0.02000 -0.61000
v -0.05000 0.02000 -0.17000
v -0.05000 0.09000 -0.61000
v -0.05000 0.09000 -0.17000
v 0.05000 0.02000 -0.61000
v 0.05000 0.02000 -0.17000
v 0.05000 0.09000 -0.61000
v 0.05000 0.09000 -0.17000
f 49 50 52 51
f 53 55 56 54
f 49 53 54 50
f 51 52 56 55
f 49 51 55 53
f 50 54 56 52
g Frame_TakedownPin
usemtl sdark
v 0.13500 0.37000 -0.58000
v 0.13500 0.37000 -0.52000
v 0.13500 0.43000 -0.58000
v 0.13500 0.43000 -0.52000
v 0.15500 0.37000 -0.58000
v 0.15500 0.37000 -0.52000
v 0.15500 0.43000 -0.58000
v 0.15500 0.43000 -0.52000
f 57 58 60 59
f 61 63 64 62
f 57 61 62 58
f 59 60 64 63
f 57 59 63 61
f 58 62 64 60
o Grip
g Grip_Grip
usemtl frame
v -0.15000 -0.45680 -0.03971
v -0.15000 -0.36003 0.34841
v -0.15000 0.30003 -0.22841
v -0.15000 0.39680 0.15971
v 0.15000 -0.45680 -0.03971
v 0.15000 -0.36003 0.34841
v 0.15000 0.30003 -0.22841
v 0.15000 0.39680 0.15971
f 65 66 68 67
f 69 71 72 70
f 65 69 70 66
f 67 68 72 71
f 65 67 71 69
f 66 70 72 68
g Grip_PanelL
usemtl panel
v -0.17250 -0.35738 -0.01297
v -0.17250 -0.28480 0.27812
v -0.17250 0.14718 -0.13877
v -0.17250 0.21975 0.15232
v -0.14750 -0.35738 -0.01297
v -0.14750 -0.28480 0.27812
v -0.14750 0.14718 -0.13877
v -0.14750 0.21975 0.15232
f 73 74 76 75
f 77 79 80 78
f 73 77 78 74
f 75 76 80 79
f 73 75 79 77
f 74 78 80 76
g Grip_EmblemL
usemtl accent
v -0.18400 0.02081 -0.02554
v -0.18400 -0.03069 0.06017
v -0.18400 0.10653 0.02596
v -0.18400 0.05503 0.11168
v -0.17200 0.02081 -0.02554
v -0.17200 -0.03069 0.06017
v -0.17200 0.10653 0.02596
v -0.17200 0.05503 0.11168
f 81 82 84 83
f 85 87 88 86
f 81 85 86 82
f 83 84 88 87
f 81 83 87 85
f 82 86 88 84
g Grip_GrooveL1
usemtl pdark
v -0.18400 -0.17303 -0.03832
v -0.18400 -0.11013 0.21396
v -0.18400 -0.14392 -0.04558
v -0.18400 -0.08103 0.20670
v -0.17200 -0.17303 -0.03832
v -0.17200 -0.11013 0.21396
v -0.17200 -0.14392 -0.04558
v -0.17200 -0.08103 0.20670
f 89 90 92 91
f 93 95 96 94
f 89 93 94 90
f 91 92 96 95
f 89 91 95 93
f 90 94 96 92
g Grip_GrooveL2
usemtl pdark
v -0.18400 -0.25066 -0.01896
v -0.18400 -0.18776 0.23331
v -0.18400 -0.22155 -0.02622
v -0.18400 -0.15865 0.22606
v -0.17200 -0.25066 -0.01896
v -0.17200 -0.18776 0.23331
v -0.17200 -0.22155 -0.02622
v -0.17200 -0.15865 0.22606
f 97 98 100 99
f 101 103 104 102
f 97 101 102 98
f 99 100 104 103
f 97 99 103 101
f 98 102 104 100
g Grip_GrooveL3
usemtl pdark
v -0.18400 -0.32828 0.00039
v -0.18400 -0.26538 0.25267
v -0.18400 -0.29917 -0.00687
v -0.18400 -0.23627 0.24541
v -0.17200 -0.32828 0.00039
v -0.17200 -0.26538 0.25267
v -0.17200 -0.29917 -0.00687
v -0.17200 -0.23627 0.24541
f 105 106 108 107
f 109 111 112 110
f 105 109 110 106
f 107 108 112 111
f 105 107 111 109
f 106 110 112 108
g Grip_PanelR
usemtl panel
v 0.14750 -0.35738 -0.01297
v 0.14750 -0.28480 0.27812
v 0.14750 0.14718 -0.13877
v 0.14750 0.21975 0.15232
v 0.17250 -0.35738 -0.01297
v 0.17250 -0.28480 0.27812
v 0.17250 0.14718 -0.13877
v 0.17250 0.21975 0.15232
f 113 114 116 115
f 117 119 120 118
f 113 117 118 114
f 115 116 120 119
f 113 115 119 117
f 114 118 120 116
g Grip_EmblemR
usemtl accent
v 0.17200 0.02081 -0.02554
v 0.17200 -0.03069 0.06017
v 0.17200 0.10653 0.02596
v 0.17200 0.05503 0.11168
v 0.18400 0.02081 -0.02554
v 0.18400 -0.03069 0.06017
v 0.18400 0.10653 0.02596
v 0.18400 0.05503 0.11168
f 121 122 124 123
f 125 127 128 126
f 121 125 126 122
f 123 124 128 127
f 121 123 127 125
f 122 126 128 124
g Grip_GrooveR1
usemtl pdark
v 0.17200 -0.17303 -0.03832
v 0.17200 -0.11013 0.21396
v 0.17200 -0.14392 -0.04558
v 0.17200 -0.08103 0.20670
v 0.18400 -0.17303 -0.03832
v 0.18400 -0.11013 0.21396
v 0.18400 -0.14392 -0.04558
v 0.18400 -0.08103 0.20670
f 129 130 132 131
f 133 135 136 134
f 129 133 134 130
f 131 132 136 135
f 129 131 135 133
f 130 134 136 132
g Grip_GrooveR2
usemtl pdark
v 0.17200 -0.25066 -0.01896
v 0.17200 -0.18776 0.23331
v 0.17200 -0.22155 -0.02622
v 0.17200 -0.15865 0.22606
v 0.18400 -0.25066 -0.01896
v 0.18400 -0.18776 0.23331
v 0.18400 -0.22155 -0.02622
v 0.18400 -0.15865 0.22606
f 137 138 140 139
f 141 143 144 142
f 137 141 142 138
f 139 140 144 143
f 137 139 143 141
f 138 142 144 140
g Grip_GrooveR3
usemtl pdark
v 0.17200 -0.32828 0.00039
v 0.17200 -0.26538 0.25267
v 0.17200 -0.29917 -0.00687
v 0.17200 -0.23627 0.24541
v 0.18400 -0.32828 0.00039
v 0.18400 -0.26538 0.25267
v 0.18400 -0.29917 -0.00687
v 0.18400 -0.23627 0.24541
f 145 146 148 147
f 149 151 152 150
f 145 149 150 146
f 147 148 152 151
f 145 147 151 149
f 146 150 152 148
g Grip_FrontStrap1
usemtl pdark
v -0.13000 -0.13538 -0.13531
v -0.13000 -0.13054 -0.11590
v -0.13000 -0.10627 -0.14257
v -0.13000 -0.10143 -0.12316
v 0.13000 -0.13538 -0.13531
v 0.13000 -0.13054 -0.11590
v 0.13000 -0.10627 -0.14257
v 0.13000 -0.10143 -0.12316
f 153 154 156 155
f 157 159 160 158
f 153 157 158 154
f 155 156 160 159
f 153 155 159 157
f 154 158 160 156
g Grip_FrontStrap2
usemtl pdark
v -0.13000 -0.23241 -0.11112
v -0.13000 -0.22757 -0.09171
v -0.13000 -0.20330 -0.11837
v -0.13000 -0.19846 -0.09897
v 0.13000 -0.23241 -0.11112
v 0.13000 -0.22757 -0.09171
v 0.13000 -0.20330 -0.11837
v 0.13000 -0.19846 -0.09897
f 161 162 164 163
f 165 167 168 166
f 161 165 166 162
f 163 164 168 167
f 161 163 167 165
f 162 166 168 164
g Grip_FrontStrap3
usemtl pdark
v -0.13000 -0.32944 -0.08692
v -0.13000 -0.32460 -0.06752
v -0.13000 -0.30033 -0.09418
v -0.13000 -0.29549 -0.07478
v 0.13000 -0.32944 -0.08692
v 0.13000 -0.32460 -0.06752
v 0.13000 -0.30033 -0.09418
v 0.13000 -0.29549 -0.07478
f 169 170 172 171
f 173 175 176 174
f 169 173 174 170
f 171 172 176 175
f 169 171 175 173
f 170 174 176 172
o Slide
g Slide_Slide
usemtl slide
v -0.16000 0.50000 -1.08000
v -0.16000 0.50000 0.36000
v -0.16000 0.80000 -1.08000
v -0.16000 0.80000 0.36000
v 0.16000 0.50000 -1.08000
v 0.16000 0.50000 0.36000
v 0.16000 0.80000 -1.08000
v 0.16000 0.80000 0.36000
f 177 178 180 179
f 181 183 184 182
f 177 181 182 178
f 179 180 184 183
f 177 179 183 181
f 178 182 184 180
g Slide_Nose
usemtl slide
v -0.14000 0.52000 -1.18000
v -0.14000 0.52000 -1.08000
v -0.14000 0.76000 -1.18000
v -0.14000 0.76000 -1.08000
v 0.14000 0.52000 -1.18000
v 0.14000 0.52000 -1.08000
v 0.14000 0.76000 -1.18000
v 0.14000 0.76000 -1.08000
f 185 186 188 187
f 189 191 192 190
f 185 189 190 186
f 187 188 192 191
f 185 187 191 189
f 186 190 192 188
g Slide_Rib
usemtl sdark
v -0.07000 0.80000 -1.02000
v -0.07000 0.80000 0.18000
v -0.07000 0.84000 -1.02000
v -0.07000 0.84000 0.18000
v 0.07000 0.80000 -1.02000
v 0.07000 0.80000 0.18000
v 0.07000 0.84000 -1.02000
v 0.07000 0.84000 0.18000
f 193 194 196 195
f 197 199 200 198
f 193 197 198 194
f 195 196 200 199
f 193 195 199 197
f 194 198 200 196
g Slide_Serration1
usemtl sdark
v -0.17000 0.55000 0.26250
v -0.17000 0.55000 0.29750
v -0.17000 0.75000 0.26250
v -0.17000 0.75000 0.29750
v 0.17000 0.55000 0.26250
v 0.17000 0.55000 0.29750
v 0.17000 0.75000 0.26250
v 0.17000 0.75000 0.29750
f 201 202 204 203
f 205 207 208 206
f 201 205 206 202
f 203 204 208 207
f 201 203 207 205
f 202 206 208 204
g Slide_Serration2
usemtl sdark
v -0.17000 0.55000 0.18250
v -0.17000 0.55000 0.21750
v -0.17000 0.75000 0.18250
v -0.17000 0.75000 0.21750
v 0.17000 0.55000 0.18250
v 0.17000 0.55000 0.21750
v 0.17000 0.75000 0.18250
v 0.17000 0.75000 0.21750
f 209 210 212 211
f 213 215 216 214
f 209 213 214 210
f 211 212 216 215
f 209 211 215 213
f 210 214 216 212
g Slide_Serration3
usemtl sdark
v -0.17000 0.55000 0.10250
v -0.17000 0.55000 0.13750
v -0.17000 0.75000 0.10250
v -0.17000 0.75000 0.13750
v 0.17000 0.55000 0.10250
v 0.17000 0.55000 0.13750
v 0.17000 0.75000 0.10250
v 0.17000 0.75000 0.13750
f 217 218 220 219
f 221 223 224 222
f 217 221 222 218
f 219 220 224 223
f 217 219 223 221
f 218 222 224 220
g Slide_Serration4
usemtl sdark
v -0.17000 0.55000 0.02250
v -0.17000 0.55000 0.05750
v -0.17000 0.75000 0.02250
v -0.17000 0.75000 0.05750
v 0.17000 0.55000 0.02250
v 0.17000 0.55000 0.05750
v 0.17000 0.75000 0.02250
v 0.17000 0.75000 0.05750
f 225 226 228 227
f 229 231 232 230
f 225 229 230 226
f 227 228 232 231
f 225 227 231 229
f 226 230 232 228
g Slide_Stripe
usemtl accent
v -0.17000 0.55500 -0.93000
v -0.17000 0.55500 -0.31000
v -0.17000 0.60500 -0.93000
v -0.17000 0.60500 -0.31000
v 0.17000 0.55500 -0.93000
v 0.17000 0.55500 -0.31000
v 0.17000 0.60500 -0.93000
v 0.17000 0.60500 -0.31000
f 233 234 236 235
f 237 239 240 238
f 233 237 238 234
f 235 236 240 239
f 233 235 239 237
f 234 238 240 236
g Slide_EjectionPort
usemtl black
v 0.15500 0.65000 -0.27000
v 0.15500 0.65000 0.03000
v 0.15500 0.77000 -0.27000
v 0.15500 0.77000 0.03000
v 0.17500 0.65000 -0.27000
v 0.17500 0.65000 0.03000
v 0.17500 0.77000 -0.27000
v 0.17500 0.77000 0.03000
f 241 242 244 243
f 245 247 248 246
f 241 245 246 242
f 243 244 248 247
f 241 243 247 245
f 242 246 248 244
g Slide_RearSightL
usemtl black
v -0.13000 0.80000 0.26500
v -0.13000 0.80000 0.33500
v -0.13000 0.89000 0.26500
v -0.13000 0.89000 0.33500
v -0.05000 0.80000 0.26500
v -0.05000 0.80000 0.33500
v -0.05000 0.89000 0.26500
v -0.05000 0.89000 0.33500
f 249 250 252 251
f 253 255 256 254
f 249 253 254 250
f 251 252 256 255
f 249 251 255 253
f 250 254 256 252
g Slide_RearSightR
usemtl black
v 0.05000 0.80000 0.26500
v 0.05000 0.80000 0.33500
v 0.05000 0.89000 0.26500
v 0.05000 0.89000 0.33500
v 0.13000 0.80000 0.26500
v 0.13000 0.80000 0.33500
v 0.13000 0.89000 0.26500
v 0.13000 0.89000 0.33500
f 257 258 260 259
f 261 263 264 262
f 257 261 262 258
f 259 260 264 263
f 257 259 263 261
f 258 262 264 260
g Slide_FrontSight
usemtl neon
v -0.03000 0.84000 -0.98000
v -0.03000 0.84000 -0.92000
v -0.03000 0.93000 -0.98000
v -0.03000 0.93000 -0.92000
v 0.03000 0.84000 -0.98000
v 0.03000 0.84000 -0.92000
v 0.03000 0.93000 -0.98000
v 0.03000 0.93000 -0.92000
f 265 266 268 267
f 269 271 272 270
f 265 269 270 266
f 267 268 272 271
f 265 267 271 269
f 266 270 272 268
o Barrel
g Barrel_Barrel
usemtl barrel
v -0.08500 0.57500 -1.24000
v -0.08500 0.57500 -0.78000
v -0.08500 0.74500 -1.24000
v -0.08500 0.74500 -0.78000
v 0.08500 0.57500 -1.24000
v 0.08500 0.57500 -0.78000
v 0.08500 0.74500 -1.24000
v 0.08500 0.74500 -0.78000
f 273 274 276 275
f 277 279 280 278
f 273 277 278 274
f 275 276 280 279
f 273 275 279 277
f 274 278 280 276
g Barrel_Bore
usemtl black
v -0.04500 0.61500 -1.25500
v -0.04500 0.61500 -1.23500
v -0.04500 0.70500 -1.25500
v -0.04500 0.70500 -1.23500
v 0.04500 0.61500 -1.25500
v 0.04500 0.61500 -1.23500
v 0.04500 0.70500 -1.25500
v 0.04500 0.70500 -1.23500
f 281 282 284 283
f 285 287 288 286
f 281 285 286 282
f 283 284 288 287
f 281 283 287 285
f 282 286 288 284
o Magazine
g Magazine_Magazine
usemtl sdark
v -0.11000 -0.47868 0.03789
v -0.11000 -0.40610 0.32898
v -0.11000 0.20053 -0.13146
v -0.11000 0.27311 0.15963
v 0.11000 -0.47868 0.03789
v 0.11000 -0.40610 0.32898
v 0.11000 0.20053 -0.13146
v 0.11000 0.27311 0.15963
f 289 290 292 291
f 293 295 296 294
f 289 293 294 290
f 291 292 296 295
f 289 291 295 293
f 290 294 296 292
g Magazine_BasePlate
usemtl accent
v -0.15000 -0.55626 -0.00460
v -0.15000 -0.45465 0.40292
v -0.15000 -0.48834 -0.02154
v -0.15000 -0.38673 0.38598
v 0.15000 -0.55626 -0.00460
v 0.15000 -0.45465 0.40292
v 0.15000 -0.48834 -0.02154
v 0.15000 -0.38673 0.38598
f 297 298 300 299
f 301 303 304 302
f 297 301 302 298
f 299 300 304 303
f 297 299 303 301
f 298 302 304 300
g Magazine_TopRound
usemtl brass
v -0.05000 0.20295 -0.12175
v -0.05000 0.25133 0.07230
v -0.05000 0.26117 -0.13627
v -0.05000 0.30955 0.05779
v 0.05000 0.20295 -0.12175
v 0.05000 0.25133 0.07230
v 0.05000 0.26117 -0.13627
v 0.05000 0.30955 0.05779
f 305 306 308 307
f 309 311 312 310
f 305 309 310 306
f 307 308 312 311
f 305 307 311 309
f 306 310 312 308
o Trigger
g Trigger_Trigger
usemtl sdark
v -0.03500 0.09000 -0.45500
v -0.03500 0.09000 -0.38500
v -0.03500 0.29000 -0.45500
v -0.03500 0.29000 -0.38500
v 0.03500 0.09000 -0.45500
v 0.03500 0.09000 -0.38500
v 0.03500 0.29000 -0.45500
v 0.03500 0.29000 -0.38500
f 313 314 316 315
f 317 319 320 318
f 313 317 318 314
f 315 316 320 319
f 313 315 319 317
f 314 318 320 316
g Trigger_TriggerShoe
usemtl sdark
v -0.03500 0.09000 -0.49500
v -0.03500 0.09000 -0.40500
v -0.03500 0.15000 -0.49500
v -0.03500 0.15000 -0.40500
v 0.03500 0.09000 -0.49500
v 0.03500 0.09000 -0.40500
v 0.03500 0.15000 -0.49500
v 0.03500 0.15000 -0.40500
f 321 322 324 323
f 325 327 328 326
f 321 325 326 322
f 323 324 328 327
f 321 323 327 325
f 322 326 328 324
o Hammer
g Hammer_Hammer
usemtl black
v -0.05000 0.49000 0.38000
v -0.05000 0.49000 0.46000
v -0.05000 0.67000 0.38000
v -0.05000 0.67000 0.46000
v 0.05000 0.49000 0.38000
v 0.05000 0.49000 0.46000
v 0.05000 0.67000 0.38000
v 0.05000 0.67000 0.46000
f 329 330 332 331
f 333 335 336 334
f 329 333 334 330
f 331 332 336 335
f 329 331 335 333
f 330 334 336 332
g Hammer_HammerSpur
usemtl black
v -0.06000 0.64000 0.41000
v -0.06000 0.64000 0.51000
v -0.06000 0.69000 0.41000
v -0.06000 0.69000 0.51000
v 0.06000 0.64000 0.41000
v 0.06000 0.64000 0.51000
v 0.06000 0.69000 0.41000
v 0.06000 0.69000 0.51000
f 337 338 340 339
f 341 343 344 342
f 337 341 342 338
f 339 340 344 343
f 337 339 343 341
f 338 342 344 340
o SlideStop
g SlideStop_SlideStop
usemtl black
v -0.17000 0.44000 -0.34000
v -0.17000 0.44000 -0.12000
v -0.17000 0.50000 -0.34000
v -0.17000 0.50000 -0.12000
v -0.14000 0.44000 -0.34000
v -0.14000 0.44000 -0.12000
v -0.14000 0.50000 -0.34000
v -0.14000 0.50000 -0.12000
f 345 346 348 347
f 349 351 352 350
f 345 349 350 346
f 347 348 352 351
f 345 347 351 349
f 346 350 352 348
