# VX-9 Pocketbrick voxel pistol, generated by build_pistol.py
# +X = barrel direction, +Y = up, +Z = right side
mtllib vx9_pistol.mtl
o vx9_pistol
v -0.0900 0.1000 -0.0100
v -0.0900 0.1200 -0.0100
v -0.0900 0.1200 0.0100
v -0.0900 0.1000 0.0100
v -0.0500 0.1200 -0.0500
v -0.0500 0.1800 -0.0500
v -0.0500 0.1800 -0.0300
v -0.0500 0.1200 -0.0300
v -0.0500 0.1200 0.0300
v -0.0500 0.1800 0.0300
v -0.0500 0.1800 0.0500
v -0.0500 0.1200 0.0500
v -0.0300 0.2000 -0.0300
v -0.0300 0.2200 -0.0300
v -0.0300 0.2200 -0.0100
v -0.0300 0.2000 -0.0100
v -0.0300 0.2000 0.0100
v -0.0300 0.2200 0.0100
v -0.0300 0.2200 0.0300
v -0.0300 0.2000 0.0300
v -0.0100 0.1200 -0.0500
v -0.0100 0.1800 -0.0500
v -0.0100 0.1800 -0.0300
v -0.0100 0.1200 -0.0300
v -0.0100 0.1200 0.0300
v -0.0100 0.1800 0.0300
v -0.0100 0.1800 0.0500
v -0.0100 0.1200 0.0500
v 0.0500 0.1400 0.0300
v 0.0500 0.1800 0.0300
v 0.0500 0.1800 0.0500
v 0.0500 0.1400 0.0500
v 0.0700 -0.1200 -0.0500
v 0.0700 -0.1000 -0.0500
v 0.0700 -0.1000 0.0500
v 0.0700 -0.1200 0.0500
v 0.0700 -0.0600 -0.0500
v 0.0700 -0.0600 0.0500
v 0.0900 -0.0600 -0.0500
v 0.0900 -0.0200 -0.0500
v 0.0900 -0.0200 0.0500
v 0.0900 -0.0600 0.0500
v 0.0900 0.0000 -0.0500
v 0.0900 0.0000 -0.0300
v 0.0900 -0.0200 -0.0300
v 0.0900 -0.0200 0.0300
v 0.0900 0.0000 0.0300
v 0.0900 0.0000 0.0500
v 0.1100 0.0000 -0.0500
v 0.1100 0.0400 -0.0500
v 0.1100 0.0400 0.0500
v 0.1100 0.0000 0.0500
v 0.1100 0.0600 -0.0500
v 0.1100 0.0600 0.0300
v 0.1100 0.0400 0.0300
v 0.1100 0.0600 0.0500
v 0.1700 0.0200 -0.0100
v 0.1700 0.0600 -0.0100
v 0.1700 0.0600 0.0100
v 0.1700 0.0200 0.0100
v 0.1900 0.0000 -0.0100
v 0.1900 0.0200 -0.0100
v 0.1900 0.0200 0.0100
v 0.1900 0.0000 0.0100
v 0.2300 0.0000 -0.0300
v 0.2300 0.0600 -0.0300
v 0.2300 0.0600 0.0300
v 0.2300 0.0000 0.0300
v 0.2500 -0.0200 -0.0300
v 0.2500 0.0000 -0.0300
v 0.2500 0.0000 0.0300
v 0.2500 -0.0200 0.0300
v 0.3500 0.0600 -0.0500
v 0.3500 0.1000 -0.0500
v 0.3500 0.1000 -0.0300
v 0.3500 0.0600 -0.0300
v 0.3500 0.1000 0.0300
v 0.3500 0.0600 0.0300
v 0.3500 0.1000 0.0500
v 0.3500 0.0600 0.0500
v 0.3500 0.1200 -0.0500
v 0.3500 0.1200 0.0500
v 0.3500 0.1800 -0.0300
v 0.3500 0.2000 -0.0300
v 0.3500 0.2000 0.0300
v 0.3500 0.1800 0.0300
v 0.3500 0.2000 -0.0100
v 0.3500 0.2200 -0.0100
v 0.3500 0.2200 0.0100
v 0.3500 0.2000 0.0100
v 0.3700 0.1200 -0.0500
v 0.3700 0.1800 -0.0500
v 0.3700 0.1800 -0.0300
v 0.3700 0.1200 -0.0300
v 0.3700 0.1200 0.0300
v 0.3700 0.1800 0.0300
v 0.3700 0.1800 0.0500
v 0.3700 0.1200 0.0500
v 0.3700 0.1400 -0.0100
v 0.3700 0.1600 -0.0100
v 0.3700 0.1600 0.0100
v 0.3700 0.1400 0.0100
v 0.3900 0.1200 -0.0300
v 0.3900 0.1400 -0.0300
v 0.3900 0.1400 0.0300
v 0.3900 0.1200 0.0300
v 0.3900 0.1800 -0.0300
v 0.3900 0.1800 -0.0100
v 0.3900 0.1400 -0.0100
v 0.3900 0.1400 0.0100
v 0.3900 0.1800 0.0100
v 0.3900 0.1800 0.0300
v 0.3900 0.1600 -0.0100
v 0.3900 0.1600 0.0100
v -0.1100 -0.1200 0.0500
v -0.1100 -0.1000 0.0500
v -0.1100 -0.1000 -0.0500
v -0.1100 -0.1200 -0.0500
v -0.1100 -0.0600 0.0500
v -0.1100 -0.0600 -0.0500
v -0.1100 0.0800 0.0300
v -0.1100 0.1000 0.0300
v -0.1100 0.1000 -0.0300
v -0.1100 0.0800 -0.0300
v -0.1100 0.1000 0.0100
v -0.1100 0.1400 0.0100
v -0.1100 0.1400 -0.0100
v -0.1100 0.1000 -0.0100
v -0.0900 -0.0600 0.0500
v -0.0900 0.0000 0.0500
v -0.0900 0.0000 -0.0500
v -0.0900 -0.0600 -0.0500
v -0.0900 0.0600 0.0500
v -0.0900 0.0800 0.0500
v -0.0900 0.0800 -0.0500
v -0.0900 0.0600 -0.0500
v -0.0900 0.0800 -0.0300
v -0.0900 0.1000 -0.0300
v -0.0900 0.1000 -0.0500
v -0.0900 0.1000 0.0500
v -0.0900 0.1000 0.0300
v -0.0900 0.0800 0.0300
v -0.0900 0.1800 -0.0100
v -0.0900 0.1800 -0.0500
v -0.0900 0.1200 -0.0500
v -0.0900 0.1200 0.0500
v -0.0900 0.1800 0.0500
v -0.0900 0.1800 0.0100
v -0.0900 0.1400 0.0100
v -0.0900 0.1400 -0.0100
v -0.0900 0.1800 0.0300
v -0.0900 0.2000 0.0300
v -0.0900 0.2000 -0.0300
v -0.0900 0.1800 -0.0300
v -0.0700 0.0000 0.0500
v -0.0700 0.0600 0.0500
v -0.0700 0.0600 -0.0500
v -0.0700 0.0000 -0.0500
v -0.0700 0.1000 0.0500
v -0.0700 0.1200 0.0500
v -0.0700 0.1200 -0.0500
v -0.0700 0.1000 -0.0500
v -0.0700 0.2000 -0.0100
v -0.0700 0.2200 -0.0100
v -0.0700 0.2200 -0.0300
v -0.0700 0.2000 -0.0300
v -0.0700 0.2000 0.0300
v -0.0700 0.2200 0.0300
v -0.0700 0.2200 0.0100
v -0.0700 0.2000 0.0100
v -0.0300 0.1200 -0.0300
v -0.0300 0.1800 -0.0300
v -0.0300 0.1800 -0.0500
v -0.0300 0.1200 -0.0500
v -0.0300 0.1200 0.0500
v -0.0300 0.1800 0.0500
v -0.0300 0.1800 0.0300
v -0.0300 0.1200 0.0300
v 0.0100 0.1200 -0.0300
v 0.0100 0.1800 -0.0300
v 0.0100 0.1800 -0.0500
v 0.0100 0.1200 -0.0500
v 0.0100 0.1200 0.0500
v 0.0100 0.1800 0.0500
v 0.0100 0.1800 0.0300
v 0.0100 0.1200 0.0300
v 0.1300 0.1400 0.0500
v 0.1300 0.1800 0.0500
v 0.1300 0.1800 0.0300
v 0.1300 0.1400 0.0300
v 0.1500 0.0000 0.0100
v 0.1500 0.0600 0.0100
v 0.1500 0.0600 -0.0100
v 0.1500 0.0000 -0.0100
v 0.2100 0.0000 0.0300
v 0.2100 0.0600 0.0300
v 0.2100 0.0600 -0.0300
v 0.2100 0.0000 -0.0300
v 0.3300 0.2000 0.0100
v 0.3300 0.2200 0.0100
v 0.3300 0.2200 -0.0100
v 0.3300 0.2000 -0.0100
v 0.1100 0.0000 -0.0300
v 0.1100 0.0000 -0.0100
v 0.2100 0.0000 -0.0100
v 0.1100 0.0000 0.0300
v 0.1500 0.0000 0.0300
v 0.1900 0.0000 0.0300
v 0.3500 0.1800 0.0500
v 0.3300 0.0600 -0.0500
v 0.3300 0.0600 -0.0300
v 0.1100 0.0600 -0.0300
v 0.2100 0.0600 -0.0100
v 0.1100 0.0600 -0.0100
v 0.1500 0.0600 0.0500
v 0.2100 0.0600 0.0500
v 0.1700 0.0600 0.0500
v 0.3300 0.0600 0.0300
v 0.3300 0.0600 0.0500
v 0.1700 0.0000 0.0100
v 0.0700 0.1400 0.0300
v 0.0700 0.1800 0.0300
v -0.0900 -0.1000 0.0500
v -0.0700 -0.1000 0.0500
v -0.0700 -0.0800 0.0500
v -0.0900 -0.0800 0.0500
v -0.0700 -0.0600 0.0500
v 0.3300 0.1000 0.0500
v -0.0500 -0.1000 0.0500
v -0.0500 -0.0800 0.0500
v -0.0500 -0.0600 0.0500
v -0.0500 -0.0400 0.0500
v -0.0700 -0.0400 0.0500
v -0.0500 -0.0200 0.0500
v -0.0700 -0.0200 0.0500
v -0.0500 0.0000 0.0500
v -0.0500 0.0600 0.0500
v -0.0300 -0.1000 0.0500
v -0.0300 -0.0800 0.0500
v -0.0300 -0.0600 0.0500
v -0.0300 -0.0400 0.0500
v -0.0300 -0.0200 0.0500
v -0.0300 0.0000 0.0500
v -0.0300 0.0200 0.0500
v -0.0500 0.0200 0.0500
v -0.0300 0.0400 0.0500
v -0.0500 0.0400 0.0500
v 0.0900 0.0400 0.0500
v 0.0900 0.0600 0.0500
v -0.0100 -0.1000 0.0500
v -0.0100 -0.0800 0.0500
v -0.0100 -0.0600 0.0500
v -0.0100 -0.0400 0.0500
v -0.0100 -0.0200 0.0500
v -0.0100 0.0000 0.0500
v -0.0100 0.0200 0.0500
v -0.0100 0.0400 0.0500
v 0.0100 -0.1000 0.0500
v 0.0100 -0.0800 0.0500
v 0.0100 -0.0600 0.0500
v 0.0100 -0.0400 0.0500
v 0.0100 -0.0200 0.0500
v 0.0100 0.0000 0.0500
v 0.0100 0.0200 0.0500
v 0.0100 0.0400 0.0500
v 0.0300 -0.1000 0.0500
v 0.0300 -0.0800 0.0500
v 0.0300 -0.0600 0.0500
v 0.0300 -0.0400 0.0500
v 0.0300 -0.0200 0.0500
v 0.0300 0.0000 0.0500
v 0.0300 0.0200 0.0500
v 0.0300 0.0400 0.0500
v 0.0500 0.1200 0.0500
v 0.0500 -0.1000 0.0500
v 0.0500 -0.0800 0.0500
v 0.0500 -0.0600 0.0500
v 0.0500 -0.0400 0.0500
v 0.0500 -0.0200 0.0500
v 0.0500 0.0000 0.0500
v 0.0500 0.0200 0.0500
v 0.0500 0.0400 0.0500
v 0.0700 -0.0400 0.0500
v 0.0700 -0.0200 0.0500
v 0.0700 0.0000 0.0500
v 0.0700 0.0200 0.0500
v 0.0700 0.0400 0.0500
v 0.1500 0.1200 0.0500
v 0.1500 0.1400 0.0500
v 0.0900 0.0200 0.0500
v 0.3700 0.1400 0.0500
v 0.3500 0.1400 0.0500
v -0.0900 -0.1000 -0.0500
v -0.0900 -0.0800 -0.0500
v -0.0700 -0.0800 -0.0500
v -0.0700 -0.1000 -0.0500
v -0.0700 -0.0600 -0.0500
v 0.1300 0.1000 -0.0500
v 0.1300 0.0600 -0.0500
v -0.0500 -0.0800 -0.0500
v -0.0500 -0.1000 -0.0500
v -0.0500 -0.0600 -0.0500
v -0.0700 -0.0400 -0.0500
v -0.0500 -0.0400 -0.0500
v -0.0700 -0.0200 -0.0500
v -0.0500 -0.0200 -0.0500
v -0.0500 0.0000 -0.0500
v -0.0500 0.0600 -0.0500
v -0.0300 -0.0800 -0.0500
v -0.0300 -0.1000 -0.0500
v -0.0300 -0.0600 -0.0500
v -0.0300 -0.0400 -0.0500
v -0.0300 -0.0200 -0.0500
v -0.0300 0.0000 -0.0500
v -0.0500 0.0200 -0.0500
v -0.0300 0.0200 -0.0500
v -0.0500 0.0400 -0.0500
v -0.0300 0.0400 -0.0500
v -0.0100 -0.0800 -0.0500
v -0.0100 -0.1000 -0.0500
v -0.0100 -0.0600 -0.0500
v -0.0100 -0.0400 -0.0500
v -0.0100 -0.0200 -0.0500
v -0.0100 0.0000 -0.0500
v -0.0100 0.0200 -0.0500
v -0.0100 0.0400 -0.0500
v 0.0100 -0.0800 -0.0500
v 0.0100 -0.1000 -0.0500
v 0.0100 -0.0600 -0.0500
v 0.0100 -0.0400 -0.0500
v 0.0100 -0.0200 -0.0500
v 0.0100 0.0000 -0.0500
v 0.0100 0.0200 -0.0500
v 0.0100 0.0400 -0.0500
v 0.0300 -0.0800 -0.0500
v 0.0300 -0.1000 -0.0500
v 0.0300 -0.0600 -0.0500
v 0.0300 -0.0400 -0.0500
v 0.0300 -0.0200 -0.0500
v 0.0300 0.0000 -0.0500
v 0.0300 0.0200 -0.0500
v 0.0300 0.0400 -0.0500
v 0.1500 0.1800 -0.0500
v 0.1500 0.1200 -0.0500
v 0.0500 -0.0800 -0.0500
v 0.0500 -0.1000 -0.0500
v 0.0500 -0.0600 -0.0500
v 0.0500 -0.0400 -0.0500
v 0.0500 -0.0200 -0.0500
v 0.0500 0.0000 -0.0500
v 0.0500 0.0200 -0.0500
v 0.0500 0.0400 -0.0500
v 0.0700 -0.0400 -0.0500
v 0.0700 -0.0200 -0.0500
v 0.0700 0.0000 -0.0500
v 0.0700 0.0200 -0.0500
v 0.0700 0.0400 -0.0500
v 0.0900 0.0200 -0.0500
v 0.0900 0.0400 -0.0500
v 0.1300 0.0800 -0.0500
v 0.3300 0.0800 -0.0500
v 0.2100 0.1000 -0.0500
v 0.2100 0.0800 -0.0500
v 0.1500 0.1400 -0.0500
v 0.3500 0.1400 -0.0500
v 0.3700 0.1400 -0.0500
v 0.3300 0.1000 -0.0500
v 0.1700 0.0000 -0.0100
vt 0.041667 0.5
vt 0.125000 0.5
vt 0.208333 0.5
vt 0.291667 0.5
vt 0.375000 0.5
vt 0.458333 0.5
vt 0.541667 0.5
vt 0.625000 0.5
vt 0.708333 0.5
vt 0.791667 0.5
vt 0.875000 0.5
vt 0.958333 0.5
vn 1 0 0
vn -1 0 0
vn 0 1 0
vn 0 -1 0
vn 0 0 1
vn 0 0 -1
usemtl vx9_palette
s off
f 1/3/1 2/3/1 3/3/1 4/3/1
f 5/1/1 6/1/1 7/1/1 8/1/1
f 9/1/1 10/1/1 11/1/1 12/1/1
f 13/4/1 14/4/1 15/4/1 16/4/1
f 17/4/1 18/4/1 19/4/1 20/4/1
f 21/1/1 22/1/1 23/1/1 24/1/1
f 25/1/1 26/1/1 27/1/1 28/1/1
f 29/1/1 30/1/1 31/1/1 32/1/1
f 33/8/1 34/8/1 35/8/1 36/8/1
f 34/9/1 37/9/1 38/9/1 35/9/1
f 39/9/1 40/9/1 41/9/1 42/9/1
f 40/9/1 43/9/1 44/9/1 45/9/1
f 46/9/1 47/9/1 48/9/1 41/9/1
f 49/9/1 50/9/1 51/9/1 52/9/1
f 50/9/1 53/9/1 54/9/1 55/9/1
f 55/8/1 54/8/1 56/8/1 51/8/1
f 57/12/1 58/12/1 59/12/1 60/12/1
f 61/12/1 62/12/1 63/12/1 64/12/1
f 65/4/1 66/4/1 67/4/1 68/4/1
f 69/4/1 70/4/1 71/4/1 72/4/1
f 73/8/1 74/8/1 75/8/1 76/8/1
f 76/4/1 75/4/1 77/4/1 78/4/1
f 78/8/1 77/8/1 79/8/1 80/8/1
f 74/1/1 81/1/1 82/1/1 79/1/1
f 83/2/1 84/2/1 85/2/1 86/2/1
f 87/8/1 88/8/1 89/8/1 90/8/1
f 91/1/1 92/1/1 93/1/1 94/1/1
f 95/1/1 96/1/1 97/1/1 98/1/1
f 99/6/1 100/6/1 101/6/1 102/6/1
f 103/5/1 104/5/1 105/5/1 106/5/1
f 104/5/1 107/5/1 108/5/1 109/5/1
f 110/5/1 111/5/1 112/5/1 105/5/1
f 113/5/1 108/5/1 111/5/1 114/5/1
f 115/8/2 116/8/2 117/8/2 118/8/2
f 116/9/2 119/9/2 120/9/2 117/9/2
f 121/4/2 122/4/2 123/4/2 124/4/2
f 125/3/2 126/3/2 127/3/2 128/3/2
f 129/9/2 130/9/2 131/9/2 132/9/2
f 133/4/2 134/4/2 135/4/2 136/4/2
f 137/4/2 138/4/2 139/4/2 135/4/2
f 134/4/2 140/4/2 141/4/2 142/4/2
f 2/1/2 143/1/2 144/1/2 145/1/2
f 146/1/2 147/1/2 148/1/2 3/1/2
f 149/1/2 148/1/2 143/1/2 150/1/2
f 151/2/2 152/2/2 153/2/2 154/2/2
f 155/9/2 156/9/2 157/9/2 158/9/2
f 159/1/2 160/1/2 161/1/2 162/1/2
f 163/4/2 164/4/2 165/4/2 166/4/2
f 167/4/2 168/4/2 169/4/2 170/4/2
f 171/1/2 172/1/2 173/1/2 174/1/2
f 175/1/2 176/1/2 177/1/2 178/1/2
f 179/1/2 180/1/2 181/1/2 182/1/2
f 183/1/2 184/1/2 185/1/2 186/1/2
f 187/1/2 188/1/2 189/1/2 190/1/2
f 191/12/2 192/12/2 193/12/2 194/12/2
f 195/4/2 196/4/2 197/4/2 198/4/2
f 199/8/2 200/8/2 201/8/2 202/8/2
f 120/9/3 119/9/3 129/9/3 132/9/3
f 131/9/3 130/9/3 155/9/3 158/9/3
f 203/4/3 204/4/3 205/4/3 198/4/3
f 65/4/3 68/4/3 71/4/3 70/4/3
f 204/4/3 206/4/3 207/4/3 194/4/3
f 61/4/3 208/4/3 195/4/3 205/4/3
f 191/4/3 207/4/3 208/4/3 64/4/3
f 57/12/3 60/12/3 63/12/3 62/12/3
f 139/4/3 140/4/3 159/4/3 162/4/3
f 123/4/3 128/4/3 1/4/3 138/4/3
f 125/4/3 122/4/3 141/4/3 4/4/3
f 5/1/3 8/1/3 171/1/3 174/1/3
f 21/1/3 24/1/3 179/1/3 182/1/3
f 9/1/3 12/1/3 175/1/3 178/1/3
f 25/1/3 28/1/3 183/1/3 186/1/3
f 127/3/3 126/3/3 149/3/3 150/3/3
f 99/5/3 102/5/3 110/5/3 109/5/3
f 29/1/3 32/1/3 187/1/3 190/1/3
f 144/1/3 154/1/3 7/1/3 6/1/3
f 173/1/3 172/1/3 23/1/3 22/1/3
f 181/1/3 180/1/3 93/1/3 92/1/3
f 83/1/3 209/1/3 97/1/3 93/1/3
f 93/5/3 96/5/3 112/5/3 107/5/3
f 151/1/3 147/1/3 11/1/3 10/1/3
f 177/1/3 176/1/3 27/1/3 26/1/3
f 185/1/3 184/1/3 31/1/3 30/1/3
f 189/1/3 188/1/3 209/1/3 86/1/3
f 153/2/3 152/2/3 167/2/3 166/2/3
f 13/2/3 16/2/3 87/2/3 84/2/3
f 163/2/3 170/2/3 199/2/3 202/2/3
f 17/2/3 20/2/3 85/2/3 90/2/3
f 165/4/3 164/4/3 15/4/3 14/4/3
f 201/8/3 200/8/3 89/8/3 88/8/3
f 169/4/3 168/4/3 19/4/3 18/4/3
f 33/8/4 36/8/4 115/8/4 118/8/4
f 39/9/4 42/9/4 38/9/4 37/9/4
f 69/4/4 72/4/4 46/4/4 45/4/4
f 49/9/4 203/9/4 44/9/4 43/9/4
f 206/9/4 52/9/4 48/9/4 47/9/4
f 157/4/4 156/4/4 133/4/4 136/4/4
f 210/4/4 211/4/4 212/4/4 53/4/4
f 73/8/4 76/8/4 211/8/4 210/8/4
f 197/4/4 213/4/4 214/4/4 212/4/4
f 76/4/4 78/4/4 67/4/4 66/4/4
f 193/4/4 215/4/4 56/4/4 214/4/4
f 213/4/4 216/4/4 217/4/4 58/4/4
f 59/4/4 217/4/4 215/4/4 192/4/4
f 218/4/4 219/4/4 216/4/4 196/4/4
f 78/8/4 80/8/4 219/8/4 218/8/4
f 137/4/4 142/4/4 121/4/4 124/4/4
f 161/1/4 160/1/4 146/1/4 145/1/4
f 91/1/4 98/1/4 82/1/4 81/1/4
f 103/5/4 106/5/4 95/5/4 94/5/4
f 113/5/4 114/5/4 101/5/4 100/5/4
f 163/4/5 16/4/5 15/4/5 164/4/5
f 99/5/5 109/5/5 113/5/5 100/5/5
f 125/3/5 4/3/5 149/3/5 126/3/5
f 191/12/5 220/12/5 59/12/5 192/12/5
f 220/12/5 64/12/5 63/12/5 60/12/5
f 199/8/5 90/8/5 89/8/5 200/8/5
f 121/4/5 142/4/5 141/4/5 122/4/5
f 151/2/5 86/2/5 85/2/5 152/2/5
f 167/4/5 20/4/5 19/4/5 168/4/5
f 9/3/5 178/3/5 177/3/5 10/3/5
f 25/3/5 186/3/5 185/3/5 26/3/5
f 29/6/5 221/6/5 222/6/5 30/6/5
f 221/5/5 190/5/5 189/5/5 222/5/5
f 46/4/5 72/4/5 71/4/5 47/4/5
f 195/4/5 68/4/5 67/4/5 196/4/5
f 95/5/5 106/5/5 112/5/5 96/5/5
f 115/8/5 36/8/5 35/8/5 116/8/5
f 116/9/5 223/9/5 129/9/5 119/9/5
f 223/10/5 224/10/5 225/10/5 226/10/5
f 226/11/5 225/11/5 227/11/5 129/11/5
f 129/9/5 227/9/5 155/9/5 130/9/5
f 133/4/5 219/4/5 228/4/5 140/4/5
f 146/1/5 12/1/5 11/1/5 147/1/5
f 224/11/5 229/11/5 230/11/5 225/11/5
f 225/10/5 230/10/5 231/10/5 227/10/5
f 227/11/5 231/11/5 232/11/5 233/11/5
f 233/10/5 232/10/5 234/10/5 235/10/5
f 235/11/5 234/11/5 236/11/5 155/11/5
f 155/9/5 236/9/5 237/9/5 156/9/5
f 159/1/5 79/1/5 82/1/5 160/1/5
f 229/10/5 238/10/5 239/10/5 230/10/5
f 230/11/5 239/11/5 240/11/5 231/11/5
f 231/10/5 240/10/5 241/10/5 232/10/5
f 232/11/5 241/11/5 242/11/5 234/11/5
f 234/10/5 242/10/5 243/10/5 236/10/5
f 236/11/5 243/11/5 244/11/5 245/11/5
f 245/10/5 244/10/5 246/10/5 247/10/5
f 247/9/5 248/9/5 249/9/5 237/9/5
f 238/11/5 250/11/5 251/11/5 239/11/5
f 239/10/5 251/10/5 252/10/5 240/10/5
f 240/11/5 252/11/5 253/11/5 241/11/5
f 241/10/5 253/10/5 254/10/5 242/10/5
f 242/11/5 254/11/5 255/11/5 243/11/5
f 243/10/5 255/10/5 256/10/5 244/10/5
f 244/11/5 256/11/5 257/11/5 246/11/5
f 175/1/5 28/1/5 27/1/5 176/1/5
f 250/10/5 258/10/5 259/10/5 251/10/5
f 251/11/5 259/11/5 260/11/5 252/11/5
f 252/10/5 260/10/5 261/10/5 253/10/5
f 253/11/5 261/11/5 262/11/5 254/11/5
f 254/10/5 262/10/5 263/10/5 255/10/5
f 255/11/5 263/11/5 264/11/5 256/11/5
f 256/10/5 264/10/5 265/10/5 257/10/5
f 258/11/5 266/11/5 267/11/5 259/11/5
f 259/10/5 267/10/5 268/10/5 260/10/5
f 260/11/5 268/11/5 269/11/5 261/11/5
f 261/10/5 269/10/5 270/10/5 262/10/5
f 262/11/5 270/11/5 271/11/5 263/11/5
f 263/10/5 271/10/5 272/10/5 264/10/5
f 264/11/5 272/11/5 273/11/5 265/11/5
f 183/1/5 274/1/5 31/1/5 184/1/5
f 266/10/5 275/10/5 276/10/5 267/10/5
f 267/11/5 276/11/5 277/11/5 268/11/5
f 268/10/5 277/10/5 278/10/5 269/10/5
f 269/11/5 278/11/5 279/11/5 270/11/5
f 270/10/5 279/10/5 280/10/5 271/10/5
f 271/11/5 280/11/5 281/11/5 272/11/5
f 272/10/5 281/10/5 282/10/5 273/10/5
f 275/9/5 35/9/5 38/9/5 277/9/5
f 277/11/5 38/11/5 283/11/5 278/11/5
f 278/10/5 283/10/5 284/10/5 279/10/5
f 279/11/5 284/11/5 285/11/5 280/11/5
f 280/10/5 285/10/5 286/10/5 281/10/5
f 281/11/5 286/11/5 287/11/5 282/11/5
f 274/1/5 288/1/5 289/1/5 32/1/5
f 38/9/5 42/9/5 48/9/5 285/9/5
f 285/11/5 48/11/5 290/11/5 286/11/5
f 286/10/5 290/10/5 248/10/5 287/10/5
f 48/9/5 52/9/5 51/9/5 248/9/5
f 248/8/5 51/8/5 56/8/5 249/8/5
f 187/1/5 291/1/5 97/1/5 188/1/5
f 288/7/5 82/7/5 292/7/5 289/7/5
f 219/8/5 80/8/5 79/8/5 228/8/5
f 82/1/5 98/1/5 291/1/5 292/1/5
f 117/8/6 34/8/6 33/8/6 118/8/6
f 120/9/6 132/9/6 293/9/6 117/9/6
f 294/10/6 295/10/6 296/10/6 293/10/6
f 132/11/6 297/11/6 295/11/6 294/11/6
f 131/9/6 158/9/6 297/9/6 132/9/6
f 139/4/6 298/4/6 299/4/6 136/4/6
f 144/1/6 6/1/6 5/1/6 145/1/6
f 295/11/6 300/11/6 301/11/6 296/11/6
f 297/10/6 302/10/6 300/10/6 295/10/6
f 303/11/6 304/11/6 302/11/6 297/11/6
f 305/10/6 306/10/6 304/10/6 303/10/6
f 158/11/6 307/11/6 306/11/6 305/11/6
f 157/9/6 308/9/6 307/9/6 158/9/6
f 161/1/6 81/1/6 74/1/6 162/1/6
f 300/10/6 309/10/6 310/10/6 301/10/6
f 302/11/6 311/11/6 309/11/6 300/11/6
f 304/10/6 312/10/6 311/10/6 302/10/6
f 306/11/6 313/11/6 312/11/6 304/11/6
f 307/10/6 314/10/6 313/10/6 306/10/6
f 315/11/6 316/11/6 314/11/6 307/11/6
f 317/10/6 318/10/6 316/10/6 315/10/6
f 308/9/6 53/9/6 50/9/6 317/9/6
f 309/11/6 319/11/6 320/11/6 310/11/6
f 311/10/6 321/10/6 319/10/6 309/10/6
f 312/11/6 322/11/6 321/11/6 311/11/6
f 313/10/6 323/10/6 322/10/6 312/10/6
f 314/11/6 324/11/6 323/11/6 313/11/6
f 316/10/6 325/10/6 324/10/6 314/10/6
f 318/11/6 326/11/6 325/11/6 316/11/6
f 173/1/6 22/1/6 21/1/6 174/1/6
f 319/10/6 327/10/6 328/10/6 320/10/6
f 321/11/6 329/11/6 327/11/6 319/11/6
f 322/10/6 330/10/6 329/10/6 321/10/6
f 323/11/6 331/11/6 330/11/6 322/11/6
f 324/10/6 332/10/6 331/10/6 323/10/6
f 325/11/6 333/11/6 332/11/6 324/11/6
f 326/10/6 334/10/6 333/10/6 325/10/6
f 327/11/6 335/11/6 336/11/6 328/11/6
f 329/10/6 337/10/6 335/10/6 327/10/6
f 330/11/6 338/11/6 337/11/6 329/11/6
f 331/10/6 339/10/6 338/10/6 330/10/6
f 332/11/6 340/11/6 339/11/6 331/11/6
f 333/10/6 341/10/6 340/10/6 332/10/6
f 334/11/6 342/11/6 341/11/6 333/11/6
f 181/1/6 343/1/6 344/1/6 182/1/6
f 335/10/6 345/10/6 346/10/6 336/10/6
f 337/11/6 347/11/6 345/11/6 335/11/6
f 338/10/6 348/10/6 347/10/6 337/10/6
f 339/11/6 349/11/6 348/11/6 338/11/6
f 340/10/6 350/10/6 349/10/6 339/10/6
f 341/11/6 351/11/6 350/11/6 340/11/6
f 342/10/6 352/10/6 351/10/6 341/10/6
f 347/9/6 37/9/6 34/9/6 346/9/6
f 348/11/6 353/11/6 37/11/6 347/11/6
f 349/10/6 354/10/6 353/10/6 348/10/6
f 350/11/6 355/11/6 354/11/6 349/11/6
f 351/10/6 356/10/6 355/10/6 350/10/6
f 352/11/6 357/11/6 356/11/6 351/11/6
f 355/9/6 43/9/6 39/9/6 37/9/6
f 356/11/6 358/11/6 43/11/6 355/11/6
f 357/10/6 359/10/6 358/10/6 356/10/6
f 359/9/6 50/9/6 49/9/6 43/9/6
f 360/4/6 361/4/6 210/4/6 299/4/6
f 298/3/6 362/3/6 363/3/6 360/3/6
f 364/7/6 365/7/6 81/7/6 344/7/6
f 343/1/6 92/1/6 366/1/6 364/1/6
f 362/4/6 367/4/6 361/4/6 363/4/6
f 367/8/6 74/8/6 73/8/6 210/8/6
f 365/1/6 366/1/6 91/1/6 81/1/6
f 123/4/6 138/4/6 137/4/6 124/4/6
f 153/2/6 84/2/6 83/2/6 154/2/6
f 165/4/6 14/4/6 13/4/6 166/4/6
f 7/3/6 172/3/6 171/3/6 8/3/6
f 23/3/6 180/3/6 179/3/6 24/3/6
f 44/4/6 70/4/6 69/4/6 45/4/6
f 197/4/6 66/4/6 65/4/6 198/4/6
f 93/5/6 107/5/6 103/5/6 94/5/6
f 127/3/6 150/3/6 1/3/6 128/3/6
f 193/12/6 58/12/6 368/12/6 194/12/6
f 57/12/6 62/12/6 61/12/6 368/12/6
f 201/8/6 88/8/6 87/8/6 202/8/6
f 169/4/6 18/4/6 17/4/6 170/4/6
f 101/5/6 114/5/6 110/5/6 102/5/6
